<svg width="40" height="48" xmlns="http://www.w3.org/2000/svg">
  <g fill="none" fill-rule="evenodd">
    <path d="M16.695 15.287A8.001 8.001 0 0 1 20 0a8 8 0 0 1 3.305 15.287L38.857 20l-.752 1.88a2.858 2.858 0 1 1-2.121 5.304l-.555 1.387-10.286-3.714 12 16.857-1.955 1.434a2.857 2.857 0 1 1-4.563 3.346L28.57 48 20 33.714 11.429 48l-2.054-1.506a2.857 2.857 0 1 1-4.563-3.346l-1.955-1.434 12-16.857-10.286 3.714-.555-1.387a2.857 2.857 0 0 1-2.121-5.303L1.143 20l15.552-4.713z" fill="#D8D8D8"/>
    <g transform="translate(1 1)" fill="#B6B6B6" stroke="#D8D8D8">
      <circle stroke-width=".3" cx="11.58" cy="31" r="1.85"/>
      <circle stroke-width=".3" cx="14.5" cy="27" r="1.85"/>
      <circle stroke-width=".3" cx="23.5" cy="27" r="1.85"/>
      <circle stroke-width=".3" cx="15.58" cy="33" r="1.85"/>
      <circle stroke-width=".3" cx="19" cy="29" r="1.85"/>
      <circle stroke-width=".3" cx="19" cy="24" r="1.85"/>
      <circle stroke-width=".3" cx="19" cy="20" r="1.85"/>
      <circle stroke-width=".3" cx="17" cy="16" r="1.85"/>
      <circle stroke-width=".3" cx="21" cy="16" r="1.85"/>
      <circle stroke-width=".3" cx="4" cy="20" r="1.85"/>
      <circle stroke-width=".3" cx="6" cy="24" r="1.85"/>
      <circle stroke-width=".3" cx="8.5" cy="19" r="1.85"/>
      <circle stroke-width=".3" cx="10" cy="23" r="1.85"/>
      <circle stroke-width=".3" cx="13" cy="17.5" r="1.85"/>
      <circle stroke-width=".3" cx="15" cy="21.5" r="1.85"/>
      <circle stroke-width=".3" transform="matrix(-1 0 0 1 68 0)" cx="34" cy="20" r="1.85"/>
      <circle stroke-width=".3" transform="matrix(-1 0 0 1 64 0)" cx="32" cy="24" r="1.85"/>
      <circle stroke-width=".3" transform="matrix(-1 0 0 1 59 0)" cx="29.5" cy="19" r="1.85"/>
      <circle stroke-width=".3" transform="matrix(-1 0 0 1 56 0)" cx="28" cy="23" r="1.85"/>
      <circle stroke-width=".3" transform="matrix(-1 0 0 1 50 0)" cx="25" cy="17.5" r="1.85"/>
      <circle stroke-width=".3" transform="matrix(-1 0 0 1 46 0)" cx="23" cy="21.5" r="1.85"/>
      <circle stroke-width=".3" cx="9.58" cy="35" r="1.85"/>
      <circle stroke-width=".3" cx="13.58" cy="37" r="1.85"/>
      <circle stroke-width=".3" cx="6.58" cy="39" r="1.85"/>
      <circle stroke-width=".3" cx="10.58" cy="41" r="1.85"/>
      <circle stroke-width=".3" transform="matrix(-1 0 0 1 53.16 0)" cx="26.58" cy="31" r="1.85"/>
      <circle stroke-width=".3" transform="matrix(-1 0 0 1 45.16 0)" cx="22.58" cy="33" r="1.85"/>
      <circle stroke-width=".3" transform="matrix(-1 0 0 1 57.16 0)" cx="28.58" cy="35" r="1.85"/>
      <circle stroke-width=".3" transform="matrix(-1 0 0 1 49.16 0)" cx="24.58" cy="37" r="1.85"/>
      <circle stroke-width=".3" transform="matrix(-1 0 0 1 63.16 0)" cx="31.58" cy="39" r="1.85"/>
      <circle stroke-width=".3" transform="matrix(-1 0 0 1 55.16 0)" cx="27.58" cy="41" r="1.85"/>
      <circle stroke-width=".3" cx="6" cy="44" r="1.85"/>
      <circle stroke-width=".3" cx="2" cy="23.5" r="1.85"/>
      <circle stroke-width=".3" cx="36" cy="23.5" r="1.85"/>
      <circle stroke-width=".3" cx="32" cy="44" r="1.85"/>
      <circle stroke-width=".2" cx="19" cy="2" r="1.9"/>
      <circle stroke-width=".2" cx="19" cy="7" r="2.4"/>
      <circle stroke-width=".2" cx="24" cy="7" r="1.9"/>
      <circle stroke-width=".2" cx="14" cy="7" r="1.9"/>
      <circle stroke-width=".2" cx="15" cy="3" r="1.9"/>
      <circle stroke-width=".2" cx="23" cy="3" r="1.9"/>
      <circle stroke-width=".2" cx="15" cy="11" r="1.9"/>
      <circle stroke-width=".2" cx="23" cy="11" r="1.9"/>
      <circle stroke-width=".2" cx="19" cy="12" r="1.9"/>
    </g>
  </g>
</svg>