<?xml version="1.0" encoding="utf-8"?>
<!-- Generator: Adobe Illustrator 21.0.0, SVG Export Plug-In . SVG Version: 6.00 Build 0)  -->
<svg version="1.1" id="Слой_1" xmlns="http://www.w3.org/2000/svg" xmlns:xlink="http://www.w3.org/1999/xlink" x="0px" y="0px"
	 viewBox="0 0 40 48" style="enable-background:new 0 0 40 48;" xml:space="preserve">
<style type="text/css">
	.st0{fill:#D8D8D8;}
	.st1{fill:#B6B6B6;}
</style>
<title>ic-boy-one</title>
<desc>Created with Sketch.</desc>
<g id="Symbols">
	<g id="Assets-Board" transform="translate(-224.000000, -292.000000)">
		<g id="Icons" transform="translate(20.000000, 20.000000)">
			<g id="ic-boy-one" transform="translate(204.000000, 272.000000)">
				<path id="Combined-Shape" class="st0" d="M16.7,15.3C13.9,14,12,11.2,12,8c0-4.4,3.6-8,8-8s8,3.6,8,8c0,3.2-1.9,6-4.7,7.3
					L38.9,20l-0.8,1.9c1.1,0.4,1.9,1.5,1.9,2.7c0,1.6-1.3,2.9-2.9,2.9c-0.4,0-0.8-0.1-1.2-0.2l-0.6,1.4l-10.3-3.7l12,16.9l-2,1.4
					c0.5,0.5,0.8,1.2,0.8,2c0,1.6-1.3,2.9-2.9,2.9c-1.1,0-2-0.6-2.5-1.5l-2,1.5L20,33.7L11.4,48l-2.1-1.5C8.9,47.4,7.9,48,6.9,48
					C5.3,48,4,46.7,4,45.1c0-0.8,0.3-1.5,0.8-2l-2-1.4l12-16.9L4.6,28.6L4,27.2c-0.3,0.2-0.8,0.2-1.2,0.2c-1.6,0-2.9-1.3-2.9-2.9
					c0-1.2,0.8-2.3,1.9-2.7L1.1,20L16.7,15.3z"/>
				<circle id="Oval-3" class="st1" cx="23" cy="20" r="3"/>
			</g>
		</g>
		<g id="Slices" transform="translate(20.000000, 20.000000)">
		</g>
	</g>
</g>
</svg>
