<?xml version="1.0" encoding="utf-8"?>
<!-- Generator: Adobe Illustrator 23.0.1, SVG Export Plug-In . SVG Version: 6.00 Build 0)  -->
<svg version="1.1" id="Слой_1" xmlns="http://www.w3.org/2000/svg" xmlns:xlink="http://www.w3.org/1999/xlink" x="0px" y="0px"
	 width="40px" height="48px" viewBox="0 0 40 48" style="enable-background:new 0 0 40 48;" xml:space="preserve">
<style type="text/css">
	.st0{fill-rule:evenodd;clip-rule:evenodd;fill:#D8D8D8;}
	.st1{fill-rule:evenodd;clip-rule:evenodd;fill:#B6B6B6;}
</style>
<g>
	<path class="st0" d="M16.81,15.34c-4.05-1.76-5.91-6.48-4.15-10.53C13.94,1.89,16.82,0,20,0c4.42,0,8,3.58,8.01,7.99
		c0,3.19-1.89,6.08-4.82,7.35l15.1,3.64L37.7,20.7c1.31,0.25,2.3,1.38,2.3,2.74c0,1.54-1.28,2.79-2.86,2.79
		c-0.44,0-0.87-0.1-1.24-0.27l-0.47,1.39l-9.14-1.67l8,17.86l-1.86,0.13c0.1,0.31,0.15,0.64,0.15,0.98c0,1.85-1.54,3.35-3.43,3.35
		c-1.89,0-3.43-1.5-3.43-3.35c0-0.19,0.02-0.38,0.05-0.57H20v-0.52v0.52h-5.76c0.03,0.18,0.05,0.37,0.05,0.57
		c0,1.85-1.53,3.35-3.43,3.35c-1.89,0-3.43-1.5-3.43-3.35c0-0.34,0.05-0.67,0.15-0.98l-1.86-0.13l8-17.86l-9.14,1.67L4.1,25.96
		c-0.39,0.18-0.81,0.28-1.24,0.28C1.28,26.23,0,24.98,0,23.44c0-1.36,0.99-2.49,2.3-2.74l-0.59-1.73
		C1.71,18.98,16.81,15.34,16.81,15.34z"/>
	<path class="st1" d="M14.8,14.08c-0.99-0.45-1.91-0.68-2.77-0.68c-0.98,0-1.54,1.4-3.13,2.23c-0.5,0.26-1.57,0.42-3.19,0.47
		c1.14-2.31,1.77-4.65,1.88-7C7.76,5.57,6.1,5.91,6.29,3.91c0.18-2.01,1.95-3.04,3.89-3.04c1.23,0,2.46,0.66,3.72,1.97
		C12.67,4.28,12,6.11,12,8C12,10.34,13.02,12.56,14.8,14.08z M26.11,2.84c1.25-1.31,2.49-1.97,3.72-1.97c1.93,0,3.7,1.04,3.89,3.04
		c0.18,2-1.47,1.66-1.31,5.19c0.11,2.35,0.74,4.68,1.88,7c-1.63-0.05-2.69-0.2-3.19-0.47c-1.59-0.83-2.15-2.23-3.13-2.23
		c-0.86,0-1.78,0.23-2.77,0.68C26.98,12.56,28,10.34,28,8C28,6.03,27.29,4.23,26.11,2.84z"/>
</g>
<circle id="Oval-3" class="st1" cx="21.93" cy="21" r="3"/>
</svg>
