<?xml version="1.0" encoding="utf-8"?>
<!-- Generator: Adobe Illustrator 23.0.1, SVG Export Plug-In . SVG Version: 6.00 Build 0)  -->
<svg version="1.1" id="Слой_1" xmlns="http://www.w3.org/2000/svg" xmlns:xlink="http://www.w3.org/1999/xlink" x="0px" y="0px"
	 width="40px" height="48px" viewBox="0 0 40 48" style="enable-background:new 0 0 40 48;" xml:space="preserve">
<style type="text/css">
	.st0{fill-rule:evenodd;clip-rule:evenodd;fill:#D8D8D8;}
	.st1{fill-rule:evenodd;clip-rule:evenodd;fill:#B6B6B6;}
</style>
<g>
	<path class="st0" d="M23.19,15.34l15.1,3.64L37.7,20.7c1.31,0.25,2.3,1.38,2.3,2.74c0,1.54-1.28,2.79-2.86,2.79
		c-0.43,0-0.85-0.09-1.24-0.28l-0.47,1.39l-9.14-1.67l8,17.86l-1.86,0.13c0.1,0.31,0.15,0.64,0.15,0.98c0,1.85-1.53,3.35-3.43,3.35
		c-1.89,0-3.43-1.5-3.43-3.35c0-0.19,0.02-0.38,0.05-0.57H20v-0.17v0.17h-5.76c0.03,0.18,0.05,0.37,0.05,0.57
		c0,1.85-1.53,3.35-3.43,3.35s-3.43-1.5-3.43-3.35c0-0.34,0.05-0.67,0.15-0.98l-1.86-0.13l8-17.86l-9.14,1.67L4.1,25.96
		c-0.39,0.18-0.81,0.28-1.24,0.28C1.28,26.23,0,24.98,0,23.44c0-1.36,0.99-2.49,2.3-2.74l-0.59-1.73l15.1-3.64
		c-0.73-0.32-1.41-0.74-2.01-1.26c-0.99-0.45-1.91-0.68-2.77-0.68c-0.98,0-1.54,1.4-3.13,2.23c-0.5,0.26-1.57,0.42-3.19,0.47
		c1.14-2.31,1.77-4.65,1.88-7C7.76,5.57,6.1,5.91,6.29,3.91c0.18-2.01,1.95-3.04,3.89-3.04c1.23,0,2.46,0.66,3.71,1.97
		C15.41,1.04,17.64,0,20,0c2.36,0,4.59,1.04,6.11,2.84c1.25-1.32,2.49-1.97,3.71-1.97c1.94,0,3.71,1.04,3.89,3.04
		c0.18,2.01-1.47,1.66-1.31,5.19c0.11,2.35,0.74,4.68,1.88,7c-1.62-0.05-2.69-0.2-3.19-0.47c-1.59-0.83-2.15-2.23-3.13-2.23
		c-0.86,0-1.78,0.23-2.77,0.68C24.6,14.6,23.92,15.02,23.19,15.34z"/>
</g>
<circle id="Oval-3" class="st1" cx="21.7" cy="20.66" r="3"/>
</svg>
