<svg width="34" height="31" viewBox="0 0 34 31" fill="none" xmlns="http://www.w3.org/2000/svg">
<circle cx="16.5" cy="15.5" r="14.75" stroke="#404040" stroke-width="1.5"/>
<path d="M28.6305 20.1455C29.1341 19.1131 29.9974 19.2146 30.3662 19.3945C30.7349 19.5743 31.3466 20.1922 30.843 21.2246C30.7531 21.409 30.209 22.0565 29.8403 21.8767L31.5986 23.4189L31.4187 23.7877C31.5746 24.0919 31.5941 24.8318 30.7847 24.6196C30.6902 24.3453 30.5104 24.714 30.5104 24.714L29.7684 23.8957C29.6455 23.8357 29.4006 23.8076 29.4042 24.1745C29.4797 24.3939 29.7595 26.0975 29.89 26.9219L29.6157 27.0164C29.5273 27.3536 29.2021 27.8644 28.6085 27.2098C28.4241 27.1198 28.4241 27.1198 28.1498 27.2143L27.8484 24.5568L25.5687 25.9554C25.4742 25.6811 25.4742 25.6811 25.2899 25.5912C24.4085 25.5265 24.6108 24.9557 24.8222 24.6784L24.7277 24.4041C25.4577 23.9994 26.9724 23.171 27.1918 23.0954C27.4832 22.8724 27.3102 22.6967 27.1873 22.6368L26.0856 22.5559C26.0856 22.5559 26.2655 22.1872 25.9912 22.2816C25.3256 21.7744 25.9206 21.3343 26.2563 21.2698L26.4362 20.9011L28.734 21.3371C28.3653 21.1573 28.5406 20.3299 28.6305 20.1455Z" fill="#404040"/>
<path d="M30.9566 13.5854C31.0165 13.4011 31.2772 13.4011 31.337 13.5854L31.7755 14.9348C31.8022 15.0172 31.879 15.0729 31.9657 15.0729H33.3845C33.5782 15.0729 33.6588 15.3209 33.502 15.4348L32.3542 16.2687C32.2841 16.3196 32.2548 16.4099 32.2815 16.4923L32.72 17.8416C32.7798 18.0259 32.5689 18.1791 32.4122 18.0652L31.2644 17.2313C31.1943 17.1804 31.0994 17.1804 31.0293 17.2313L29.8815 18.0652C29.7247 18.1791 29.5138 18.0259 29.5737 17.8416L30.0121 16.4923C30.0389 16.4099 30.0096 16.3196 29.9395 16.2687L28.7916 15.4348C28.6349 15.3209 28.7155 15.0729 28.9092 15.0729H30.328C30.4146 15.0729 30.4914 15.0172 30.5182 14.9348L30.9566 13.5854Z" fill="#404040"/>
<path d="M29.0667 5.50004C28.1897 5.31858 27.8826 5.44265 27.7291 5.50468C27.5756 5.56671 27.2685 5.69077 26.7637 6.43049C26.117 6.15599 25.7495 6.57238 26.0286 7.26326C26.1674 7.38577 26.4734 7.83365 26.5869 8.64503C26.68 8.87532 27.1863 8.58145 27.415 8.04255C27.5996 8.05729 27.9873 8.13282 28.0617 8.31705C27.8314 8.4101 27.0033 9.01257 26.4055 9.522L26.4985 9.7523C26.345 9.81433 26.3054 9.93746 26.4543 10.3059C26.6032 10.6744 26.6759 10.6233 26.9454 10.5144C26.9035 10.5314 26.9733 10.5577 27.0875 10.5961C27.2902 10.6642 27.5182 10.6071 27.6808 10.4682C27.9821 10.211 28.2832 10.0427 28.3897 9.79186L28.3548 13.0206L28.6781 13.1579C28.8332 13.5417 29.2345 14.0046 29.5993 12.7857L30.5205 12.4135L31.4416 12.0413C32.5508 12.6648 32.5179 12.053 32.3628 11.6692L32.5001 11.3458L30.2321 9.0475C30.4829 9.15399 30.8164 9.06585 31.2118 9.04162C31.4253 9.02855 31.629 8.91127 31.7275 8.72148C31.783 8.61452 31.8149 8.54703 31.7729 8.564C32.0424 8.45509 32.1302 8.44132 31.9814 8.07285C31.8325 7.70438 31.7185 7.64327 31.565 7.7053L31.4719 7.47501C30.688 7.52385 29.6738 7.66574 29.4435 7.75878C29.3691 7.57455 29.5955 7.2509 29.718 7.1121C30.2569 7.34085 30.8253 7.20051 30.7322 6.97022C30.2502 6.30771 30.1592 5.77299 30.1739 5.58845C29.8948 4.89756 29.3412 4.85336 29.0667 5.50004Z" fill="#404040"/>
<circle cx="1.5" cy="14.5" r="1.5" fill="#404040"/>
</svg>
