<svg width="113" height="32" viewBox="0 0 113 32" fill="none" xmlns="http://www.w3.org/2000/svg">
<path d="M17.636 30.4958C17.6475 30.6928 17.6166 30.89 17.5454 31.0734C17.4742 31.2568 17.3645 31.4219 17.224 31.5571C16.9148 31.8188 16.5212 31.953 16.1204 31.9335C15.9709 31.9424 15.821 31.9424 15.6715 31.9335C15.5158 31.9168 15.3611 31.8917 15.208 31.8582V31.1959H15.2448L15.598 31.3012C15.7363 31.3439 15.8803 31.3642 16.0247 31.3614C16.1971 31.3693 16.3693 31.3438 16.5324 31.2862C16.6434 31.2486 16.7391 31.1745 16.8046 31.0754C16.8725 30.9717 16.9153 30.8531 16.9297 30.7292C16.9381 30.5712 16.9381 30.4129 16.9297 30.255V27.1614H15.8628V26.6044H17.636V30.4958Z" fill="#333333"/>
<path d="M27.0833 31.8582V26.5893H30.2912V27.2065H27.7676V28.6517H30.122V29.2689H27.7676V31.226H30.2912V31.8432L27.0833 31.8582Z" fill="#333333"/>
<path d="M45.2494 26.6044L43.9545 31.8733H43.2187L42.1739 27.5076L41.1512 31.8733H40.4154L39.1057 26.6044H39.8415L40.8789 30.97L41.9017 26.6044H42.6374L43.6749 31.0152L44.7049 26.6044H45.2494Z" fill="#333333"/>
<path d="M54.2993 31.8582V26.5893H57.5073V27.2065H54.9763V28.6517H57.3381V29.2689H54.9763V31.226H57.5073V31.8432L54.2993 31.8582Z" fill="#333333"/>
<path d="M69.6769 31.8582H66.7338V26.5893H67.4181V31.226H69.7137L69.6769 31.8582Z" fill="#333333"/>
<path d="M82.6705 31.8582H81.7803L80.1542 29.7657H79.3743V31.8582H78.69V26.5893H80.0144C80.2604 26.5864 80.5063 26.6015 80.7502 26.6345C80.9546 26.6731 81.1495 26.7524 81.3241 26.8678C81.4998 26.981 81.6463 27.1359 81.7508 27.3194C81.8603 27.5326 81.9136 27.7713 81.9053 28.0119C81.9166 28.359 81.8157 28.7003 81.6184 28.9829C81.4193 29.2482 81.1479 29.4472 80.8385 29.555L82.6705 31.8582ZM81.199 28.0947C81.2001 27.9549 81.1725 27.8165 81.1181 27.6883C81.0669 27.5682 80.9825 27.4662 80.8753 27.3947C80.7732 27.3254 80.6578 27.2792 80.5368 27.2592C80.3795 27.2264 80.2191 27.2113 80.0586 27.2141H79.3817V29.2012H79.9776C80.1556 29.2046 80.3334 29.1869 80.5074 29.1485C80.6574 29.1157 80.7951 29.04 80.9047 28.9302C81.0062 28.8332 81.0822 28.7115 81.1254 28.5765C81.1658 28.4142 81.1758 28.2457 81.1549 28.0797L81.199 28.0947Z" fill="#333333"/>
<path d="M95.0682 26.6044L93.3318 29.5324V31.8582H92.6475V29.6001L90.9111 26.5893H91.6469L92.9713 28.9076L94.3177 26.5893L95.0682 26.6044Z" fill="#333333"/>
<path d="M16.4513 0.944693H17.4814L19.1001 7.19213L17.8198 7.63623C17.2082 5.99421 16.1949 4.54027 14.8768 3.41356C13.7944 2.57881 12.4724 2.13415 11.117 2.14902C10.1402 2.14785 9.17658 2.37995 8.30289 2.82685C7.42919 3.27375 6.66953 3.92312 6.08435 4.72326C4.71208 6.45181 3.98689 8.62409 4.03892 10.8503C4.02045 12.4758 4.37848 14.0828 5.08371 15.5396C5.69724 16.8693 6.66344 17.9959 7.87227 18.7913C8.97013 19.5128 10.2463 19.8992 11.5511 19.9053C12.3862 19.9051 13.2134 19.739 13.9865 19.416C14.6644 19.1537 15.292 18.7715 15.8406 18.287C16.1748 17.9982 16.4286 17.6243 16.5764 17.2031C16.7146 16.6631 16.7717 16.1047 16.7456 15.5471V14.6063C16.7739 14.0482 16.673 13.4911 16.4513 12.9804C16.2899 12.6745 16.0299 12.4351 15.7156 12.303C15.065 12.1476 14.3955 12.0918 13.729 12.1374V10.918H21.7488V12.1374H21.094C20.7061 12.109 20.3167 12.1681 19.9536 12.3105C19.7475 12.4188 19.5877 12.6011 19.5048 12.8224C19.3944 13.2671 19.3571 13.7275 19.3944 14.1847V21.1999H17.9596L17.1871 19.416C16.4065 19.9962 15.5494 20.4599 14.6413 20.7935C13.3644 21.2776 12.0152 21.5322 10.6535 21.5462C9.37314 21.5586 8.10439 21.2972 6.92857 20.7788C5.75276 20.2603 4.69583 19.4961 3.82555 18.5354C2.89289 17.5486 2.16249 16.3811 1.67729 15.1014C1.19209 13.8217 0.96188 12.4556 1.0002 11.0836C0.965818 9.70348 1.20348 8.3304 1.699 7.04625C2.19453 5.76211 2.93777 4.59321 3.88441 3.60926C4.76646 2.64553 5.83492 1.88015 7.02183 1.3618C8.20873 0.843457 9.4881 0.583494 10.7786 0.59845C11.4482 0.597721 12.1162 0.665806 12.7725 0.80168C13.3841 0.916444 13.9814 1.10074 14.553 1.35115C15.0564 1.59981 15.5324 1.9026 15.9731 2.2544L16.4513 0.944693Z" fill="#333333"/>
<path d="M23.8091 0.944713H39.9371L41.7913 6.27385L40.5478 6.75558C40.3045 6.02423 39.9601 5.33225 39.5251 4.7007C39.1536 4.20374 38.7035 3.77379 38.1934 3.42863C37.7203 3.10015 37.1912 2.86527 36.6335 2.73615C35.6895 2.58502 34.7338 2.52454 33.7788 2.5555H28.9595V9.97715H31.3434C32.0496 10.031 32.7558 9.87138 33.3741 9.518C33.7958 9.25048 34.1232 8.85232 34.3085 8.38142C34.4678 7.80932 34.5325 7.21401 34.4998 6.62009V6.27385H35.8904V15.1633H34.4998V14.4106C34.5199 13.9191 34.4704 13.4273 34.3527 12.9503C34.236 12.6267 34.0471 12.3354 33.8008 12.0998C33.5626 11.8468 33.2668 11.658 32.94 11.5503C32.423 11.4357 31.8941 11.3877 31.3655 11.4073H28.9595V17.9859C28.9356 18.4071 28.9653 18.8296 29.0478 19.2429C29.1058 19.3878 29.2166 19.5039 29.3568 19.5666C29.7366 19.6633 30.1288 19.6988 30.5193 19.672H33.4624C34.7837 19.7284 36.1032 19.5213 37.3472 19.0623C38.3227 18.6423 39.1856 17.9893 39.8636 17.1579C40.531 16.3222 41.0718 15.3884 41.4675 14.388L42.7551 14.8547L40.5478 21.2H23.8091V19.9806H24.383C24.7968 20.0115 25.2126 19.9682 25.6118 19.8526C25.8648 19.7214 26.067 19.5065 26.1856 19.2429C26.3053 18.8384 26.3526 18.4151 26.3254 17.9934V4.03832C26.3565 3.60561 26.2937 3.17122 26.1415 2.76625C25.9899 2.53071 25.764 2.3554 25.5014 2.26947C24.9432 2.16715 24.3753 2.13178 23.8091 2.16409V0.944713Z" fill="#333333"/>
<path d="M54.991 0.598463C56.7029 0.579912 58.3873 1.04062 59.8618 1.93075C61.3807 2.83244 62.6377 4.13139 63.5038 5.69427C64.3748 7.32138 64.8137 9.15363 64.7767 11.0084C64.8297 12.4095 64.6054 13.8071 64.1174 15.1173C63.6293 16.4276 62.8876 17.6235 61.9366 18.6332C60.9916 19.5993 59.8627 20.3564 58.6198 20.8575C57.3769 21.3586 56.0465 21.593 54.7114 21.5462C53.2361 21.6107 51.7663 21.3248 50.417 20.711C49.0678 20.0973 47.8757 19.1723 46.9343 18.0085C45.3751 16.0783 44.5449 13.6398 44.5946 11.1363C44.5649 9.25912 45.0219 7.40739 45.919 5.76954C46.7976 4.18053 48.0953 2.87636 49.664 2.00602C51.2914 1.07494 53.1264 0.590066 54.991 0.598463ZM54.991 2.16409C53.6492 2.12671 52.3255 2.48748 51.1797 3.20282C50.0675 3.95882 49.1833 5.0171 48.6266 6.25879C47.944 7.82455 47.617 9.52814 47.6701 11.2417C47.6231 12.8924 47.9452 14.5324 48.6119 16.0364C49.1707 17.2601 50.0492 18.302 51.1503 19.0472C52.2139 19.7398 53.4506 20.1031 54.7114 20.0935C55.9526 20.1185 57.1727 19.7619 58.2136 19.0698C59.333 18.2607 60.2055 17.1437 60.73 15.8482C61.4063 14.3138 61.7453 12.6463 61.7232 10.9632C61.7483 9.24739 61.4147 7.54592 60.7447 5.97277C60.2844 4.80801 59.4987 3.8079 58.4859 3.09744C57.4315 2.44575 56.2148 2.12149 54.9836 2.16409H54.991Z" fill="#333333"/>
<path d="M67.4107 0.944713H73.6647L79.5067 16.9923L85.2163 0.944713H91.2496V2.16409H90.764C90.3428 2.1322 89.9197 2.18855 89.5205 2.32969C89.2924 2.44971 89.1147 2.65029 89.0202 2.89421C88.8716 3.31584 88.809 3.76413 88.8363 4.21145V17.5719C88.8022 18.1234 88.8518 18.6769 88.9834 19.2128C89.0763 19.4572 89.251 19.66 89.4764 19.7849C89.8865 19.9452 90.326 20.012 90.764 19.9806H91.2716V21.2H83.6859V19.9806H84.223C84.5796 19.9957 84.9366 19.9577 85.2825 19.8677C85.4974 19.7901 85.6879 19.6549 85.8343 19.4763C85.9743 19.3231 86.0621 19.1277 86.0845 18.9193C86.1279 18.6125 86.1524 18.3033 86.1581 17.9934V3.08239L79.7275 21.2H78.2559L71.7664 3.34584V17.6848C71.7289 18.1942 71.7914 18.706 71.9504 19.1902C72.0731 19.4491 72.2745 19.6603 72.5243 19.7924C72.9697 19.9659 73.4468 20.0378 73.9222 20.0032H74.3784V21.2225H67.4107V19.9806H67.808C68.3081 20.0139 68.8094 19.9395 69.2796 19.7623C69.5486 19.635 69.7667 19.4171 69.8976 19.1451C70.0516 18.6364 70.1139 18.1034 70.0815 17.5719V4.36199C70.1187 3.85427 70.0638 3.3439 69.9197 2.85658C69.8182 2.62141 69.6345 2.43351 69.4046 2.32969C68.9941 2.18186 68.5587 2.12041 68.1244 2.14904H67.4401L67.4107 0.944713Z" fill="#333333"/>
<path d="M101.227 0.944713H103.552L109.71 17.9106C109.892 18.526 110.206 19.0919 110.63 19.5666C110.979 19.8583 111.423 20.0059 111.873 19.9806H112.19V21.2H105.141V19.9806C105.369 19.9806 105.59 19.9806 105.81 19.9806C106.114 20.0101 106.42 19.9609 106.701 19.8376C106.823 19.7679 106.926 19.6666 106.998 19.5438C107.07 19.4209 107.11 19.2809 107.113 19.1375C107.037 18.6218 106.904 18.1166 106.715 17.6321L105.406 13.7106H98.232L96.6501 18.0762C96.5303 18.3801 96.4511 18.6991 96.4146 19.0246C96.4093 19.2046 96.4609 19.3815 96.5618 19.529C96.6635 19.6762 96.8038 19.791 96.9665 19.8601C97.2332 19.9434 97.512 19.9791 97.7905 19.9655H98.4159V21.1849H92.5298V19.9806C92.9315 20.0058 93.3341 19.9495 93.7144 19.815C93.9679 19.6939 94.186 19.5071 94.3471 19.273C94.6548 18.787 94.9019 18.2636 95.0829 17.7149L101.227 0.944713ZM98.725 12.2729H104.839L101.8 3.56412L98.725 12.2729Z" fill="#333333"/>
</svg>
