<svg width="39" height="39" viewBox="0 0 39 39" fill="none" xmlns="http://www.w3.org/2000/svg">
<path d="M14.7863 8V7.25H14.4757L14.256 7.46967L14.7863 8ZM24.3837 8L24.914 7.46967L24.6943 7.25H24.3837V8ZM31.17 14.7863H31.92V14.4757L31.7003 14.256L31.17 14.7863ZM31.17 24.3837L31.7003 24.914L31.92 24.6943V24.3837H31.17ZM24.3837 31.17V31.92H24.6943L24.914 31.7003L24.3837 31.17ZM14.7863 31.17L14.256 31.7003L14.4757 31.92H14.7863V31.17ZM8 24.3837H7.25V24.6943L7.46967 24.914L8 24.3837ZM8 14.7863L7.46967 14.256L7.25 14.4757V14.7863H8ZM20.25 1C20.25 0.585786 19.9142 0.25 19.5 0.25C19.0858 0.25 18.75 0.585786 18.75 1H20.25ZM18.75 4C18.75 4.41421 19.0858 4.75 19.5 4.75C19.9142 4.75 20.25 4.41421 20.25 4H18.75ZM20.25 35C20.25 34.5858 19.9142 34.25 19.5 34.25C19.0858 34.25 18.75 34.5858 18.75 35H20.25ZM18.75 38C18.75 38.4142 19.0858 38.75 19.5 38.75C19.9142 38.75 20.25 38.4142 20.25 38H18.75ZM7.88313 6.39066C7.5954 6.0927 7.12059 6.08441 6.82263 6.37215C6.52467 6.65988 6.51639 7.13469 6.80412 7.43265L7.88313 6.39066ZM8.19344 8.87133C8.48118 9.16929 8.95598 9.17757 9.25394 8.88984C9.5519 8.6021 9.56019 8.1273 9.27245 7.82934L8.19344 8.87133ZM30.8069 30.1289C30.5191 29.8309 30.0443 29.8226 29.7464 30.1104C29.4484 30.3981 29.4401 30.8729 29.7278 31.1709L30.8069 30.1289ZM31.1172 32.6095C31.4049 32.9075 31.8797 32.9158 32.1777 32.628C32.4756 32.3403 32.4839 31.8655 32.1962 31.5676L31.1172 32.6095ZM32.1963 7.43261C32.484 7.13465 32.4758 6.65985 32.1778 6.37212C31.8798 6.08438 31.405 6.09267 31.1173 6.39063L32.1963 7.43261ZM29.728 7.82931C29.4402 8.12727 29.4485 8.60207 29.7465 8.88981C30.0444 9.17754 30.5193 9.16926 30.807 8.87129L29.728 7.82931ZM9.27258 31.1708C9.56032 30.8729 9.55203 30.3981 9.25407 30.1103C8.95611 29.8226 8.48131 29.8309 8.19357 30.1288L9.27258 31.1708ZM6.80425 31.5675C6.51652 31.8655 6.5248 32.3403 6.82276 32.628C7.12072 32.9158 7.59553 32.9075 7.88326 32.6095L6.80425 31.5675ZM1 18.75C0.585786 18.75 0.25 19.0858 0.25 19.5C0.25 19.9142 0.585786 20.25 1 20.25V18.75ZM4 20.25C4.41421 20.25 4.75 19.9142 4.75 19.5C4.75 19.0858 4.41421 18.75 4 18.75V20.25ZM35 18.75C34.5858 18.75 34.25 19.0858 34.25 19.5C34.25 19.9142 34.5858 20.25 35 20.25V18.75ZM38 20.25C38.4142 20.25 38.75 19.9142 38.75 19.5C38.75 19.0858 38.4142 18.75 38 18.75V20.25ZM14.7863 8.75L24.3837 8.75V7.25L14.7863 7.25V8.75ZM23.8533 8.53033L30.6397 15.3167L31.7003 14.256L24.914 7.46967L23.8533 8.53033ZM30.42 14.7863V24.3837H31.92V14.7863H30.42ZM30.6397 23.8533L23.8533 30.6397L24.914 31.7003L31.7003 24.914L30.6397 23.8533ZM24.3837 30.42H14.7863V31.92H24.3837V30.42ZM15.3167 30.6397L8.53033 23.8533L7.46967 24.914L14.256 31.7003L15.3167 30.6397ZM8.75 24.3837L8.75 14.7863H7.25L7.25 24.3837H8.75ZM8.53033 15.3167L15.3167 8.53033L14.256 7.46967L7.46967 14.256L8.53033 15.3167ZM17.3083 14.5032L22.107 14.5032V13.0032L17.3083 13.0032V14.5032ZM21.5766 14.2835L24.9698 17.6767L26.0305 16.616L22.6373 13.2228L21.5766 14.2835ZM24.7501 17.1463V21.945H26.2501V17.1463H24.7501ZM24.9698 21.4147L21.5766 24.8078L22.6373 25.8685L26.0305 22.4753L24.9698 21.4147ZM22.107 24.5882H17.3083V26.0882H22.107V24.5882ZM17.8386 24.8078L14.4455 21.4147L13.3848 22.4753L16.778 25.8685L17.8386 24.8078ZM14.6651 21.945V17.1463H13.1651V21.945H14.6651ZM14.4455 17.6767L17.8386 14.2835L16.778 13.2228L13.3848 16.616L14.4455 17.6767ZM14.0994 8.30111L16.6214 14.0543L17.9952 13.4521L15.4732 7.69889L14.0994 8.30111ZM23.6863 7.72403L21.4096 13.4772L22.8043 14.0292L25.081 8.27598L23.6863 7.72403ZM30.8818 14.0939L25.2119 16.4539L25.7883 17.8388L31.4582 15.4787L30.8818 14.0939ZM31.4663 23.6947L25.7965 21.256L25.2038 22.634L30.8737 25.0726L31.4663 23.6947ZM25.0823 30.8973L22.8056 25.0654L21.4083 25.6109L23.685 31.4427L25.0823 30.8973ZM15.4747 31.4677L17.9967 25.6359L16.6199 25.0405L14.0979 30.8723L15.4747 31.4677ZM8.28586 25.077L14.201 22.6384L13.6293 21.2516L7.71414 23.6903L8.28586 25.077ZM7.72207 15.4829L13.6372 17.8429L14.1931 16.4497L8.27793 14.0897L7.72207 15.4829ZM18.75 1V4H20.25V1H18.75ZM18.75 35V38H20.25V35H18.75ZM6.80412 7.43265L8.19344 8.87133L9.27245 7.82934L7.88313 6.39066L6.80412 7.43265ZM29.7278 31.1709L31.1172 32.6095L32.1962 31.5676L30.8069 30.1289L29.7278 31.1709ZM31.1173 6.39063L29.728 7.82931L30.807 8.87129L32.1963 7.43261L31.1173 6.39063ZM8.19357 30.1288L6.80425 31.5675L7.88326 32.6095L9.27258 31.1708L8.19357 30.1288ZM1 20.25H4V18.75H1V20.25ZM35 20.25H38V18.75H35V20.25Z" fill="#333333"/>
</svg>
