<svg width="33" height="34" viewBox="0 0 33 34" fill="none" xmlns="http://www.w3.org/2000/svg">
<path d="M20.8412 21.3005L21.2191 21.9483C21.5437 21.759 21.678 21.3587 21.5335 21.0119C21.3889 20.6651 21.01 20.4788 20.6471 20.576L20.8412 21.3005ZM17.0532 23.51L16.6753 22.8621C16.3832 23.0326 16.2413 23.3774 16.3288 23.7041L17.0532 23.51ZM17.2523 24.253L17.8423 24.7161C17.988 24.5304 18.0379 24.2869 17.9768 24.0589L17.2523 24.253ZM18.1217 26.011L18.1699 26.7594C18.4202 26.7433 18.6458 26.6032 18.7712 26.386L18.1217 26.011ZM18.5927 26.2829L17.8683 26.477C17.9327 26.7174 18.1121 26.9102 18.3473 26.9917C18.5825 27.0731 18.8427 27.0326 19.042 26.8835L18.5927 26.2829ZM20.2512 25.0422L20.0571 24.3178C19.9649 24.3424 19.8783 24.3845 19.8019 24.4417L20.2512 25.0422ZM20.8218 25.6857L21.4713 26.0607C21.5116 25.9909 21.5404 25.915 21.5566 25.836L20.8218 25.6857ZM18.9447 30.5686L18.2399 30.3122C18.1155 30.6542 18.2546 31.0362 18.5697 31.2182L18.9447 30.5686ZM19.4158 30.8406L20.1642 30.7923C20.1481 30.5421 20.0079 30.3165 19.7908 30.1911L19.4158 30.8406ZM21.2005 31.557L21.0063 30.8325C20.9142 30.8572 20.8276 30.8993 20.7512 30.9564L21.2005 31.557ZM22.043 31.7294L21.668 32.3789C21.865 32.4926 22.103 32.5108 22.315 32.4283C22.527 32.3458 22.6901 32.1715 22.7584 31.9545L22.043 31.7294ZM23.5485 26.946L24.0554 26.3933C23.8665 26.2199 23.602 26.1552 23.3543 26.2215C23.1067 26.2879 22.91 26.4762 22.8331 26.7208L23.5485 26.946ZM23.0704 20.7031L22.8763 19.9787C22.5134 20.0759 22.2784 20.4267 22.3266 20.7994C22.3748 21.172 22.6913 21.4515 23.0671 21.4531L23.0704 20.7031ZM27.4557 20.7227L28.1801 20.5286C28.0926 20.2019 27.7972 19.9742 27.459 19.9727L27.4557 20.7227ZM27.6548 21.4657L26.9303 21.6598C26.9914 21.8878 27.1563 22.0738 27.3754 22.1617L27.6548 21.4657ZM27.7809 23.4228L27.4059 24.0723C27.6231 24.1977 27.8885 24.2063 28.1133 24.0951L27.7809 23.4228ZM27.5089 23.8939L27.4201 24.6386C27.6672 24.6681 27.9129 24.573 28.0758 24.3849C28.2387 24.1968 28.2978 23.9401 28.2333 23.6997L27.5089 23.8939ZM25.4522 23.6486L25.5411 22.9039C25.4463 22.8926 25.3503 22.8994 25.2581 22.9241L25.4522 23.6486ZM25.2798 24.4911L24.7187 24.9887C24.7722 25.0491 24.835 25.1004 24.9048 25.1407L25.2798 24.4911ZM29.3469 27.7814L29.9964 28.1564C30.1784 27.8412 30.1078 27.4409 29.8291 27.2069L29.3469 27.7814ZM29.0749 28.2524L28.4254 27.8774C28.3 28.0946 28.2915 28.3601 28.4026 28.5849L29.0749 28.2524ZM27.8875 29.7652L27.9764 29.0204C27.8816 29.0091 27.7856 29.016 27.6934 29.0407L27.8875 29.7652ZM27.2441 30.3358L26.7371 30.8885C26.9047 31.0422 27.1331 31.1116 27.358 31.0771C27.5828 31.0425 27.7798 30.9078 27.8936 30.7108L27.2441 30.3358ZM20.5671 15.8193C20.0545 15.9566 19.37 16.325 18.8928 17.0073C18.3937 17.7208 18.1742 18.7029 18.5045 19.9357L19.9534 19.5474C19.7263 18.6997 19.9013 18.1825 20.122 17.867C20.3645 17.5202 20.7248 17.3299 20.9553 17.2681L20.5671 15.8193ZM18.5045 19.9357C18.5885 20.2492 18.8666 20.7812 19.2106 21.2066C19.3884 21.4264 19.6207 21.6649 19.9017 21.8348C20.1865 22.0071 20.5868 22.1451 21.0353 22.0249L20.6471 20.576C20.7241 20.5554 20.7496 20.5947 20.678 20.5514C20.6026 20.5057 20.4969 20.4117 20.3769 20.2634C20.2615 20.1206 20.157 19.9577 20.0767 19.8105C20.037 19.7377 20.0056 19.6734 19.9833 19.6223C19.9589 19.5667 19.9522 19.5428 19.9534 19.5474L18.5045 19.9357ZM20.4633 20.6526L16.6753 22.8621L17.4311 24.1578L21.2191 21.9483L20.4633 20.6526ZM16.3288 23.7041L16.5279 24.4471L17.9768 24.0589L17.7777 23.3159L16.3288 23.7041ZM16.6624 23.7899C16.4989 23.9981 16.366 24.2633 16.2831 24.5375C16.2006 24.8105 16.1506 25.1488 16.2137 25.4938C16.2801 25.8572 16.4752 26.2281 16.8611 26.4788C17.2284 26.7174 17.6825 26.7909 18.1699 26.7594L18.0734 25.2625C17.778 25.2816 17.6825 25.2236 17.6782 25.2208C17.6777 25.2205 17.6848 25.2259 17.6908 25.2356C17.6957 25.2433 17.6925 25.2422 17.6892 25.2241C17.6812 25.18 17.6827 25.0914 17.7189 24.9717C17.7547 24.8532 17.8078 24.76 17.8423 24.7161L16.6624 23.7899ZM18.7712 26.386C18.773 26.3828 18.7687 26.3909 18.7567 26.4058C18.745 26.4205 18.7214 26.4472 18.6838 26.4768C18.6455 26.5069 18.5896 26.5424 18.5152 26.5686C18.4389 26.5955 18.3537 26.6087 18.2651 26.6034C18.0873 26.5927 17.9677 26.5136 17.9136 26.4691C17.8606 26.4254 17.8361 26.3878 17.8333 26.3836C17.8282 26.3758 17.8296 26.3767 17.8357 26.3897C17.8412 26.4016 17.8474 26.4165 17.8535 26.4331C17.8594 26.4493 17.864 26.4634 17.8669 26.4727C17.8682 26.4772 17.8691 26.4801 17.8694 26.4811C17.8695 26.4815 17.8695 26.4815 17.8693 26.4808C17.8692 26.4805 17.8691 26.48 17.8689 26.4794C17.8688 26.4791 17.8687 26.4787 17.8686 26.4783C17.8686 26.4781 17.8685 26.4779 17.8685 26.4777C17.8684 26.4776 17.8684 26.4774 17.8684 26.4774C17.8683 26.4772 17.8683 26.477 18.5927 26.2829C19.3172 26.0889 19.3171 26.0887 19.3171 26.0885C19.3171 26.0884 19.317 26.0882 19.317 26.0881C19.3169 26.0878 19.3168 26.0876 19.3167 26.0873C19.3166 26.0867 19.3164 26.0861 19.3162 26.0854C19.3159 26.0841 19.3155 26.0826 19.315 26.0809C19.314 26.0774 19.3129 26.0732 19.3115 26.0684C19.3087 26.0587 19.305 26.0461 19.3004 26.0312C19.2913 26.0017 19.2782 25.9615 19.2613 25.9153C19.2308 25.8326 19.1739 25.6917 19.0851 25.5571C19.0404 25.4894 18.9698 25.3957 18.8669 25.311C18.7629 25.2254 18.5897 25.1202 18.3549 25.1061C17.8408 25.0752 17.5668 25.4721 17.4722 25.636L18.7712 26.386ZM19.042 26.8835L20.7005 25.6427L19.8019 24.4417L18.1434 25.6824L19.042 26.8835ZM20.4453 25.7666C20.4407 25.7679 20.4348 25.7695 20.4193 25.7686C20.4051 25.7678 20.3437 25.7621 20.2686 25.7127C20.1795 25.654 20.1247 25.5684 20.1044 25.497C20.0888 25.4422 20.1062 25.4416 20.087 25.5353L21.5566 25.836C21.6567 25.3467 21.5851 24.7836 21.0936 24.4599C20.7043 24.2035 20.2699 24.2607 20.0571 24.3178L20.4453 25.7666ZM20.1723 25.3107C20.0846 25.4625 19.9514 25.7832 19.8157 26.122C19.6688 26.4889 19.4892 26.9546 19.301 27.4511C18.9243 28.4451 18.5082 29.5749 18.2399 30.3122L19.6495 30.8251C19.9163 30.0917 20.33 28.9685 20.7036 27.9828C20.8906 27.4896 21.0664 27.0338 21.2082 26.6796C21.2793 26.5022 21.3404 26.3538 21.3893 26.2405C21.4137 26.1838 21.4338 26.1389 21.4497 26.1051C21.4671 26.0679 21.4737 26.0566 21.4713 26.0607L20.1723 25.3107ZM18.5697 31.2182L19.0408 31.4901L19.7908 30.1911L19.3197 29.9191L18.5697 31.2182ZM18.6673 30.8889C18.6817 31.112 18.7277 31.3746 18.8234 31.6303C18.9173 31.881 19.0784 32.1762 19.3558 32.3997C19.6553 32.641 20.0397 32.7562 20.4675 32.6989C20.8669 32.6453 21.2611 32.4482 21.6497 32.1575L20.7512 30.9564C20.4764 31.162 20.3211 31.2051 20.2681 31.2122C20.2464 31.2151 20.2481 31.2113 20.2641 31.2157C20.2802 31.2202 20.2922 31.2278 20.2969 31.2316C20.2992 31.2335 20.2656 31.2042 20.2282 31.1043C20.1927 31.0095 20.1709 30.8954 20.1642 30.7923L18.6673 30.8889ZM21.3946 32.2814C21.4431 32.2684 21.4759 32.2596 21.5036 32.2528C21.5308 32.2461 21.5416 32.2441 21.5437 32.2438C21.5443 32.2437 21.5308 32.246 21.5084 32.2461C21.4843 32.2461 21.4587 32.2437 21.4341 32.2386C21.39 32.2296 21.3761 32.2174 21.4245 32.242C21.4749 32.2677 21.5433 32.3069 21.668 32.3789L22.418 31.0799C22.3072 31.0159 22.199 30.9531 22.1052 30.9054C22.0096 30.8566 21.8842 30.7996 21.7348 30.7691C21.4199 30.7046 21.1371 30.7975 21.0063 30.8325L21.3946 32.2814ZM22.7584 31.9545L24.2639 27.1711L22.8331 26.7208L21.3276 31.5042L22.7584 31.9545ZM20.9553 17.2681C21.1858 17.2064 21.593 17.191 21.9765 17.3701C22.3254 17.533 22.7356 17.8934 22.9628 18.7411L24.4117 18.3528C24.0813 17.1201 23.4001 16.3793 22.6111 16.0109C21.8567 15.6587 21.0796 15.6819 20.5671 15.8193L20.9553 17.2681ZM22.9628 18.7411C22.9615 18.7364 22.9676 18.7605 22.9743 18.8209C22.9805 18.8763 22.9856 18.9477 22.9875 19.0306C22.9916 19.1982 22.9825 19.3915 22.9539 19.5729C22.9242 19.7613 22.8797 19.8956 22.8372 19.9728C22.7969 20.0461 22.7993 19.9993 22.8763 19.9787L23.2645 21.4276C23.7131 21.3074 23.9907 20.9878 24.1513 20.6962C24.3096 20.4085 24.3916 20.0858 24.4356 19.8065C24.5208 19.2661 24.4957 18.6664 24.4117 18.3528L22.9628 18.7411ZM23.0671 21.4531L27.4523 21.4727L27.459 19.9727L23.0738 19.9531L23.0671 21.4531ZM26.7312 20.9168L26.9303 21.6598L28.3792 21.2716L28.1801 20.5286L26.7312 20.9168ZM27.3754 22.1617C27.4272 22.1825 27.5198 22.2367 27.61 22.3214C27.7012 22.4069 27.7469 22.4829 27.7619 22.5252C27.7681 22.5425 27.766 22.545 27.7663 22.5359C27.7667 22.5245 27.7701 22.5163 27.7699 22.5168C27.7675 22.5213 27.7138 22.6193 27.4485 22.7505L28.1133 24.0951C28.5511 23.8786 28.9076 23.5879 29.1064 23.1977C29.3153 22.7876 29.2988 22.3688 29.1746 22.0209C29.0568 21.6906 28.8444 21.4226 28.6364 21.2275C28.4275 21.0315 28.1798 20.8683 27.9341 20.7697L27.3754 22.1617ZM28.1559 22.7733C27.992 22.6787 27.5563 22.472 27.1264 22.7558C26.9302 22.8854 26.8327 23.0631 26.7855 23.1892C26.7387 23.314 26.7244 23.4305 26.7196 23.5114C26.7099 23.6724 26.7311 23.8229 26.7461 23.9098C26.7545 23.9582 26.7633 23.9996 26.7701 24.0297C26.7736 24.0449 26.7767 24.0576 26.7792 24.0674C26.7804 24.0723 26.7815 24.0765 26.7824 24.08C26.7828 24.0817 26.7832 24.0832 26.7836 24.0846C26.7837 24.0852 26.7839 24.0859 26.784 24.0864C26.7841 24.0867 26.7842 24.087 26.7843 24.0873C26.7843 24.0874 26.7844 24.0876 26.7844 24.0876C26.7844 24.0878 26.7845 24.088 27.5089 23.8939C28.2333 23.6997 28.2334 23.6999 28.2334 23.7001C28.2335 23.7001 28.2335 23.7003 28.2335 23.7004C28.2336 23.7006 28.2336 23.7008 28.2337 23.701C28.2338 23.7014 28.2339 23.7018 28.234 23.7021C28.2341 23.7027 28.2343 23.7032 28.2343 23.7035C28.2345 23.7042 28.2345 23.7042 28.2344 23.7038C28.2342 23.7028 28.2334 23.6999 28.2324 23.6953C28.2302 23.6858 28.2271 23.6712 28.2242 23.6543C28.2212 23.6369 28.219 23.6208 28.2179 23.6078C28.2167 23.5935 28.2174 23.592 28.2169 23.6013C28.2166 23.6063 28.2142 23.6512 28.1901 23.7155C28.1655 23.7811 28.1015 23.9094 27.9529 24.0076C27.8788 24.0565 27.7983 24.0876 27.7188 24.1025C27.6414 24.117 27.5752 24.1142 27.527 24.1073C27.4796 24.1005 27.4458 24.0891 27.4283 24.0823C27.4105 24.0753 27.4027 24.0705 27.4059 24.0723L28.1559 22.7733ZM27.5977 23.1491L25.5411 22.9039L25.3634 24.3933L27.4201 24.6386L27.5977 23.1491ZM25.2581 22.9241C25.0453 22.9812 24.6405 23.1488 24.4316 23.5655C24.1678 24.0915 24.3873 24.6151 24.7187 24.9887L25.841 23.9935C25.7775 23.9219 25.7929 23.9138 25.8068 23.9691C25.8249 24.0411 25.8202 24.1425 25.7724 24.2379C25.7321 24.3183 25.6817 24.3539 25.6699 24.3617C25.6569 24.3703 25.651 24.3718 25.6464 24.373L25.2581 22.9241ZM24.9048 25.1407C24.9007 25.1383 24.912 25.1448 24.9458 25.1683C24.9764 25.1896 25.0163 25.2185 25.0658 25.2554C25.1648 25.329 25.2919 25.427 25.4422 25.5451C25.7421 25.781 26.1222 26.0878 26.5307 26.4214C27.3472 27.0883 28.267 27.8542 28.8647 28.3559L29.8291 27.2069C29.2281 26.7025 28.3028 25.9321 27.4796 25.2597C27.0683 24.9238 26.68 24.6102 26.3693 24.366C26.0824 24.1404 25.8067 23.9293 25.6548 23.8416L24.9048 25.1407ZM28.6974 27.4064L28.4254 27.8774L29.7245 28.6274L29.9964 28.1564L28.6974 27.4064ZM28.4026 28.5849C28.4484 28.6774 28.4866 28.7872 28.5033 28.887C28.5208 28.9922 28.5063 29.0344 28.5074 29.0316C28.5096 29.026 28.5161 29.0134 28.5278 29.0015C28.5395 28.9896 28.5428 28.9921 28.5226 29.0004C28.4731 29.0207 28.3171 29.0611 27.9764 29.0204L27.7987 30.5099C28.2807 30.5674 28.7206 30.5409 29.0933 30.3876C29.4925 30.2234 29.7677 29.9314 29.9064 29.5726C30.0349 29.2404 30.0269 28.9042 29.9828 28.6402C29.9379 28.3708 29.8464 28.1205 29.7473 27.92L28.4026 28.5849ZM27.6934 29.0407C27.5626 29.0758 27.2713 29.1368 27.0309 29.35C26.9168 29.4512 26.8367 29.5632 26.7782 29.6533C26.7209 29.7415 26.6585 29.85 26.5946 29.9608L27.8936 30.7108C27.9656 30.586 28.0052 30.5179 28.036 30.4705C28.0656 30.4249 28.0597 30.4425 28.0261 30.4723C28.0073 30.489 27.9863 30.5039 27.9654 30.5159C27.9459 30.5271 27.9331 30.5318 27.9337 30.5316C27.9357 30.5309 27.946 30.5272 27.9729 30.5194C28.0004 30.5114 28.0332 30.5026 28.0817 30.4896L27.6934 29.0407ZM27.751 29.7831L24.0554 26.3933L23.0415 27.4987L26.7371 30.8885L27.751 29.7831Z" fill="#333333"/>
<path d="M28.8941 4.45496L28.3655 6.94224L30.5676 8.21374L28.0388 8.47963L27.51 10.9669L26.4756 8.64392L23.9467 8.90962L25.8363 7.20807L24.8022 4.88504L27.0044 6.15637L28.8941 4.45496Z" stroke="#333333" stroke-width="1.5" stroke-linecap="round" stroke-linejoin="round"/>
<path d="M4.50182 26.1781L3.89464 26.6184C4.09121 26.8895 4.44367 26.9974 4.75834 26.8829C5.07301 26.7684 5.27362 26.4591 5.24995 26.1251L4.50182 26.1781ZM5.74375 29.5903C5.83194 29.5582 5.86072 29.5729 5.75026 29.5707C5.67004 29.5692 5.55265 29.5593 5.40489 29.5358C5.10982 29.4888 4.73226 29.3932 4.34405 29.2346C3.5493 28.9097 2.83648 28.3766 2.5495 27.5881L1.13996 28.1011C1.63216 29.4534 2.79127 30.2204 3.77657 30.6231C4.27839 30.8282 4.76788 30.9532 5.16882 31.0171C5.36907 31.049 5.55692 31.0672 5.72068 31.0705C5.85419 31.0731 6.06568 31.0694 6.25678 30.9998L5.74375 29.5903ZM2.5495 27.5881C2.41545 27.2198 2.44601 26.9697 2.50893 26.8118C2.57422 26.6478 2.70195 26.5135 2.87687 26.426C3.25803 26.2353 3.68417 26.3281 3.89464 26.6184L5.10901 25.7379C4.38333 24.737 3.10631 24.6339 2.20565 25.0845C1.73966 25.3177 1.33182 25.7134 1.11542 26.2567C0.896642 26.8059 0.899396 27.4401 1.13996 28.1011L2.5495 27.5881ZM6.25678 30.9998C6.44789 30.9303 6.61228 30.7972 6.71286 30.7093C6.83623 30.6016 6.96842 30.4669 7.10131 30.3137C7.36737 30.0071 7.66198 29.5966 7.91456 29.117C8.4105 28.1751 8.80543 26.8426 8.31322 25.4902L6.90368 26.0033C7.19067 26.7918 6.98736 27.6584 6.58733 28.4181C6.39193 28.7891 6.16412 29.105 5.9683 29.3307C5.87025 29.4437 5.78664 29.5267 5.72621 29.5795C5.64298 29.6522 5.65557 29.6224 5.74375 29.5903L6.25678 30.9998ZM8.31322 25.4902C8.07266 24.8293 7.66708 24.3417 7.14645 24.0616C6.63148 23.7845 6.0647 23.7435 5.55785 23.8644C4.57823 24.0981 3.66629 24.998 3.7537 26.2312L5.24995 26.1251C5.2246 25.7674 5.49136 25.4224 5.90594 25.3235C6.09619 25.2781 6.28039 25.2989 6.43576 25.3825C6.58549 25.4631 6.76963 25.635 6.90368 26.0033L8.31322 25.4902Z" fill="#333333"/>
<path d="M15.2907 3.94936L14.7274 4.44446C14.9634 4.71301 15.3561 4.77764 15.6657 4.59888L15.2907 3.94936ZM16.849 5.3312L17.4102 5.8288C17.4875 5.74168 17.5434 5.63778 17.5735 5.52531L16.849 5.3312ZM16.1258 8.03027L16.8503 8.22438C16.8662 8.16515 16.8747 8.1042 16.8757 8.04288L16.1258 8.03027ZM14.447 7.09828L15.0965 6.72328C14.9351 6.44371 14.6129 6.29879 14.2966 6.36351L14.447 7.09828ZM13.3062 7.7569L12.5818 7.56279C12.4746 7.96289 12.712 8.37414 13.1121 8.48134L13.3062 7.7569ZM16.6639 9.62087L17.3884 9.81499C17.4719 9.50317 17.3466 9.17286 17.0772 8.99499L16.6639 9.62087ZM16.5434 10.0707L15.8189 9.87661C15.7117 10.2767 15.9492 10.688 16.3493 10.7952L16.5434 10.0707ZM13.0329 10.5765L13.6824 10.2015C13.5033 9.89138 13.13 9.7511 12.791 9.86656C12.4521 9.98202 12.242 10.321 12.2895 10.676L13.0329 10.5765ZM13.8357 16.5773L14.2107 17.2268C14.4739 17.0749 14.6193 16.7791 14.579 16.4779L13.8357 16.5773ZM13.2653 16.9066L12.8903 16.2571C12.718 16.3566 12.5923 16.5204 12.5408 16.7125L13.2653 16.9066ZM11.4659 16.4245L12.1529 16.1235C12.0614 15.9148 11.8801 15.759 11.66 15.7L11.4659 16.4245ZM14.5067 11.6733L14.0928 12.2987L14.5067 11.6733ZM10.7923 2.74401L10.1428 3.11901C10.3215 3.42862 10.694 3.56902 11.0326 3.45446L10.7923 2.74401ZM8.75184 3.16156L8.02739 2.96744C7.99726 3.07991 7.99372 3.19785 8.01707 3.31192L8.75184 3.16156ZM8.02862 5.86063L7.37289 5.49661C7.34313 5.55022 7.32005 5.60728 7.30418 5.66651L8.02862 5.86063ZM9.94854 5.89292L10.4461 5.33177C10.2046 5.11759 9.85311 5.08199 9.57354 5.24341L9.94854 5.89292ZM10.6072 7.03369L10.413 7.75813C10.8131 7.86534 11.2244 7.6279 11.3316 7.2278L10.6072 7.03369ZM6.76733 6.96909L6.72239 6.22044C6.40015 6.23978 6.12644 6.46315 6.04288 6.77498L6.76733 6.96909ZM6.64679 7.41894L6.45268 8.14338C6.85278 8.25059 7.26403 8.01315 7.37124 7.61305L6.64679 7.41894ZM5.95588 8.19809L6.66213 8.45048C6.66898 8.43131 6.67505 8.41187 6.68032 8.39221L5.95588 8.19809ZM9.4341 9.61222L10.0282 10.07C10.2468 9.78639 10.2343 9.38778 9.9985 9.1183C9.76267 8.84882 9.36922 8.78365 9.0591 8.9627L9.4341 9.61222ZM5.73845 14.4077L5.14439 13.9499C4.95887 14.1906 4.93697 14.5195 5.08893 14.7827L5.73845 14.4077ZM6.06776 14.9781L6.7922 15.1722C6.84368 14.98 6.81673 14.7753 6.71728 14.6031L6.06776 14.9781ZM7.86714 15.4602L8.06125 14.7358C7.84118 14.6768 7.60623 14.7211 7.4227 14.8561L7.86714 15.4602ZM7.60937 9.82516L7.65509 10.5738L7.60937 9.82516ZM6.78658 9.57228L6.31854 10.1583L6.78658 9.57228ZM6.30303 9.20463L6.72929 8.58753L6.30303 9.20463ZM15.5698 11.8061L15.2978 11.1072L15.5698 11.8061ZM15.7129 11.7527L15.9471 12.4652L15.7129 11.7527ZM13.0885 3.17144C13.2035 3.20226 13.3458 3.23823 13.5802 3.38769C13.8305 3.54729 14.2052 3.85026 14.7274 4.44446L15.8541 3.45427C15.2678 2.78717 14.7884 2.37914 14.3867 2.12296C13.9691 1.85666 13.6616 1.77209 13.4767 1.72255L13.0885 3.17144ZM15.6657 4.59888C15.8748 4.47821 16.0165 4.44945 16.0886 4.44731C16.1504 4.44548 16.1502 4.46122 16.1357 4.44838C16.1265 4.44025 16.16 4.4623 16.1784 4.57459C16.1972 4.68949 16.1946 4.87571 16.1246 5.13708L17.5735 5.52531C17.7845 4.738 17.7372 3.86372 17.1309 3.32607C16.488 2.75596 15.6141 2.89666 14.9157 3.29985L15.6657 4.59888ZM16.2879 4.83359C15.9046 5.26583 15.4038 6.36204 15.3759 8.01765L16.8757 8.04288C16.8874 7.3485 16.9985 6.81387 17.1229 6.43745C17.1852 6.24883 17.2501 6.10216 17.3059 5.99634C17.3338 5.9435 17.3584 5.90277 17.3779 5.87332C17.3876 5.85869 17.3955 5.84765 17.4014 5.83985C17.4074 5.83191 17.4105 5.82851 17.4102 5.8288L16.2879 4.83359ZM15.4014 7.83615C15.4265 7.74255 15.4887 7.63353 15.5989 7.55297C15.7007 7.4785 15.7962 7.46267 15.8401 7.45976C15.9099 7.45512 15.896 7.47619 15.7862 7.42054C15.587 7.31953 15.3023 7.07967 15.0965 6.72328L13.7975 7.47328C14.1406 8.06753 14.635 8.51858 15.1078 8.75837C15.3341 8.87312 15.6295 8.97705 15.9396 8.95646C16.1036 8.94556 16.3021 8.89704 16.4843 8.76377C16.6749 8.62439 16.7951 8.43045 16.8503 8.22438L15.4014 7.83615ZM14.2966 6.36351C14.0825 6.40733 13.7596 6.49877 13.4601 6.6429C13.31 6.71508 13.1396 6.81293 12.9877 6.94386C12.8402 7.07096 12.6593 7.27332 12.5818 7.56279L14.0307 7.95101C14.0013 8.06054 13.9447 8.0993 13.967 8.08005C13.9849 8.06462 14.0298 8.03336 14.1104 7.99457C14.2721 7.91676 14.4714 7.85883 14.5974 7.83305L14.2966 6.36351ZM13.1121 8.48134C13.1114 8.48116 13.114 8.48185 13.1205 8.48394C13.1268 8.48599 13.1356 8.48898 13.1469 8.49315C13.17 8.50159 13.2 8.51339 13.2373 8.52917C13.3124 8.56088 13.4067 8.6042 13.519 8.65896C13.7433 8.76837 14.0214 8.91486 14.3289 9.08553C14.9439 9.42697 15.6542 9.85296 16.2507 10.2468L17.0772 8.99499C16.4446 8.57734 15.701 8.1316 15.0569 7.77406C14.7348 7.59524 14.4321 7.43541 14.1766 7.31081C13.9398 7.19526 13.6911 7.08356 13.5003 7.03246L13.1121 8.48134ZM15.9395 9.42676L15.8189 9.87661L17.2678 10.2648L17.3884 9.81499L15.9395 9.42676ZM16.3493 10.7952C16.3563 10.7971 16.2994 10.7837 16.232 10.724C16.1549 10.6556 16.1179 10.5749 16.105 10.5232C16.0956 10.4856 16.1048 10.4878 16.0972 10.561C16.0898 10.6312 16.0701 10.7387 16.0277 10.8968L17.4766 11.2851C17.5756 10.9156 17.6495 10.5159 17.5601 10.1589C17.5083 9.9522 17.4018 9.75641 17.2272 9.60166C17.0625 9.45554 16.8804 9.38456 16.7375 9.34628L16.3493 10.7952ZM14.9205 11.0478C14.7492 10.9344 14.5819 10.8342 14.434 10.7464C14.2807 10.6553 14.1551 10.5815 14.0407 10.5074C13.803 10.3536 13.7171 10.2617 13.6824 10.2015L12.3833 10.9515C12.6041 11.3339 12.9453 11.5853 13.2258 11.7668C13.3705 11.8604 13.5267 11.9521 13.6679 12.036C13.8145 12.1231 13.9544 12.2072 14.0928 12.2987L14.9205 11.0478ZM12.2895 10.676L13.0923 16.6768L14.579 16.4779L13.7762 10.4771L12.2895 10.676ZM13.4607 15.9278L12.8903 16.2571L13.6403 17.5562L14.2107 17.2268L13.4607 15.9278ZM12.5408 16.7125C12.5036 16.8515 12.4519 16.9734 12.4032 17.0492C12.3417 17.1449 12.3604 17.058 12.5071 17.0297C12.7034 16.9918 12.769 17.1174 12.6638 17.0078C12.5552 16.8946 12.378 16.6374 12.1529 16.1235L10.7789 16.7255C11.0325 17.3041 11.2944 17.7472 11.5815 18.0464C11.8721 18.3492 12.2901 18.5993 12.7914 18.5025C13.2432 18.4153 13.5197 18.0862 13.6648 17.8606C13.8227 17.615 13.9265 17.3366 13.9897 17.1008L12.5408 16.7125ZM11.66 15.7L9.86063 15.2179L9.4724 16.6668L11.2718 17.1489L11.66 15.7ZM15.2978 11.1072C15.2031 11.1441 15.054 11.1361 14.9205 11.0478L14.0928 12.2987C14.5852 12.6246 15.2428 12.7383 15.8419 12.505L15.2978 11.1072ZM13.4767 1.72255C13.2918 1.67301 12.9832 1.59249 12.4884 1.61432C12.0124 1.63531 11.3932 1.74897 10.552 2.03356L11.0326 3.45446C11.782 3.20096 12.258 3.12594 12.5545 3.11286C12.8322 3.10061 12.9735 3.14062 13.0885 3.17144L13.4767 1.72255ZM11.4418 2.36901C11.0386 1.67067 10.3522 1.11188 9.51032 1.28415C8.71641 1.44661 8.23835 2.18013 8.02739 2.96744L9.47628 3.35567C9.54632 3.0943 9.63718 2.93174 9.71094 2.84164C9.78302 2.75359 9.82304 2.75124 9.81105 2.75369C9.79208 2.75757 9.79979 2.74385 9.85237 2.77633C9.9137 2.8142 10.0221 2.91 10.1428 3.11901L11.4418 2.36901ZM8.01707 3.31192C8.01699 3.31154 8.0179 3.31599 8.01913 3.32587C8.02034 3.33557 8.02168 3.3491 8.02277 3.36661C8.02496 3.40189 8.02588 3.44945 8.02359 3.50915C8.01901 3.62869 8.00189 3.78816 7.96155 3.98267C7.88105 4.37085 7.70997 4.88941 7.37289 5.49661L8.68436 6.22465C9.48804 4.77692 9.60243 3.57716 9.48661 3.0112L8.01707 3.31192ZM7.30418 5.66651C7.24896 5.87258 7.25606 6.10062 7.35143 6.31662C7.44262 6.52316 7.59023 6.66441 7.72686 6.75587C7.9851 6.92875 8.29284 6.98641 8.54619 7.00018C9.07561 7.02896 9.72929 6.88553 10.3235 6.54244L9.57354 5.24341C9.21716 5.44916 8.85061 5.51451 8.6276 5.50239C8.50473 5.49571 8.5032 5.4705 8.5613 5.50939C8.59786 5.53387 8.67266 5.59534 8.72362 5.71074C8.77875 5.8356 8.77815 5.96114 8.75307 6.05474L7.30418 5.66651ZM9.45094 6.45408C9.54713 6.53937 9.69073 6.68917 9.79186 6.83741C9.84228 6.91131 9.86556 6.96085 9.87334 6.98315C9.88306 7.011 9.85337 6.9491 9.88271 6.83957L11.3316 7.2278C11.4092 6.93834 11.3537 6.67266 11.2896 6.48886C11.2235 6.29951 11.1248 6.12954 11.0309 5.99202C10.8436 5.71743 10.6097 5.47678 10.4461 5.33177L9.45094 6.45408ZM10.8013 6.30924C10.6106 6.25814 10.3393 6.23053 10.0764 6.21216C9.79291 6.19235 9.45082 6.1794 9.08244 6.1732C8.34589 6.16081 7.47903 6.17502 6.72239 6.22044L6.81226 7.71774C7.5257 7.67492 8.35383 7.66116 9.05721 7.67299C9.4088 7.67891 9.72292 7.69112 9.97186 7.70851C10.0965 7.71722 10.1999 7.72689 10.2807 7.73695C10.3209 7.74195 10.3528 7.74671 10.377 7.75094C10.3889 7.75302 10.398 7.75481 10.4045 7.75619C10.4111 7.7576 10.4137 7.75832 10.413 7.75813L10.8013 6.30924ZM6.04288 6.77498L5.92235 7.22482L7.37124 7.61305L7.49177 7.1632L6.04288 6.77498ZM6.84091 6.69449C6.69803 6.65621 6.50484 6.62664 6.28908 6.67079C6.06057 6.71755 5.87037 6.83381 5.72219 6.98697C5.46628 7.25146 5.33042 7.63454 5.23143 8.00398L6.68032 8.39221C6.7227 8.23404 6.75936 8.13112 6.78808 8.06669C6.81807 7.99938 6.82713 8.00215 6.8002 8.02998C6.76315 8.06827 6.69078 8.11967 6.5898 8.14034C6.50156 8.15839 6.4456 8.14148 6.45268 8.14338L6.84091 6.69449ZM7.65509 10.5738C7.8207 10.5636 7.9839 10.5608 8.15437 10.5587C8.31865 10.5566 8.49979 10.5553 8.67185 10.5466C9.00549 10.5296 9.42673 10.4825 9.8091 10.2617L9.0591 8.9627C8.99895 8.99743 8.87856 9.03414 8.59583 9.04848C8.4597 9.05539 8.31398 9.05656 8.13576 9.05877C7.96372 9.0609 7.76878 9.06402 7.56366 9.07655L7.65509 10.5738ZM8.84004 9.15441L5.14439 13.9499L6.33251 14.8655L10.0282 10.07L8.84004 9.15441ZM5.08893 14.7827L5.41824 15.3531L6.71728 14.6031L6.38797 14.0327L5.08893 14.7827ZM5.34331 14.784C5.2801 15.0198 5.23081 15.3128 5.24479 15.6044C5.25763 15.8724 5.33255 16.2957 5.68019 16.5971C6.06597 16.9316 6.55302 16.9239 6.95604 16.807C7.35429 16.6914 7.80267 16.4387 8.31157 16.0643L7.4227 14.8561C6.97078 15.1885 6.68871 15.3227 6.53804 15.3664C6.39213 15.4087 6.51177 15.3328 6.6628 15.4637C6.77569 15.5616 6.74851 15.6462 6.74307 15.5326C6.73875 15.4426 6.75496 15.3112 6.7922 15.1722L5.34331 14.784ZM7.67302 16.1847L9.4724 16.6668L9.86063 15.2179L8.06125 14.7358L7.67302 16.1847ZM6.31854 10.1583C6.69982 10.4628 7.18485 10.6025 7.65509 10.5738L7.56366 9.07655C7.4417 9.084 7.32823 9.04503 7.25462 8.98624L6.31854 10.1583ZM15.9471 12.4652C16.1531 12.3975 16.4423 12.285 16.704 12.1383C16.8342 12.0653 16.9806 11.9711 17.1105 11.8538C17.2299 11.746 17.4035 11.558 17.4766 11.2851L16.0277 10.8968C16.063 10.7653 16.1321 10.7162 16.1049 10.7408C16.0883 10.7558 16.0462 10.7875 15.9704 10.83C15.8201 10.9142 15.6276 10.9912 15.4786 11.0402L15.9471 12.4652ZM5.24962 7.9457C5.09591 8.37582 5.06077 9.25807 5.87678 9.82172L6.72929 8.58753C6.69497 8.56383 6.68132 8.54563 6.67603 8.53757C6.67021 8.5287 6.66632 8.51941 6.66374 8.50783C6.66088 8.49497 6.65984 8.47972 6.66101 8.46433C6.66228 8.44752 6.66532 8.44157 6.66213 8.45048L5.24962 7.9457ZM7.25462 8.98624C7.09948 8.86235 6.91942 8.71886 6.72929 8.58753L5.87678 9.82172C6.01783 9.91916 6.15915 10.031 6.31854 10.1583L7.25462 8.98624ZM15.8419 12.505C15.9017 12.4817 15.9232 12.473 15.9471 12.4652L15.4786 11.0402C15.4057 11.0642 15.3328 11.0935 15.2978 11.1072L15.8419 12.505Z" fill="#333333"/>
</svg>
