<svg width="29" height="19" viewBox="0 0 29 19" fill="none" xmlns="http://www.w3.org/2000/svg">
<path d="M12.7115 14.6649C12.3527 15.2114 11.9266 15.7108 11.4332 16.1631C10.9443 16.6089 10.418 17.0023 9.85441 17.3433C9.29721 17.6888 8.71855 17.9763 8.11841 18.2057C7.51828 18.4352 6.92665 18.6013 6.34352 18.7041C5.70045 18.8175 5.08207 18.8479 4.48838 18.7952C3.89566 18.748 3.35985 18.6093 2.88096 18.3791C2.4011 18.1434 1.99451 17.8133 1.66117 17.3888C1.33233 16.9579 1.11073 16.4182 0.996382 15.7697C0.899327 15.2193 0.904212 14.6733 1.01104 14.1319C1.12331 13.5895 1.35195 13.0856 1.69694 12.6202C2.04739 12.1538 2.52573 11.7436 3.13197 11.3894C3.74366 11.0343 4.50265 10.7657 5.40892 10.5834C4.80944 10.6891 4.27137 10.6969 3.79469 10.6067C3.31706 10.5111 2.90564 10.3448 2.56042 10.1079C2.21424 9.8655 1.93346 9.56381 1.71809 9.20282C1.50176 8.83638 1.35516 8.43517 1.27828 7.99918C1.20621 7.59045 1.21123 7.20465 1.29335 6.84178C1.37547 6.47891 1.5156 6.14233 1.71375 5.83205C1.9164 5.51536 2.16888 5.2264 2.47122 4.96518C2.77355 4.70396 3.10937 4.47336 3.4787 4.27337C3.85251 4.06698 4.24891 3.89313 4.66791 3.75182C5.0914 3.60409 5.52387 3.49131 5.9653 3.41348C6.60292 3.30105 7.23941 3.26187 7.87478 3.29593C8.50917 3.32455 9.08794 3.43603 9.61108 3.63037C10.1342 3.8247 10.5772 4.10622 10.94 4.47493C11.3019 4.83818 11.5319 5.29775 11.6299 5.85362C11.6645 6.04982 11.6305 6.2553 11.5278 6.47006C11.4307 6.68387 11.3029 6.8834 11.1445 7.06867C10.9852 7.24849 10.8101 7.40297 10.6194 7.53214C10.4331 7.65489 10.2718 7.72828 10.1356 7.7523C10.0212 7.77248 9.94615 7.68175 9.9106 7.48011C9.87889 7.30026 9.8653 7.06384 9.86982 6.77084C9.8798 6.47689 9.91544 6.10535 9.97673 5.65625C9.80844 5.5623 9.57204 5.48036 9.26751 5.41043C8.96298 5.34051 8.62222 5.28821 8.24524 5.25353C7.87371 5.2179 7.48101 5.20566 7.06716 5.21682C6.65234 5.22254 6.24874 5.25999 5.85636 5.32917C5.49122 5.39356 5.1482 5.48776 4.8273 5.61177C4.50639 5.73579 4.23132 5.89667 4.00209 6.09443C3.77734 6.28578 3.6103 6.51753 3.50095 6.78967C3.39704 7.06086 3.3768 7.37629 3.44023 7.73598C3.49212 8.03027 3.58761 8.2691 3.72671 8.45249C3.87126 8.63491 4.04323 8.78159 4.24261 8.89254C4.44743 9.00252 4.67246 9.08366 4.91769 9.13594C5.16195 9.18278 5.41295 9.22 5.67069 9.24761C5.92842 9.27521 6.18022 9.30105 6.42609 9.32513C6.67741 9.34824 6.90886 9.3861 7.12043 9.43871C7.33648 9.4849 7.5232 9.55593 7.68059 9.6518C7.83797 9.74767 7.95432 9.88169 8.02963 10.0538C8.06071 10.1664 8.09227 10.2816 8.12431 10.3996C8.15539 10.5121 8.18054 10.6229 8.19976 10.7319C8.25357 11.0371 8.23575 11.2706 8.14628 11.4325C8.05586 11.5889 7.84443 11.6964 7.512 11.755C7.3703 11.78 7.19174 11.8031 6.97632 11.8242C6.76634 11.8444 6.56599 11.8713 6.37524 11.9049C5.93926 11.9818 5.52154 12.1144 5.12209 12.3029C4.72167 12.4858 4.37495 12.7184 4.08191 13.0004C3.78791 13.277 3.56619 13.5971 3.41676 13.9606C3.27181 14.3177 3.2373 14.7115 3.31321 15.142C3.38528 15.5508 3.50256 15.8813 3.66506 16.1336C3.833 16.3849 4.03269 16.5773 4.26412 16.7107C4.50004 16.8377 4.76321 16.9121 5.05364 16.9339C5.34408 16.9558 5.65006 16.9383 5.9716 16.8816C6.35853 16.8134 6.75781 16.7037 7.16944 16.5524C7.58107 16.4012 7.98517 16.2232 8.38174 16.0184C8.7828 15.8072 9.16639 15.5766 9.53252 15.3266C9.90313 15.0702 10.2418 14.8082 10.5487 14.5405C10.8545 14.2675 11.1181 13.9934 11.3393 13.7184C11.5596 13.4379 11.7199 13.168 11.8203 12.9087L12.7115 14.6649ZM14.1105 9.74021C14.3484 9.30491 14.5726 8.95072 14.7829 8.67762C14.9977 8.39812 15.2305 8.23626 15.4812 8.19206C15.8027 8.13537 16.1013 8.15576 16.377 8.25325C16.6527 8.35074 16.8983 8.50129 17.1141 8.70488C17.3298 8.90847 17.5109 9.15469 17.6573 9.44354C17.8038 9.73239 17.9063 10.043 17.9649 10.3755C18.0139 10.6534 18.0497 10.9196 18.0721 11.1742C18.0935 11.4233 18.0954 11.673 18.0777 11.9233C18.0645 12.1673 18.0268 12.4156 17.9646 12.6682C17.9078 12.9198 17.8198 13.1854 17.7005 13.4649C17.8765 13.3159 18.0557 13.1691 18.2382 13.0245C18.4206 12.88 18.6011 12.7245 18.7797 12.5582C18.9637 12.3909 19.1453 12.2099 19.3246 12.0154C19.5028 11.8154 19.6817 11.5871 19.8613 11.3307L20.7286 12.5685C20.4769 12.8939 20.2189 13.1838 19.9548 13.4383C19.696 13.6918 19.4221 13.9228 19.1329 14.1311C18.8482 14.333 18.5438 14.5187 18.2197 14.6883C17.901 14.8568 17.5586 15.0184 17.1925 15.1728C17.1162 15.2818 17.0045 15.397 16.8573 15.5185C16.7156 15.639 16.5724 15.7514 16.4279 15.8555C16.2634 15.9744 16.0848 16.093 15.8921 16.2113L15.6878 16.2473C14.8376 16.3972 14.3752 16.4675 14.3005 16.4582C13.6148 16.3937 13.1784 16.3245 12.9912 16.2508C12.645 16.1039 12.3087 15.9497 11.9824 15.7881C11.9209 15.3437 11.8657 14.8393 11.8167 14.2748C11.7693 13.783 11.7223 13.1817 11.6756 12.4706C11.603 11.4214 11.5734 10.6483 11.587 10.1515C11.5409 9.60329 11.501 8.99501 11.4675 8.32662C11.4445 7.81371 11.438 7.17145 11.448 6.39985C11.4626 5.62183 11.5231 4.89752 11.6296 4.2269C11.7406 3.54988 11.8859 2.93986 12.0655 2.39685C12.2506 1.85287 12.4747 1.40314 12.7379 1.04767C13.0066 0.691236 13.3263 0.480347 13.6968 0.415003C14.111 0.341971 14.456 0.354201 14.7316 0.451692C15.0073 0.549183 15.2349 0.708537 15.4144 0.929753C15.5929 1.14552 15.7328 1.41305 15.834 1.73235C15.9353 2.05165 16.0186 2.39659 16.0839 2.76718C16.1752 3.28491 16.1713 3.83628 16.0722 4.42131C15.9785 5.00537 15.8249 5.6 15.6113 6.2052C15.3967 6.80495 15.1421 7.40053 14.8474 7.99194C14.5582 8.58238 14.2637 9.14285 13.9639 9.67335L14.1105 9.74021ZM14.9515 10.2072C14.7607 10.2409 14.5772 10.3154 14.4009 10.4308C14.2236 10.5407 14.0681 10.6945 13.9344 10.8923C13.7997 11.0846 13.6928 11.3226 13.6135 11.6063C13.4577 12.1564 13.4198 12.4834 13.4999 12.5872C13.5018 12.5981 13.5186 12.9323 13.5503 13.5898C13.5608 13.8408 13.572 14.0636 13.5838 14.2582C13.6005 14.4801 13.6174 14.6878 13.6347 14.8814C13.8242 14.9042 14.0122 14.9188 14.1988 14.9252C14.3626 14.9301 14.5293 14.9035 14.6989 14.8455C14.8684 14.7875 15.0323 14.7446 15.1903 14.7167C15.3756 14.684 15.5349 14.5997 15.6683 14.4638C15.8017 14.3279 15.9125 14.1595 16.0006 13.9585C16.0879 13.7521 16.1544 13.524 16.2003 13.2743C16.2462 13.0246 16.2742 12.7696 16.2845 12.5093C16.2939 12.2435 16.2905 11.9856 16.2746 11.7356C16.2576 11.4801 16.2309 11.2488 16.1943 11.0417C16.1703 10.9054 16.1314 10.7803 16.0776 10.6661C16.0282 10.5456 15.9545 10.4462 15.8564 10.368C15.7638 10.2888 15.6418 10.2344 15.4905 10.2049C15.3437 10.169 15.164 10.1698 14.9515 10.2072ZM14.4322 2.57797C14.4284 2.55618 14.4148 2.51081 14.3914 2.44189C14.3734 2.372 14.3414 2.30179 14.2953 2.23126C14.2545 2.15977 14.2017 2.09885 14.1366 2.04852C14.0715 1.99818 13.9927 1.98118 13.9 1.99751C13.791 2.01673 13.6905 2.11593 13.5985 2.29512C13.5109 2.46789 13.4335 2.69789 13.3661 2.98511C13.2978 3.26688 13.2399 3.59176 13.1924 3.95977C13.144 4.32232 13.1016 4.70347 13.0653 5.10322C13.0281 5.49751 12.9977 5.89902 12.9743 6.30774C12.9563 6.7155 12.9403 7.10322 12.9265 7.47091C12.9172 7.83219 12.9112 8.16478 12.9086 8.46867C12.905 8.76712 12.9027 9.00915 12.9017 9.19476C12.9989 8.88542 13.1105 8.56231 13.2365 8.22541C13.368 7.88755 13.4976 7.53879 13.6252 7.17913C13.7519 6.81402 13.8722 6.44442 13.986 6.07034C14.1044 5.68984 14.2027 5.30726 14.2809 4.92259C14.3637 4.5315 14.4187 4.1425 14.446 3.75558C14.4778 3.36225 14.4732 2.96971 14.4322 2.57797ZM28.7493 11.8792C28.6547 12.0756 28.5218 12.3098 28.3505 12.5816C28.1848 12.8525 27.9898 13.1172 27.7657 13.3759C27.5416 13.6346 27.2926 13.8639 27.0189 14.0639C26.7451 14.2639 26.4583 14.3903 26.1586 14.4432C25.7989 14.5066 25.479 14.445 25.1988 14.2584C24.9177 14.0663 24.651 13.765 24.3988 13.3543C24.2949 13.5299 24.1615 13.7136 23.9986 13.9053C23.8358 14.097 23.6514 14.2784 23.4456 14.4495C23.2443 14.6143 23.0282 14.7591 22.7973 14.8841C22.5665 15.0091 22.3285 15.0932 22.0832 15.1365C21.8217 15.1826 21.5564 15.176 21.2874 15.1166C21.023 15.0509 20.7781 14.9367 20.5527 14.7742C20.3264 14.6062 20.1311 14.3906 19.9667 14.1274C19.8013 13.8587 19.6869 13.5445 19.6235 13.1848C19.5514 12.7761 19.5346 12.3464 19.5732 11.8957C19.6117 11.445 19.7067 10.9478 19.858 10.4041C20.0094 9.86044 20.1892 9.38202 20.3973 8.96884C20.6108 8.5547 20.8571 8.18255 21.136 7.85241C21.415 7.52226 21.7203 7.24645 22.0522 7.02499C22.3885 6.79711 22.7446 6.65002 23.1207 6.58372C23.246 6.56161 23.3484 6.56884 23.4279 6.6054C23.5074 6.64195 23.5747 6.68908 23.6299 6.74679C23.6895 6.79809 23.7464 6.84987 23.8006 6.90213C23.8547 6.95439 23.9169 6.98838 23.9871 7.0041C24.0573 7.01982 24.1261 7.02736 24.1934 7.02673C24.2652 7.01969 24.3365 7.00992 24.4074 6.99743C24.4673 6.98686 24.5273 6.97629 24.5872 6.96572C24.6517 6.94873 24.7138 6.93496 24.7738 6.92439C24.8555 6.90997 24.9333 6.9047 25.007 6.90855C25.0807 6.91241 25.1497 6.93678 25.2138 6.98167C25.2779 7.02656 25.3322 7.09565 25.3767 7.18894C25.4267 7.28127 25.4666 7.41191 25.4964 7.58085C25.5425 7.84244 25.5667 8.13881 25.5689 8.46996C25.5701 8.79565 25.5679 9.13321 25.562 9.48263C25.5553 9.8266 25.543 10.2193 25.5253 10.6607C25.5076 11.1021 25.5252 11.4727 25.5781 11.7724C25.6232 12.0286 25.6806 12.2264 25.7501 12.3658C25.8242 12.4989 25.9375 12.552 26.0901 12.525C26.2045 12.5049 26.3196 12.4565 26.4353 12.3799C26.5501 12.2978 26.662 12.1994 26.771 12.0847C26.8855 11.969 26.9953 11.8428 27.1004 11.7063C27.2101 11.5633 27.3111 11.4191 27.4034 11.2736C27.6186 10.9322 27.8297 10.5522 28.0369 10.1336L28.7493 11.8792ZM21.6542 12.4643C21.6782 12.6006 21.71 12.7326 21.7494 12.8606C21.7933 12.9821 21.8489 13.0903 21.9162 13.1852C21.9825 13.2746 22.0623 13.3448 22.1556 13.3958C22.2479 13.4413 22.3568 13.4531 22.4821 13.4309C22.6838 13.3954 22.8509 13.276 22.9837 13.0728C23.1164 12.8696 23.2211 12.6348 23.2978 12.3684C23.3744 12.102 23.4251 11.8318 23.4498 11.5577C23.48 11.2826 23.4906 11.056 23.4817 10.8778L23.6234 8.09654C23.4 8.13594 23.1921 8.2316 22.9997 8.38353C22.8064 8.53 22.6312 8.71542 22.4741 8.9398C22.3224 9.16321 22.1892 9.41147 22.0744 9.68458C21.9596 9.95769 21.8576 10.2875 21.7684 10.6741C21.6793 11.0607 21.626 11.396 21.6086 11.68C21.5967 11.9631 21.6119 12.2245 21.6542 12.4643Z" fill="#404040"/>
</svg>
