<svg width="145" height="18" viewBox="0 0 145 18" fill="none" xmlns="http://www.w3.org/2000/svg">
<path fill-rule="evenodd" clip-rule="evenodd" d="M16.8754 13.5581V16.3452C15.8274 16.8677 14.7494 17.2742 13.6714 17.5355C12.5934 17.7968 11.5155 17.9419 10.4375 17.9419C9.41939 17.9419 8.43124 17.7968 7.50298 17.5645C6.57472 17.3032 5.70635 16.9258 4.86792 16.4032C3.55039 15.5613 2.50236 14.4871 1.7837 13.1807C1.03511 11.8742 0.675781 10.4516 0.675781 8.91291C0.675781 7.75162 0.91533 6.61935 1.39443 5.51613C1.87353 4.4129 2.56224 3.45484 3.46056 2.64194C4.41876 1.77097 5.49674 1.10323 6.66455 0.696781C7.86231 0.261297 9.14989 0.0580681 10.5872 0.0580681C11.6053 0.0580681 12.5934 0.174199 13.5816 0.377425C14.5697 0.609683 15.5878 0.958072 16.6957 1.42259V4.12258C15.5579 3.51291 14.5098 3.07742 13.4918 2.7871C12.5036 2.49678 11.5454 2.35161 10.5872 2.35161C8.49113 2.35161 6.78433 2.99032 5.40691 4.23871C4.02949 5.4871 3.37073 7.08388 3.37073 8.97097C3.37073 10.8581 4.02949 12.3968 5.37697 13.6742C6.72444 14.9226 8.4013 15.5613 10.4375 15.5613C11.4855 15.5613 12.5335 15.3871 13.5816 15.0677C14.6895 14.7484 15.7675 14.2258 16.8754 13.5581ZM133.117 10.3355H138.687L135.872 4.09355L133.117 10.3355ZM128.237 15.4161L134.974 0.348391H136.83L144.676 17.6516H142.041L139.735 12.571H132.129L129.854 17.6516H127.638H127.248H116.618V0.348391H119.164V15.4161H127.638H128.237ZM103.413 17.6516V0.348391H105.958V15.4161H114.462V17.6516H103.413ZM89.1299 17.6516V0.348391H99.8798V2.55484H91.6752V7.80968H99.6402V10.0452H91.6752V15.4452H100.149V17.6807H89.1299V17.6516ZM77.9309 17.6516V2.6129H71.3732V0.348391H87.0339V2.6129H80.4762V17.6516H77.9309ZM60.1443 16.2871V13.0355C60.9528 13.9355 61.7313 14.5742 62.4499 14.9806C63.1985 15.3871 63.9771 15.5613 64.8155 15.5613C65.7138 15.5613 66.4025 15.3581 66.9116 14.9516C67.4206 14.5452 67.6901 14.0226 67.6901 13.3258C67.6901 12.7742 67.5105 12.2807 67.1811 11.8452C66.8517 11.4097 66.0133 10.8 64.7257 10.0161C62.6895 8.76774 61.4319 7.78065 60.9228 7.08388C60.4138 6.3871 60.1443 5.5742 60.1443 4.61614C60.1443 3.28065 60.6234 2.17742 61.6115 1.30645C62.5997 0.435484 63.8573 0 65.4144 0C66.1031 0 66.7918 0.0870968 67.4506 0.290323C68.1093 0.493548 68.798 0.783873 69.4568 1.19032V4.00646C68.6783 3.39678 67.9596 2.96129 67.3009 2.67097C66.6421 2.40968 65.9833 2.26452 65.3246 2.26452C64.5161 2.26452 63.8573 2.46775 63.3782 2.84517C62.8692 3.22259 62.6296 3.71614 62.6296 4.32581C62.6296 5.19678 63.6776 6.24194 65.7737 7.51936L66.163 7.75162C67.8698 8.76775 69.0077 9.69678 69.5167 10.4806C70.0557 11.2645 70.2952 12.2516 70.2952 13.4129C70.2952 14.7194 69.8161 15.8226 68.828 16.6935C67.8398 17.5645 66.5822 18 65.0251 18C64.0669 18 63.1986 17.8548 62.42 17.5935C61.6115 17.3032 60.8629 16.8677 60.1443 16.2871ZM40.7407 17.6516V0.348391H42.9565L54.7244 13.7903V0.348391H57.2697V17.6516H54.9939L43.2859 4.20968V17.6516H40.7407ZM21.5466 9.02903C21.5466 9.9 21.7263 10.7419 22.0557 11.5548C22.3851 12.3387 22.8941 13.0645 23.5229 13.6742C24.1518 14.2839 24.8704 14.7774 25.7088 15.0968C26.5473 15.4161 27.4156 15.5903 28.3439 15.5903C29.2722 15.5903 30.1705 15.4161 30.979 15.0968C31.7874 14.7774 32.536 14.2839 33.1649 13.6452C33.7937 13.0355 34.3027 12.3097 34.6321 11.5258C34.9615 10.7419 35.1412 9.87097 35.1412 9C35.1412 8.12903 34.9615 7.2871 34.6321 6.50323C34.3027 5.71936 33.7937 4.99355 33.1349 4.35484C32.5061 3.71613 31.7575 3.22258 30.949 2.90323C30.1405 2.58387 29.2422 2.40968 28.3439 2.40968C27.4456 2.40968 26.6072 2.58387 25.7687 2.90323C24.9303 3.25161 24.1817 3.71613 23.5229 4.35484C22.8941 4.96452 22.3851 5.6613 22.0557 6.4742C21.7263 7.2871 21.5466 8.12903 21.5466 9.02903ZM18.8218 8.91291C18.8218 7.75162 19.0613 6.64839 19.5404 5.54516C20.0195 4.44194 20.7082 3.48387 21.6065 2.67097C22.5048 1.82904 23.5529 1.19032 24.6908 0.725806C25.8286 0.290323 27.0563 0.0580681 28.314 0.0580681C29.6015 0.0580681 30.8292 0.290323 31.9971 0.725806C33.1649 1.16129 34.1829 1.82904 35.0513 2.67097C35.9796 3.54194 36.6683 4.52904 37.1474 5.60323C37.6265 6.67742 37.8361 7.83871 37.8361 9.0871C37.8361 10.2774 37.5966 11.4097 37.1175 12.4839C36.6384 13.5581 35.9496 14.5161 35.0813 15.3581C34.153 16.229 33.1349 16.8677 31.9671 17.3032C30.8292 17.7387 29.6015 17.971 28.314 17.971C27.0563 17.971 25.8286 17.7387 24.6608 17.3032C23.493 16.8387 22.4749 16.2 21.6065 15.3871C20.6783 14.5161 19.9896 13.529 19.5105 12.4548C19.0613 11.3226 18.8218 10.1613 18.8218 8.91291Z" fill="#272727"/>
</svg>
