<svg width="113" height="24" viewBox="0 0 113 24" fill="none" xmlns="http://www.w3.org/2000/svg">
<path d="M18.6709 11.4497C18.7359 7.61142 17.5649 5.0092 15.5482 3.05754C14.5724 2.08171 13.0761 1.30105 11.7099 0.975775C10.7341 0.715554 9.62818 0.585449 7.93674 0.585449C7.93674 0.585449 2.60221 0.650499 2.40704 0.650499C2.21188 0.650499 0.325276 0.585449 0.325276 0.585449V1.236C0.910774 1.236 0.975825 1.236 1.56132 1.236C2.4721 1.236 2.53715 1.75644 2.53715 2.21183C2.53715 2.47205 2.53715 4.74898 2.53715 4.74898L2.60221 19.7117C2.60221 19.7117 2.60221 20.6225 2.53715 20.8827C2.4721 21.208 2.4721 22.0537 1.23605 22.1187C1.04088 22.1187 0.585497 22.1187 0 22.1187V22.6392C0 22.6392 2.53715 22.5091 3.44793 22.5091C4.55386 22.5091 8.32708 22.6392 8.32708 22.6392C8.32708 22.6392 9.43301 22.6392 9.82334 22.5741C13.4014 22.2488 15.0278 20.3622 15.6783 19.7117C18.9311 16.3288 18.6709 11.4497 18.6709 11.4497ZM13.3363 18.4106C13.1412 18.6708 11.3847 21.7935 7.93674 22.0537C7.74157 22.0537 7.09102 22.0537 7.09102 22.0537H6.57058C6.57058 22.0537 5.92003 22.0537 5.92003 21.4682V1.8215C5.92003 1.56127 6.11519 1.30105 6.37541 1.30105C6.63563 1.30105 7.22114 1.236 8.0018 1.30105C8.0018 1.30105 10.539 1.236 12.3605 3.18766C12.5557 3.38283 13.7267 4.42371 14.5073 6.7657C14.8326 7.67647 15.2229 9.49802 15.2229 11.2545C15.2229 11.7099 15.353 15.353 13.3363 18.4106Z" fill="#272727"/>
<path d="M111.374 22.119C110.138 22.0539 110.138 21.0781 110.073 20.7528C110.007 20.4275 110.007 19.6469 110.007 19.6469L110.073 4.68416C110.073 4.68416 110.073 2.7325 110.073 2.47228C110.073 2.0169 110.268 1.17117 111.178 1.10612C111.699 1.10612 111.829 1.10612 112.415 1.10612V0.455566C112.415 0.455566 110.398 0.520626 110.203 0.520626H106.755C106.56 0.520626 104.543 0.455566 104.543 0.455566V1.10612C105.128 1.10612 105.193 1.10612 105.779 1.10612C106.69 1.10612 106.885 2.0169 106.885 2.47228C106.885 2.7325 106.885 4.68416 106.885 4.68416L106.95 19.6469C106.95 19.6469 106.95 20.4275 106.885 20.7528C106.82 21.0781 106.82 22.0539 105.584 22.119C105.389 22.119 104.933 22.119 104.348 22.119V22.6394C104.348 22.6394 107.6 22.6394 108.511 22.6394H108.706C109.617 22.6394 112.675 22.6394 112.675 22.6394V22.119C112.089 22.119 111.569 22.119 111.374 22.119Z" fill="#272727"/>
<path d="M65.2486 22.119C64.0126 22.0539 64.0126 21.0781 63.9475 20.7528C63.8825 20.4275 63.8825 19.6469 63.8825 19.6469L63.9475 4.68416C63.9475 4.68416 63.9475 2.7325 63.9475 2.47228C63.9475 2.0169 64.1427 1.17117 65.0535 1.10612C65.5739 1.10612 65.704 1.10612 66.2895 1.10612V0.455566C66.2895 0.455566 64.2728 0.520626 64.0776 0.520626H60.6297C60.4345 0.520626 58.4178 0.455566 58.4178 0.455566V1.10612C59.0033 1.10612 59.0684 1.10612 59.6539 1.10612C60.5646 1.10612 60.7598 2.0169 60.7598 2.47228C60.7598 2.7325 60.7598 4.68416 60.7598 4.68416L60.8249 19.6469C60.8249 19.6469 60.8249 20.4275 60.7598 20.7528C60.6948 21.0781 60.6948 22.0539 59.4587 22.119C59.2635 22.119 58.8082 22.119 58.2227 22.119V22.6394C58.2227 22.6394 61.4754 22.6394 62.3862 22.6394H62.5814C63.4921 22.6394 66.5497 22.6394 66.5497 22.6394V22.119C65.8992 22.119 65.4438 22.119 65.2486 22.119Z" fill="#272727"/>
<path d="M39.0342 20.6227V3.57822L45.0843 21.7937H45.6047L50.9393 3.25294L51.0043 19.6469C51.0043 19.6469 51.0043 20.4275 50.9393 20.7528C50.8742 21.0781 50.8742 22.0539 49.6382 22.119C49.443 22.119 48.9876 22.119 48.4021 22.119V22.6394C48.4021 22.6394 51.6549 22.6394 52.5657 22.6394H52.7608C53.6716 22.6394 56.7292 22.6394 56.7292 22.6394V22.119C56.1437 22.119 55.6883 22.119 55.4931 22.119C54.2571 22.0539 54.2571 21.0781 54.192 20.7528C54.127 20.4275 54.127 19.6469 54.127 19.6469L54.192 4.68416C54.192 4.68416 54.192 2.7325 54.192 2.47228C54.192 2.0169 54.3872 1.17117 55.298 1.10612C55.8184 1.10612 55.9485 1.10612 56.534 1.10612V0.455566C56.534 0.455566 54.5173 0.520626 54.3221 0.520626C53.2162 0.520626 51.0694 0.455566 51.0694 0.455566L46.5155 16.4592L41.4412 0.520626C41.4412 0.520626 37.7981 0.650732 35.9766 0.455566V1.10612C35.9766 1.10612 36.8873 1.04107 37.4078 1.23624C37.9933 1.4314 38.4487 1.88679 38.4487 3.1879C38.4487 4.03361 38.4487 4.03361 38.4487 4.03361V20.4926V20.6227C38.3836 20.948 38.3185 21.9889 37.0825 22.0539C36.8873 22.0539 36.497 22.0539 35.9766 22.0539V22.5744C35.9766 22.5744 39.0992 22.5744 40.075 22.5744H40.2702C41.181 22.5744 42.0918 22.5744 42.0918 22.5744V22.0539C41.5063 22.0539 40.5955 22.0539 40.4003 22.0539C39.1643 21.9889 39.1643 21.013 39.0992 20.6878L39.0342 20.6227Z" fill="#272727"/>
<path d="M97.8446 0.520508C97.8446 0.520508 99.9264 0.585567 101.097 0.585567C101.293 0.585567 103.439 0.520508 103.439 0.520508V1.106C102.854 1.106 102.529 1.10601 102.138 1.17106C101.227 1.23612 101.032 2.08184 101.032 2.53723C101.032 2.79745 101.032 4.7491 101.032 4.7491L100.967 23.0296H100.642L93.4859 11.4498L88.2815 3.38294V20.6226V20.7527C88.3465 21.078 88.3465 22.1189 89.5826 22.1189C89.7777 22.1189 90.2331 22.1189 90.8186 22.1189V22.6393C90.8186 22.6393 90.4283 22.6393 89.4525 22.6393H89.2573C88.3465 22.6393 85.0938 22.6393 85.0938 22.6393V22.1189C85.6792 22.1189 86.1346 22.1189 86.3298 22.1189C87.5658 22.0538 87.696 21.0129 87.696 20.6876V20.5575V4.09855C87.696 4.09855 87.696 4.09855 87.696 3.25283C87.696 1.95172 87.2406 1.49633 86.6551 1.30117C86.0696 1.106 85.0938 1.17106 85.0938 1.17106V0.520508C86.9153 0.650618 90.6885 0.585567 90.6885 0.585567L100.317 15.8085V2.40711C100.317 2.40711 100.382 1.17106 99.0156 1.17106H97.7795L97.8446 0.520508Z" fill="#272727"/>
<path d="M69.0233 21.338C68.7631 21.7934 68.3728 21.9886 67.9824 22.1187C67.5921 22.2488 67.1367 22.1837 67.1367 22.1837V22.7042C67.1367 22.7042 68.5679 22.6391 69.4787 22.6391C70.3895 22.6391 72.211 22.7042 72.211 22.7042V22.1837L70.8449 22.0536C69.7389 21.8585 70.0642 20.8826 70.0642 20.8826L71.6906 14.6373H76.5047C76.5047 14.6373 77.9359 19.5815 78.2612 20.7525C78.6515 22.0536 77.5456 21.9886 77.2853 21.9886C77.0251 21.9886 76.4396 22.0536 76.4396 22.0536H75.9192V22.5741L77.5456 22.509H77.6757C77.6757 22.509 79.0418 22.509 80.408 22.509C81.7741 22.509 84.4414 22.5741 84.4414 22.5741V22.0536C83.8559 22.0536 83.4656 22.0536 83.2704 21.9886C82.75 21.9235 82.2946 21.4031 82.2946 21.4031C81.8392 20.9477 81.644 20.3622 81.5139 20.0369C81.3838 19.7116 75.3987 0.0649414 75.3987 0.0649414H75.0735C75.0735 0.0649414 70.2594 17.9551 70.0642 18.6707C69.869 19.4514 69.5438 20.4272 69.0233 21.338ZM71.8858 13.9217L74.0976 6.05002L76.3746 13.9217H71.8858Z" fill="#272727"/>
<path d="M19.9725 21.2731C19.7123 21.7285 19.322 21.9236 18.9316 22.0537C18.5413 22.1839 18.0859 22.1188 18.0859 22.1188V22.6392C18.0859 22.6392 19.5171 22.5742 20.4279 22.5742C21.2736 22.5742 23.1602 22.6392 23.1602 22.6392V22.1188L21.7941 21.9887C20.6881 21.7935 21.0134 20.8177 21.0134 20.8177L22.6398 14.5724H27.4539C27.4539 14.5724 28.8851 19.5166 29.2104 20.6876C29.6007 21.9887 28.4948 21.9236 28.2346 21.9236C27.9743 21.9236 27.3888 21.9887 27.3888 21.9887H26.8684V22.5091L28.4948 22.4441H28.6249C28.6249 22.4441 29.991 22.4441 31.3572 22.4441C32.7234 22.4441 35.3906 22.5091 35.3906 22.5091V21.9887C34.8051 21.9887 34.4148 21.9887 34.2196 21.9236C33.6992 21.8586 33.2438 21.3381 33.2438 21.3381C32.7884 20.8827 32.5933 20.2972 32.4631 19.972C32.333 19.6467 26.348 0 26.348 0H26.0227C26.0227 0 21.2086 17.8902 21.0134 18.6058C20.8183 19.4515 20.493 20.3623 19.9725 21.2731ZM22.835 13.9218L25.0468 6.05014L27.3238 13.9218H22.835Z" fill="#272727"/>
</svg>
