<svg width="134" height="23" viewBox="0 0 134 23" fill="none" xmlns="http://www.w3.org/2000/svg">
<path d="M75.7165 14.0003C74.884 18.4479 71.8824 21.8 68.7275 21.8H64.3895C63.7322 21.8 63.4912 21.5152 63.4912 20.7484V11.0426H65.0687C68.2017 11.0426 69.7572 14.088 69.8887 17.1114V17.1553H70.0421V5.08332H69.8887V5.12714C69.7134 8.8517 67.9826 10.8235 64.9153 10.8235H63.4693V1.53404C63.4693 0.78913 63.6884 0.52622 64.2799 0.52622L67.9607 0.504311C73.2408 0.504311 74.5334 5.95969 74.8402 8.30397V8.34778H75.0154L74.0514 0.350947V0.307129H56.5898V0.504311H58.9122C59.8543 0.504311 60.4458 1.2054 60.4458 2.32277V19.9158C60.4458 21.0332 59.8324 21.7781 58.8903 21.7781H56.5898V21.9753H74.7525L75.8918 13.9784V13.9346H75.7165V14.0003Z" fill="#272727"/>
<path d="M45.6811 1.53404C45.6811 0.701493 45.8783 0.52622 46.8204 0.52622H48.7922C51.8814 0.52622 53.5684 2.60759 53.5684 6.37596C53.5684 7.73433 53.1302 9.64042 52.2977 10.4949C51.5308 11.3493 50.4792 11.6999 48.6169 11.6999H45.6592V1.53404H45.6811ZM48.5512 0.307129H38.7578V0.504311H41.0802C42.0223 0.504311 42.5262 1.13968 42.5262 2.30086V20.0254C42.5262 21.1865 42.0004 21.8219 41.0583 21.8219H38.8235V21.9972H49.2523V21.8219H47.1052C46.1412 21.8219 45.6592 21.2523 45.6592 20.0911V11.8971H49.2961C51.3775 11.8971 53.3274 11.3274 54.7953 10.3196C56.2851 9.28988 57.0958 7.93151 57.0958 6.4636C57.0958 2.78286 53.656 0.307129 48.5512 0.307129Z" fill="#272727"/>
<path d="M84.2395 1.51173C84.2395 0.876366 84.5243 0.52582 85.0502 0.52582H87.1096C91.4915 0.52582 92.1487 3.70265 92.1487 5.58683C92.1487 8.96084 90.3741 10.9765 87.4164 10.9765H84.2395V1.51173ZM122.23 3.61501L125.516 13.8904H118.308L122.23 3.61501ZM133.097 21.7996C131.914 21.7996 131.103 21.5805 130.161 18.6228L124.136 0.0219092V0H124.027V0.0438185C124.027 1.6651 122.186 3.3521 122.164 3.37401L117.892 14.5039C116.446 17.834 113.795 21.8215 109.413 21.8215H106.806C105.973 21.8215 105.579 21.3395 105.579 20.2879V2.32237C105.579 1.16119 106.105 0.50391 107.047 0.50391H109.194V0.306728H98.6996V0.50391H101.022C101.942 0.50391 102.468 1.16119 102.468 2.32237V19.8935C102.468 21.2519 101.942 21.7996 100.628 21.7996H99.5321C97.4069 21.7996 95.8952 19.9811 95.1722 16.5414C94.493 13.3865 92.6965 12.0062 88.0736 11.1298C90.5494 10.9327 92.2145 10.5383 93.3099 9.92484C94.9969 8.93893 95.6542 7.77775 95.6542 5.7621C95.6542 2.45382 92.2802 0.306728 87.0439 0.306728H77.4477V0.50391H79.7262C80.6683 0.525819 81.1722 1.16118 81.1722 2.30046V19.9811C81.1722 21.1204 80.6245 21.7996 79.7043 21.7996H77.4258V21.9968H87.9422V21.7996H85.7732C84.7215 21.7996 84.3053 21.2738 84.3053 19.9373V11.1737H86.781C88.2051 11.1737 89.3663 11.5899 90.3084 12.4663C91.2724 13.3865 91.6448 14.219 92.1049 16.7167C92.7622 20.3098 94.7121 21.9968 98.2395 21.9968H115.351L118.33 14.0876H125.67L127.466 19.7401C127.663 20.3755 127.642 20.8794 127.401 21.23C127.05 21.712 126.371 21.8215 125.845 21.8215H124.377V22.0187H133.316V21.8215H133.097V21.7996Z" fill="#272727"/>
<path d="M23.5742 3.6155L26.8606 13.8909H19.6525L23.5742 3.6155ZM31.5273 18.6233L25.4803 0.0223975V0.000488281H25.3708V0.0443067C25.3708 1.66558 23.5304 3.35259 23.5085 3.3745L19.2143 14.5043C17.7683 17.8345 15.1173 21.8001 10.7355 21.8001H8.12829C7.29574 21.8001 6.90138 21.3181 6.90138 20.2664V2.30095C6.90138 1.13976 7.4272 0.48249 8.36929 0.48249H10.5164V0.285307H0V0.48249H2.32237C3.24255 0.48249 3.76837 1.13976 3.76837 2.30095V20.0912C3.68074 21.34 3.28637 21.8001 2.30046 21.8001H0V21.9973H16.6071L19.5868 14.0881H26.9263L28.7229 19.7406C28.9201 20.376 28.8982 20.8799 28.6572 21.2304C28.3066 21.7124 27.6274 21.822 27.1016 21.822H25.6337V22.0192H34.5945V21.822H34.4631C33.2581 21.8001 32.4693 21.581 31.5273 18.6233Z" fill="#272727"/>
</svg>
