<svg width="109" height="21" viewBox="0 0 109 21" fill="none" xmlns="http://www.w3.org/2000/svg">
<path fill-rule="evenodd" clip-rule="evenodd" d="M15.1806 20.1487C15.1806 20.343 15.051 20.4726 14.727 20.4726C13.2369 20.4726 11.0342 20.4726 8.11876 20.4726C5.20335 20.4726 3.00059 20.4726 1.51049 20.4726C1.18655 20.4726 0.992188 20.343 0.992188 20.1487C0.992188 20.0839 4.74984 13.7348 12.2003 1.1013H4.49069C4.29633 1.1013 4.10197 1.1013 3.77803 1.16609C3.4541 1.16609 3.25973 1.23088 3.06537 1.23088C2.74144 1.23088 2.54708 1.1013 2.54708 0.906943C2.54708 0.647795 2.67665 0.583008 3.00059 0.583008C3.19495 0.583008 3.4541 0.582992 3.77803 0.647779C4.10197 0.647779 4.36111 0.71257 4.55548 0.71257H14.4679C14.8566 0.71257 14.9862 0.842144 14.9862 1.03651C14.9862 1.10129 11.2285 7.45044 3.77803 20.0191C5.00899 20.0191 6.82302 20.0191 9.22014 20.0191C11.6173 20.0191 13.4313 20.0191 14.6623 20.0191C15.051 19.8248 15.1806 19.8895 15.1806 20.1487Z" fill="#272727"/>
<path fill-rule="evenodd" clip-rule="evenodd" d="M26.6486 12.8278L22.891 3.62808L19.0037 12.8278H26.6486ZM32.7386 20.4079H29.6288C29.564 20.1488 29.3697 19.5009 28.9162 18.3995L26.9078 13.3461H18.8742L16.3475 19.3713C16.0235 20.2136 15.7644 20.6023 15.6348 20.6023C15.3757 20.6023 15.2461 20.4727 15.2461 20.2784C15.2461 20.2784 15.3757 19.8896 15.6996 19.1122L18.0967 13.3461C17.8376 13.3461 17.5136 13.3461 17.0601 13.3461H16.0235C15.6996 13.3461 15.5052 13.2166 15.5052 13.0222C15.5052 12.8926 15.6348 12.7631 15.8292 12.7631C15.9588 12.6983 16.1531 12.6983 16.4771 12.7631C16.8658 12.7631 16.9953 12.7631 16.9953 12.7631H18.4207L23.5388 0.583099C23.7332 0.194377 23.9276 0 24.1219 0C24.3163 0 24.5106 0.194373 24.6402 0.518308L31.2485 16.7151C31.6372 17.8812 32.1555 19.1122 32.7386 20.4079Z" fill="#272727"/>
<path fill-rule="evenodd" clip-rule="evenodd" d="M43.0375 15.4839C42.1953 14.3177 41.2883 13.7346 40.3812 13.7346C39.7334 13.7346 39.4094 13.9938 39.4094 14.4473C39.4094 14.836 39.6686 15.1599 40.1869 15.4191C40.5756 15.6134 41.0291 15.6782 41.5474 15.6782C42.0009 15.743 42.5192 15.6134 43.0375 15.4839ZM49.7106 20.3429C49.7106 20.5373 49.581 20.6668 49.2571 20.6668C47.8965 20.6668 46.7304 20.2133 45.6938 19.2415C44.9163 18.5288 44.1389 17.4923 43.3614 16.0021C42.7136 16.1965 42.1305 16.2613 41.4826 16.2613C40.8347 16.2613 40.2517 16.1317 39.7334 15.8726C39.1503 15.5486 38.8263 15.0951 38.8263 14.5121C38.8263 14.1233 38.9559 13.7994 39.2799 13.605C39.6038 13.3459 39.9277 13.2811 40.3812 13.2811C41.5474 13.2811 42.584 13.9938 43.6206 15.4191C46.8599 14.1881 48.4796 11.9853 48.4796 8.81078C48.4796 6.08973 47.3134 4.08134 45.0459 2.7856C43.2319 1.749 40.8347 1.23071 37.9193 1.23071V15.743C37.9193 16.974 37.9841 18.5936 38.0489 20.602H35.0039C35.0687 18.7232 35.1335 17.1035 35.1335 15.8078V5.57143C35.1335 4.2109 35.0687 2.59123 35.0039 0.712402H38.3728C41.2882 0.712402 43.6854 1.36027 45.629 2.59122C47.8965 4.01654 49.0627 6.15452 49.0627 8.87557C49.0627 12.2445 47.3782 14.6416 43.9445 16.0021C44.722 17.4923 45.4994 18.5936 46.3416 19.2415C47.1839 19.8894 48.0909 20.2781 49.0627 20.2781C49.4514 20.0837 49.7106 20.1485 49.7106 20.3429Z" fill="#272727"/>
<path fill-rule="evenodd" clip-rule="evenodd" d="M66.7523 10.3009C66.7523 8.29252 66.234 6.47847 65.1974 4.98837C64.1608 3.49827 62.6707 2.39688 60.7919 1.68423C59.6905 1.2955 57.9413 1.03635 55.5441 1.03635H54.5723V19.8246H55.9329C58.1356 19.8246 59.8849 19.5654 61.1806 19.1119C62.9947 18.3993 64.42 17.2331 65.4566 15.6134C66.234 14.0586 66.7523 12.3093 66.7523 10.3009ZM67.3354 10.3009C67.3354 12.698 66.6875 14.7712 65.3918 16.5205C64.096 18.3345 62.282 19.5007 59.9497 20.0837C58.9131 20.3429 57.5525 20.4077 55.8033 20.4077H51.5273C51.5921 18.5289 51.6569 16.9092 51.6569 15.6134V5.3123C51.6569 4.01656 51.5921 2.39689 51.5273 0.518066H55.5441C57.0342 0.518066 58.2004 0.582846 59.0426 0.71242C61.5046 1.10114 63.5129 2.13773 65.0031 3.88698C66.6227 5.63623 67.3354 7.77422 67.3354 10.3009Z" fill="#272727"/>
<path fill-rule="evenodd" clip-rule="evenodd" d="M87.8709 10.1068C87.8709 7.58009 87.1583 5.37733 85.6682 3.56329C84.0485 1.61968 82.0401 0.64787 79.5134 0.64787C74.5248 0.64787 72.0629 4.0168 72.0629 10.6899C72.0629 13.4757 72.5812 15.6137 73.553 17.2981C74.784 19.3065 76.6628 20.2784 79.2543 20.2784C81.9105 20.2784 83.9837 19.2418 85.6682 17.1038C87.0935 15.1602 87.8709 12.8278 87.8709 10.1068ZM88.5188 10.1068C88.5188 13.0222 87.6766 15.5489 85.9921 17.5573C84.1781 19.7601 81.8457 20.7966 78.9951 20.7966C76.0149 20.7966 73.6178 19.8248 71.739 17.946C69.8601 16.0672 68.9531 13.6053 68.9531 10.6899C68.9531 7.70966 69.9249 5.24776 71.8038 3.10979C73.7474 1.0366 76.1445 0 79.0599 0C81.9105 0 84.1781 0.971806 85.9273 2.91542C87.6766 4.85903 88.5188 7.25615 88.5188 10.1068Z" fill="#272727"/>
<path fill-rule="evenodd" clip-rule="evenodd" d="M104.134 20.1487C104.134 20.343 104.004 20.4726 103.68 20.4726C102.19 20.4726 99.9873 20.4726 97.0719 20.4726C94.1565 20.4726 91.9537 20.4726 90.4636 20.4726C90.1397 20.4726 89.9453 20.343 89.9453 20.1487C89.9453 20.0839 93.703 13.7348 101.153 1.1013H93.4438C93.2494 1.1013 93.0551 1.1013 92.7311 1.16609C92.4072 1.16609 92.2129 1.23088 92.0185 1.23088C91.6946 1.23088 91.5002 1.1013 91.5002 0.906943C91.5002 0.647795 91.6298 0.583008 91.9537 0.583008C92.1481 0.583008 92.4072 0.582992 92.7311 0.647779C93.0551 0.647779 93.3142 0.71257 93.5086 0.71257H103.421C103.81 0.71257 103.939 0.842144 103.939 1.03651C103.939 1.10129 100.182 7.45044 92.7311 20.0191C93.9621 20.0191 95.7762 20.0191 98.1733 20.0191C100.57 20.0191 102.384 20.0191 103.615 20.0191C103.939 19.8248 104.134 19.8895 104.134 20.1487Z" fill="#272727"/>
<path fill-rule="evenodd" clip-rule="evenodd" d="M108.994 20.4075H105.949C106.014 18.2696 106.079 16.7147 106.079 15.6781V5.18257C106.079 4.14598 106.014 2.5911 105.949 0.453125H108.994C108.929 1.87844 108.865 3.23897 108.865 4.66428V16.1316C108.8 17.6217 108.865 19.047 108.994 20.4075Z" fill="#272727"/>
</svg>
