<svg width="146" height="82" viewBox="0 0 146 82" fill="none" xmlns="http://www.w3.org/2000/svg">
<path fill-rule="evenodd" clip-rule="evenodd" d="M108.731 13.849C108.22 15.0762 107.913 16.8147 107.504 18.1441C106.277 22.1325 104.232 26.2231 102.084 29.3933C100.039 32.359 96.6642 36.1428 93.8008 37.9835C92.6758 38.6994 90.7328 40.0289 90.2215 38.8017C89.7102 37.6768 92.2668 22.5415 92.7781 19.5758C92.9826 18.5532 93.0849 17.4283 93.3917 16.5079C93.6985 15.383 94.1075 14.8717 93.5962 13.6445L93.0849 13.7468C91.8577 16.7124 90.2215 27.6548 89.7102 31.8476C89.5056 33.8929 89.3011 36.2451 88.9943 38.1881C87.8694 37.9836 86.6422 37.2677 85.415 36.8587C82.2448 35.9383 82.0403 38.1881 83.0629 39.2107C85.415 41.7674 87.3581 41.1538 88.5852 41.7674C88.6875 42.8923 88.3807 45.2444 88.2784 46.4716C88.0739 48.7214 87.4603 56.3913 88.6875 58.1298C88.892 58.4366 89.6079 59.0501 90.1192 58.9479C90.1192 58.9479 90.6305 58.9479 90.0169 58.232C90.0169 58.232 89.6079 57.9252 89.6079 57.823C89.3011 57.5162 89.3011 57.1071 89.1988 56.4935C88.5852 53.0165 89.4034 47.0851 89.7102 43.1991C89.8124 42.0742 89.8124 40.847 91.1419 41.1538C92.5736 41.3583 105.254 50.7667 109.856 50.8689C112.311 50.9712 113.64 48.9259 113.231 47.6987C113.129 47.3919 113.231 47.5965 113.027 47.3919C111.799 46.4716 112.72 50.869 107.913 49.0282C105.766 48.2101 93.8007 41.4606 92.9826 40.2334C93.1872 39.8243 95.6415 38.3926 96.7664 37.2677C102.902 31.5409 106.584 25.3027 109.141 16.8147C109.754 14.6671 111.799 7.91764 111.084 5.97461C109.754 5.97461 109.856 8.3267 109.652 9.45161C109.345 11.1901 108.936 12.5196 108.731 13.849ZM83.9833 38.3926C85.3128 38.0858 88.3807 39.313 88.6875 40.2334C87.9716 40.5402 86.4377 40.4379 85.6196 40.1311C84.9037 39.8243 83.8811 39.2108 83.9833 38.3926Z" fill="#23272A"/>
<path fill-rule="evenodd" clip-rule="evenodd" d="M28.3523 13.4395C28.0455 14.2577 27.3296 15.2803 26.9206 16.303C26.5115 17.3256 26.2047 18.3483 25.8979 19.4732C25.1821 22.6434 23.1367 41.5624 23.1367 41.5624C23.6481 44.9372 21.5005 56.3909 23.239 57.8226C24.1594 57.1067 24.2617 55.3682 24.6707 53.9365C25.182 51.7889 27.8409 42.8919 29.1704 42.5851C29.6817 43.1987 29.784 45.8576 29.9885 46.8802C30.2953 48.3119 30.7044 49.5391 31.2157 50.664C33.5678 55.8795 36.8403 53.2206 36.3289 51.8912C35.3063 51.6867 34.6927 53.6297 33.261 52.198C32.5451 51.4821 32.1361 50.3572 31.8293 49.2323C31.2157 47.4938 30.8066 43.1987 30.193 42.0737C28.0455 38.0854 24.5685 50.664 24.1594 52.5048C23.8526 52.198 24.0571 52.5048 23.9549 52.0957C23.7503 51.6867 24.1594 47.2893 24.1594 46.6757L25.0798 35.4265C25.3866 32.9722 29.5794 21.8253 30.193 16.6098C30.2953 14.769 30.3976 12.5192 28.3523 13.4395ZM25.6934 28.677C25.182 27.7567 27.1251 15.8939 29.0681 14.3599C29.8862 15.6894 28.3523 20.2913 27.9432 21.8253L26.1024 27.9612C26.1024 28.0634 25.8979 28.268 25.8979 28.3702C25.7956 28.677 25.8979 28.5748 25.6934 28.677Z" fill="#23272A"/>
<path fill-rule="evenodd" clip-rule="evenodd" d="M128.06 43.8125C128.878 42.6876 129.492 41.9717 132.355 43.7102C132.969 44.1193 134.094 43.608 135.628 42.9944C137.775 42.074 140.741 40.8468 144.729 41.2558C144.934 41.2558 145.138 41.4604 145.138 41.7672C145.138 41.9717 144.934 42.1762 144.627 42.1762C140.843 41.7672 137.98 42.9944 135.934 43.9147C134.196 44.6306 132.969 45.1419 131.946 44.5283C129.696 43.0966 129.389 43.7102 128.776 44.4261C128.469 44.8351 128.162 45.2442 127.753 45.551C127.14 46.2668 125.912 46.3691 124.89 44.5283C124.379 43.5057 123.765 39.8241 123.151 39.3128C122.129 40.1309 120.186 45.8578 119.47 47.6985C118.958 48.9257 118.856 49.8461 117.424 49.5393C115.891 47.1872 117.22 40.9491 117.118 38.9038C116.197 39.5174 116.709 40.6422 114.561 43.0966C114.152 43.5057 113.334 44.6306 112.413 43.7102C111.698 42.9943 112.004 41.7672 111.493 41.1536C110.777 41.8694 109.55 45.3464 108.118 44.3238C106.891 43.5057 108.118 38.2902 110.266 36.5516C111.084 35.8358 112.209 36.2449 112.618 36.8585C113.436 37.8811 112.004 41.7672 113.334 43.0966C114.97 42.8921 117.527 35.6313 118.243 33.586C118.447 32.9724 118.652 32.3588 118.856 31.7452C119.061 31.0294 119.061 30.3135 119.879 30.3135C120.595 31.0293 119.777 33.3814 119.572 34.5063C119.061 37.2675 116.913 46.2668 118.243 48.1076C119.47 46.9827 121.617 36.4494 124.072 38.0856C124.685 38.4947 124.89 39.5173 125.094 40.3355C125.401 41.7672 125.606 44.6306 126.833 45.0397C127.242 44.9374 127.651 44.3238 128.06 43.8125ZM108.63 43.1989C108.323 42.1762 109.755 36.8585 111.595 36.8585C111.902 37.9834 110.47 40.949 109.857 42.074C109.448 42.5853 109.346 43.0966 108.63 43.1989Z" fill="#23272A"/>
<path fill-rule="evenodd" clip-rule="evenodd" d="M60.1554 41.3583C60.769 41.9719 61.3826 48.7214 64.5528 49.7441C65.9845 50.1531 66.8027 49.0282 67.6208 48.6192C67.6208 49.335 67.6208 50.2554 68.0298 50.6645C68.6434 51.2781 69.4616 50.7667 69.8706 50.3576C71.2001 49.1305 71.4046 47.6988 72.1204 47.2897C72.6318 48.0056 72.8363 48.6191 73.8589 48.8237C74.9839 49.0282 75.9042 48.5169 76.6201 48.1078C78.1541 46.9829 78.7677 46.1648 79.3813 43.8127C78.2563 44.2218 78.2563 45.858 76.6201 47.1874C75.2906 48.2101 73.6544 48.926 73.0408 46.5739C72.8363 45.9603 72.734 44.324 73.0408 43.8127C73.4499 43.1991 74.6771 43.6082 73.8589 42.0742C71.8136 38.5972 68.3366 46.3693 68.1321 46.6761C62.9166 53.7324 61.9962 40.7447 60.769 40.2334C59.6441 39.9266 59.4396 41.0516 59.0305 41.9719C58.6215 42.8923 58.3147 43.8127 58.0079 44.8353C57.4965 46.2671 56.7807 49.335 56.0648 50.4599C55.5535 49.7441 55.5535 43.7104 55.5535 42.381C55.5535 40.9493 55.5535 39.5176 55.5535 38.0859C55.5535 37.2677 55.9626 34.6089 55.8603 34.1998C54.7354 33.6885 54.7354 35.427 54.5309 37.37C54.2241 40.9493 54.4286 47.4942 54.9399 50.869C55.0422 51.4826 55.0422 52.3007 55.4512 52.6075C56.0648 53.1188 56.4739 52.5052 56.6784 51.9939C57.0875 51.0735 57.4965 49.4373 57.8033 48.4146C58.3147 46.4716 59.2351 42.7901 60.1554 41.3583ZM68.5412 49.9486C68.0298 47.9033 70.8933 41.7674 72.8363 42.2787C72.8363 43.3014 72.2227 42.79 71.8136 44.2218C71.4046 45.7557 70.1774 49.6418 68.5412 49.9486Z" fill="#23272A"/>
<path fill-rule="evenodd" clip-rule="evenodd" d="M45.8395 42.6879C45.3282 44.6309 43.0783 50.051 41.7489 50.1532C40.9308 49.2329 41.1353 47.1875 41.3398 45.7558C41.4421 44.1196 41.033 42.9947 39.3968 43.0969C37.3515 44.6309 36.5334 46.5739 36.3288 49.3351C36.2266 50.051 36.2266 50.9713 36.7379 51.3804C38.1696 52.4031 39.2945 49.1306 40.1126 48.2102C40.7262 48.926 40.4194 50.1532 41.033 50.7668C42.3625 51.994 44.2032 48.8238 44.6123 48.1079C44.9191 47.3921 45.2259 46.2672 45.7372 45.8581C45.8395 47.9034 44.51 54.1416 46.044 56.4937C47.4757 56.6982 47.578 55.8801 48.0893 54.6529C48.8052 52.8121 50.7482 47.0853 51.7708 46.2672C52.4867 46.7785 52.998 50.3578 53.5094 51.3804C55.0433 54.6529 57.4977 51.994 56.5773 51.1759C55.9637 50.7668 56.066 51.7895 55.2479 52.0963C53.3048 52.1985 54.0207 41.2562 50.5437 46.0626C49.3165 47.6989 47.2712 54.5506 46.6576 55.1642C45.3281 53.3235 47.3734 44.3241 47.987 41.563C48.1916 40.438 49.0097 38.086 48.2938 37.3701C46.9644 37.5746 46.7599 41.4607 45.8395 42.6879ZM37.147 50.3578C36.8402 49.3351 38.2719 44.0173 40.1126 44.0173C40.4194 44.9377 39.499 46.7785 39.09 47.6989C38.8855 48.3124 38.5787 48.7215 38.2719 49.2328C37.9651 49.8464 37.8628 50.3578 37.147 50.3578Z" fill="#23272A"/>
<path fill-rule="evenodd" clip-rule="evenodd" d="M36.5322 18.8599C29.6805 19.9848 15.0566 25.4049 10.6592 26.632C10.7615 26.223 11.0682 25.8139 10.4547 25.6094C10.0456 25.5071 9.63654 25.8139 9.53428 26.0184C8.71616 26.9388 8.40936 30.8249 13.7271 27.4501C18.1245 24.5867 34.896 19.2689 37.9639 19.678C38.373 19.2689 38.0662 19.3712 38.9866 19.2689C38.7821 19.8825 38.9866 19.7803 38.4753 20.0871C38.2707 21.1097 36.7368 22.8482 36.1232 23.5641C29.885 30.9272 23.8514 37.7789 17.6132 45.2443C14.1362 49.4371 10.966 53.7323 7.48897 58.3342C6.77312 59.2546 -3.35112 71.3218 1.14854 72.549C2.37572 72.9581 2.78479 72.8558 4.01197 72.6513C5.85274 73.1626 53.9173 54.4481 57.7011 58.0274C58.9283 58.4364 59.4396 60.2772 60.2577 59.5614C60.8713 58.7432 59.0305 57.107 58.4169 57.0047C50.0312 53.63 16.2838 67.9471 7.89803 70.5037C7.38671 70.7083 7.28444 70.7082 6.77312 70.8105C5.13688 71.015 2.78478 72.0377 1.35307 71.2196C1.14854 69.6856 2.17119 68.3561 2.88705 67.129C6.15953 61.1976 15.6702 49.4371 19.7608 44.5284C21.4993 42.3809 23.1355 40.5401 24.874 38.3925C27.4307 35.2223 38.9866 22.5414 39.907 19.8825C40.0092 18.3486 39.7025 18.2463 38.1685 18.4508H37.6572C37.3504 18.7576 37.8617 18.5531 37.0436 18.8599C36.9413 18.8599 36.7368 18.8599 36.5322 18.8599Z" fill="#23272A"/>
<path fill-rule="evenodd" clip-rule="evenodd" d="M119.98 52.8119V81.1394H22.2148V69.0721H22.9307V80.4235H119.367V52.8119H119.98ZM22.5216 0.861328H119.98V26.9389H119.264V1.5772H22.9307V18.7577H22.2148C22.2148 13.6445 22.2148 5.97458 22.2148 0.861328H22.5216Z" fill="#23272A"/>
</svg>
