<svg width="40" height="30" viewBox="0 0 400 300" fill="none" xmlns="http://www.w3.org/2000/svg">
<path id="Vector" d="M213.354 236.482L212.812 236.437V236.98C212.812 238.327 212.981 239.833 213.146 241.224C213.157 241.32 213.169 241.416 213.18 241.511C213.334 242.807 213.472 243.975 213.472 244.858V244.896L213.478 244.934C214.148 249.27 215.666 252.668 218.079 254.983C220.499 257.305 223.766 258.487 227.825 258.487C227.844 258.487 227.863 258.487 227.883 258.487C228.156 258.487 228.435 258.488 228.708 258.352C228.849 258.282 228.97 258.186 229.086 258.082C229.202 257.979 229.336 257.845 229.497 257.685C230.238 256.947 230.952 255.527 230.964 254.084C231.639 249.278 229.211 245.033 225.681 241.938C222.144 238.837 217.427 236.82 213.354 236.482ZM186.81 39.342C186.626 39.5685 186.406 39.8383 186.081 40.1755C184.086 39.9692 180.905 40.2214 176.861 40.8237C172.627 41.4544 167.393 42.4778 161.481 43.8024C149.655 46.4518 135.09 50.3115 120.322 54.6627C105.554 59.014 90.5775 63.8586 77.9284 68.4788C65.295 73.0932 54.941 77.4987 49.4473 80.9772C42.875 85.0646 38.1236 86.9085 34.7649 87.3462C31.4285 87.7809 29.5359 86.8268 28.518 85.3797C27.4692 83.8886 27.252 81.7431 27.5727 79.6291C27.893 77.5174 28.7314 75.5632 29.6424 74.5056L29.6826 74.4589L29.7103 74.4038C29.9862 73.8547 30.5614 73.2715 31.3003 72.9038C32.0317 72.5399 32.8838 72.406 33.7238 72.6846L33.7419 72.6906L33.7605 72.6952C34.3335 72.8378 34.6195 73.0671 34.7695 73.3007C34.925 73.5429 34.9859 73.8696 34.9497 74.3017C34.9134 74.7346 34.784 75.2234 34.6121 75.7465C34.527 76.0058 34.4338 76.2664 34.3397 76.5282L34.3173 76.5904C34.2312 76.8296 34.1446 77.0703 34.0668 77.3028L33.7671 78.1974L34.6756 77.9431C40.1408 76.4135 50.2067 73.3434 62.7039 69.5316C74.3491 65.9798 88.1053 61.7841 102.217 57.5909C131.473 48.8981 162.256 40.217 179.053 37.2617C179.383 37.2616 179.893 37.2586 180.411 37.1728C180.904 37.0909 181.476 36.9229 181.909 36.5453C182.833 36.2377 183.403 36.0352 183.744 35.8865C183.916 35.8116 184.069 35.7345 184.184 35.6439C184.31 35.5447 184.457 35.3742 184.457 35.1204C184.457 35.0176 184.431 34.935 184.415 34.8885C184.405 34.8611 184.39 34.8274 184.382 34.8087C184.396 34.78 184.429 34.7239 184.504 34.6357H186.925H186.948L186.971 34.6337C188.782 34.4698 190.232 34.3913 191.385 34.4704C192.541 34.5497 193.335 34.7842 193.883 35.1928C194.415 35.5898 194.779 36.2009 194.969 37.1845C195.159 38.1687 195.167 39.4865 195.009 41.2443C194.442 42.7397 193.094 45.0101 191.103 47.899C189.094 50.8151 186.457 54.3241 183.378 58.2384C177.221 66.0664 169.311 75.4965 161.148 85.0136C152.967 94.5537 144.527 104.187 137.355 112.372C130.233 120.502 124.361 127.203 121.237 130.967C116.947 135.893 112.823 140.817 108.702 145.738L108.701 145.74C104.577 150.664 100.457 155.584 96.1731 160.503L96.1678 160.509L96.1626 160.516C95.471 161.364 94.7463 162.253 93.9911 163.18C83.9416 175.507 68.4773 194.477 53.4406 213.945C37.2808 234.866 21.5901 256.394 13.6526 270.875L13.6483 270.883L13.6442 270.891C12.881 272.41 12.0099 273.895 11.1305 275.394L10.9488 275.704C10.0116 277.303 9.07364 278.92 8.27993 280.583C6.68947 283.915 5.65839 287.47 6.34148 291.549L6.38176 291.789L6.59609 291.906C10.3921 293.966 15.1682 293.6 19.875 292.696C21.6139 292.362 23.3681 291.949 25.0763 291.547C25.6881 291.402 26.2941 291.26 26.8913 291.123C29.1678 290.6 31.3226 290.156 33.2629 289.995L33.3031 289.992L33.3423 289.982C34.312 289.741 35.0217 289.587 35.6365 289.455C36.6525 289.235 37.4092 289.072 38.6514 288.66C47.7525 285.86 60.1448 280.68 74.2587 274.549C78.0216 272.915 81.9076 271.212 85.888 269.469C96.852 264.666 108.532 259.549 120.325 254.674C136.398 248.03 152.664 241.843 167.584 237.522C182.513 233.198 196.049 230.757 206.678 231.571L207.216 231.612V231.072C207.216 224.522 207.545 217.477 207.875 211.241C207.931 210.174 207.988 209.13 208.042 208.115C208.307 203.232 208.533 199.043 208.535 196.308C208.865 193.355 209.358 188.929 209.688 184.584C210.018 180.239 210.187 175.924 209.85 173.242L209.819 172.99L209.596 172.867C208.035 172.004 206.233 171.582 204.289 171.233C203.755 171.136 203.21 171.046 202.654 170.953C201.165 170.705 199.596 170.443 197.931 170.029C193.398 168.901 188.213 166.65 182.681 160.499C180.464 157.975 179.58 154.1 181.015 151.47C182.404 148.925 186.185 147.217 194.034 149.493C196.607 150.347 199.182 151.45 201.724 152.54C202.086 152.695 202.448 152.85 202.809 153.004C205.692 154.233 208.53 155.398 211.213 156.065L211.714 156.19L211.822 155.685C212.818 151.063 213.479 145.789 214.057 140.453C214.229 138.866 214.393 137.273 214.556 135.691C214.943 131.943 215.324 128.248 215.787 124.793L215.787 124.791C217.106 114.621 219.744 96.2478 222.793 78.6137C224.318 69.7965 225.945 61.1683 227.561 53.8449C229.144 46.6691 230.711 40.7768 232.151 37.1855L234.091 36.7026C234.933 39.3563 235.05 41.1433 234.753 42.9153C234.52 44.3115 234.033 45.6958 233.398 47.5047C233.16 48.1803 232.902 48.9152 232.629 49.732L232.625 49.7423L232.622 49.7528C231.292 54.3854 230.628 59.6689 229.971 64.9035L229.97 64.9133C228.647 72.157 225.02 94.3038 221.971 115.3C220.445 125.805 219.063 136.028 218.186 143.955C217.747 147.917 217.434 151.313 217.293 153.886C217.222 155.171 217.194 156.259 217.216 157.114C217.237 157.945 217.305 158.622 217.462 159.038L217.468 159.052L217.474 159.066C218.202 160.698 219.417 161.544 220.911 161.787C222.366 162.022 224.049 161.682 225.77 161.055C229.216 159.801 233.059 157.303 236.018 155.34C249.943 146.102 266.476 127.667 276.391 113.197C287.642 97.3895 296.895 76.9927 303.5 57.9317L303.504 57.922L303.507 57.9123C304.358 55.0902 305.208 51.9057 306.056 48.7308C306.197 48.2024 306.339 47.6743 306.48 47.1481C307.469 43.4539 308.455 39.8579 309.439 36.9205L309.449 36.8909L309.455 36.8602L311.434 27.0134L313.411 17.177C313.412 17.1751 313.412 17.1732 313.412 17.1713C313.725 15.7706 313.927 14.0874 314.135 12.3599C314.151 12.2297 314.167 12.0993 314.182 11.9687C314.409 10.0887 314.654 8.16602 315.059 6.43228C315.466 4.69223 316.023 3.19648 316.843 2.14322C317.577 1.20071 318.524 0.606209 319.815 0.512906C320.492 2.8802 320.482 6.53312 320.002 10.9311C319.5 15.5308 318.494 20.8647 317.3 26.2318C315.634 33.7205 313.612 41.2332 312.09 46.8865C311.43 49.3384 310.864 51.4405 310.462 53.0393C297.952 94.3133 280.186 124.427 249.918 152.583C247.43 154.784 243.885 157.22 240.545 159.516C239.939 159.932 239.34 160.344 238.755 160.749C236.859 162.061 235.112 163.302 233.795 164.384C233.137 164.924 232.575 165.434 232.152 165.901C231.741 166.355 231.412 166.821 231.298 167.274L231.178 167.753L231.656 167.879C247.713 172.119 258.035 179.777 267.747 187.803C268.902 188.758 270.049 189.719 271.197 190.68C279.691 197.792 288.209 204.924 300.199 209.871L300.215 209.878L300.232 209.884C318.205 215.846 340.109 211.207 353.365 205.272C363.902 200.684 378.315 194.822 397.971 196.778L397.996 196.78H398.021C398.496 196.78 398.858 197.011 399.116 197.332C399.386 197.669 399.5 198.054 399.5 198.249C399.5 198.719 399.27 199.078 398.946 199.335C398.62 199.595 398.248 199.71 398.043 199.718C379.45 197.744 365.502 203.697 354.947 208.292C338.506 215.163 325.392 217.438 314.275 216.706C303.163 215.974 294.005 212.235 285.478 207.014L285.477 207.013C278.687 202.872 272.576 197.948 266.435 193.001C263.35 190.516 260.258 188.025 257.069 185.624C247.56 178.465 237.264 172.179 223.965 169.532C222.249 169.19 220.893 169.304 219.826 169.818C218.755 170.333 218.045 171.218 217.558 172.275C217.075 173.323 216.799 174.568 216.601 175.854C216.475 176.676 216.376 177.543 216.28 178.399C216.226 178.875 216.172 179.347 216.115 179.806L216.114 179.815L216.113 179.823C216.065 180.353 216.015 180.891 215.965 181.437C214.652 195.794 212.812 215.892 212.812 231.728V232.152L213.231 232.222C217.184 232.877 220.437 233.527 223.682 234.819L223.745 234.844L223.812 234.851C226.571 235.156 228.933 237.151 230.797 239.811C232.652 242.46 233.949 245.683 234.597 248.262L234.601 248.28L234.608 248.299C235.233 250.165 235.233 252.679 234.608 254.546L234.582 254.623V254.704C234.582 255.579 234.288 256.483 233.81 257.434C233.339 258.372 232.709 259.317 232.055 260.293C231.438 260.902 230.838 261.341 230.179 261.632C229.511 261.928 228.757 262.082 227.825 262.082C222.674 262.082 219.459 260.812 216.874 259.529C214.62 257.839 213.365 256.158 211.728 253.966C211.545 253.72 211.357 253.468 211.162 253.209C211.105 252.787 210.859 252.543 210.708 252.392L210.697 252.381C210.537 252.222 210.514 252.186 210.514 252.079V251.982L210.478 251.892C209.191 248.69 208.535 243.517 207.873 236.93L207.827 236.473L207.367 236.48C197.059 236.646 180.666 240.773 161.809 246.802C142.932 252.838 121.522 260.802 101.152 268.68C90.9669 272.62 81.0393 276.539 71.8167 280.185L69.4843 281.107C61.1562 284.401 53.4512 287.447 46.7087 290.056C39.3397 292.907 33.1282 295.232 28.5142 296.782C26.2062 297.558 24.3075 298.136 22.868 298.489C22.1479 298.666 21.5522 298.784 21.0831 298.844C20.5992 298.905 20.3017 298.896 20.1488 298.858L20.0647 298.838L19.9786 298.846C18.9187 298.952 18.0018 299.056 17.1818 299.149C15.4169 299.35 14.1005 299.5 12.7717 299.5C10.8597 299.5 8.93226 299.185 5.65836 298.208L5.64624 298.204C3.07257 297.506 1.60367 296.049 0.936801 294.032C0.256474 291.975 0.391849 289.274 1.19678 286.091C2.80501 279.73 7.01519 271.703 12.0412 263.668C20.0755 250.823 30.0856 238.118 34.6423 232.335C35.7817 230.889 36.5801 229.876 36.9214 229.401C41.8136 223.035 46.5428 216.778 51.2014 210.615C62.8845 195.158 74.1237 180.288 86.3778 165.749L86.381 165.745C112.016 134.689 137.18 105.977 163.073 76.433C167.82 71.0164 172.592 65.5718 177.395 60.0798C179.063 58.4188 181.71 55.453 184.11 52.2414C186.463 49.0928 188.63 45.6395 189.354 42.9275C190.251 42.0353 190.622 41.6649 190.899 41.2046C191.038 40.9749 191.152 40.7262 191.298 40.4057L191.307 40.385C191.461 40.0482 191.664 39.6036 191.99 38.9555L192.354 38.231H191.543H191.522C190.386 38.231 189.592 38.231 189.021 38.2625C188.454 38.2939 188.036 38.3582 187.692 38.5295C187.338 38.7057 187.114 38.9708 186.889 39.245C186.863 39.2765 186.837 39.3088 186.81 39.342ZM188.807 155.089L188.468 155.157L188.411 155.497C188.042 157.701 189.162 159.662 190.788 161.195C192.41 162.724 194.607 163.901 196.63 164.577C198.682 165.591 201.541 166.252 204.378 166.418C207.222 166.585 210.126 166.258 212.216 165.218L212.639 165.007L212.452 164.573C211.898 163.286 210.516 161.988 208.759 160.797C206.98 159.593 204.741 158.449 202.367 157.496C199.991 156.542 197.466 155.773 195.11 155.325C192.764 154.878 190.547 154.743 188.807 155.089Z" fill="black" stroke="black"/>
</svg>
