<svg width="16" height="16" viewBox="0 0 16 16" fill="none" xmlns="http://www.w3.org/2000/svg">
<path d="M5.032 7.432C4.95917 7.50808 4.90207 7.5978 4.864 7.696C4.78398 7.89077 4.78398 8.10923 4.864 8.304C4.90207 8.4022 4.95917 8.49191 5.032 8.568L7.432 10.968C7.58264 11.1186 7.78696 11.2033 8 11.2033C8.21304 11.2033 8.41735 11.1186 8.568 10.968C8.71864 10.8174 8.80327 10.613 8.80327 10.4C8.80327 10.187 8.71864 9.98264 8.568 9.832L7.528 8.8H10.4C10.6122 8.8 10.8157 8.71571 10.9657 8.56568C11.1157 8.41565 11.2 8.21217 11.2 8C11.2 7.78782 11.1157 7.58434 10.9657 7.43431C10.8157 7.28428 10.6122 7.2 10.4 7.2H7.528L8.568 6.168C8.64298 6.09363 8.7025 6.00515 8.74311 5.90766C8.78373 5.81017 8.80464 5.70561 8.80464 5.6C8.80464 5.49439 8.78373 5.38982 8.74311 5.29234C8.7025 5.19485 8.64298 5.10637 8.568 5.032C8.49363 4.95702 8.40515 4.8975 8.30766 4.85689C8.21017 4.81627 8.10561 4.79536 8 4.79536C7.89439 4.79536 7.78982 4.81627 7.69234 4.85689C7.59485 4.8975 7.50637 4.95702 7.432 5.032L5.032 7.432ZM0 8C0 9.58225 0.469192 11.129 1.34824 12.4446C2.22729 13.7602 3.47672 14.7855 4.93853 15.391C6.40034 15.9965 8.00887 16.155 9.56072 15.8463C11.1126 15.5376 12.538 14.7757 13.6569 13.6569C14.7757 12.538 15.5376 11.1126 15.8463 9.56072C16.155 8.00887 15.9965 6.40034 15.391 4.93853C14.7855 3.47672 13.7602 2.22729 12.4446 1.34824C11.129 0.469192 9.58225 0 8 0C6.94942 0 5.90914 0.206926 4.93853 0.608964C3.96793 1.011 3.08601 1.60028 2.34315 2.34315C0.842854 3.84344 0 5.87827 0 8ZM14.4 8C14.4 9.2658 14.0246 10.5032 13.3214 11.5556C12.6182 12.6081 11.6186 13.4284 10.4492 13.9128C9.27972 14.3972 7.9929 14.524 6.75142 14.277C5.50994 14.0301 4.36957 13.4205 3.47452 12.5255C2.57946 11.6304 1.96992 10.4901 1.72297 9.24858C1.47603 8.0071 1.60277 6.72027 2.08717 5.55082C2.57157 4.38138 3.39187 3.38183 4.44435 2.67859C5.49682 1.97535 6.7342 1.6 8 1.6C9.69738 1.6 11.3252 2.27428 12.5255 3.47452C13.7257 4.67475 14.4 6.30261 14.4 8Z" fill="#2E3338"/>
</svg>
