<svg width="16" height="16" viewBox="0 0 16 16" fill="none" xmlns="http://www.w3.org/2000/svg">
<path d="M16 13.2968C16.0044 13.7089 15.5982 14.0082 15.2139 13.9019C15.2139 13.9019 14.7983 13.8239 14.1502 14.1762C9.73265 16.7104 4.71208 16.4775 0.904894 14.2563C0.080008 13.815 -0.239521 12.7792 0.192674 11.9475C0.600117 11.1634 1.52845 10.8214 2.39193 11.1497C2.99418 11.3787 3.73052 11.6586 4.53206 11.8801C4.45809 11.5235 4.49497 11.1459 4.64282 10.7869C4.8584 10.2635 5.30135 9.87415 5.85809 9.71861C6.14271 9.63905 6.45167 9.6212 6.77639 9.66538C8.91786 9.95718 10.1931 9.23171 11.3182 8.59165C12.0743 8.16143 12.7886 7.7551 13.6247 7.7551C14.474 7.7551 15.0314 7.93021 15.5616 8.09678C16.3432 8.37656 15.9888 9.50861 15.1882 9.29198C14.6958 9.13728 14.2826 9.00747 13.6248 9.00747C13.1188 9.00747 12.5966 9.30457 11.9355 9.68069C10.9456 10.2439 9.64555 10.9834 7.71363 10.9834C7.3661 10.9834 6.99825 10.9595 6.60794 10.9063C6.45508 10.8855 6.31194 10.892 6.19393 10.9249C6.06214 10.9617 5.88659 11.0506 5.79843 11.2646C5.73008 11.4306 5.72667 11.5859 5.7883 11.7262C5.8639 11.8984 6.0362 12.0411 6.27344 12.128C6.61578 12.2534 7.07032 12.3199 7.62434 12.326C8.21896 12.3305 8.83026 12.262 9.34052 12.1276C9.67446 12.0397 10.0162 12.2397 10.1039 12.5741C10.1916 12.9086 9.99208 13.251 9.65824 13.3389C9.06075 13.4961 8.33784 13.5786 7.65547 13.5786C5.28025 13.5679 3.24442 12.8134 1.94836 12.3205C1.73112 12.2379 1.43775 12.2635 1.30718 12.5148C1.19001 12.7403 1.27058 13.0323 1.49398 13.1518C3.06274 13.9914 4.88316 14.7684 7.55821 14.7684C9.93964 14.7684 12.1332 13.8477 13.554 13.0754C14.5598 12.5287 15.3516 12.6521 15.5358 12.6924C15.8029 12.7636 16 13.0068 16 13.2968ZM10.4492 4.2929L10.1694 6.26101C10.0176 7.46737 8.90767 8.43216 7.69416 8.41257H4.33095C3.72899 8.41257 3.14709 8.1949 2.69243 7.79968C2.23776 7.40446 1.94061 6.85805 1.85573 6.26101L1.57589 4.29287C1.40044 3.18727 2.31518 2.13127 3.43234 2.1494H4.14631V1.86887C4.2496 -0.623926 7.79426 -0.621985 7.89665 1.86887V2.1494H8.59286C9.1366 2.1494 9.65286 2.38538 10.0092 2.79681C10.3655 3.20831 10.5259 3.7536 10.4492 4.2929ZM5.39639 2.14943H6.6465V1.8689C6.61206 1.03798 5.43052 1.0386 5.39639 1.8689V2.14943ZM9.06494 3.61762C8.9444 3.47845 8.77672 3.40181 8.59283 3.40181H7.89661V4.18579C7.86361 5.01662 6.67922 5.01599 6.6465 4.18579V3.40181H5.39639V4.18579C5.36339 5.01662 4.179 5.01599 4.14628 4.18579V3.40181H3.43231C3.06121 3.39348 2.75293 3.74944 2.8135 4.11629L3.09334 6.0844C3.18054 6.69769 3.71258 7.16016 4.33095 7.16016H7.69416C8.31253 7.16016 8.84457 6.69769 8.93177 6.0844L9.21161 4.11629C9.23755 3.93391 9.18545 3.75679 9.06494 3.61762Z" fill="#272727"/>
</svg>
