<svg width="18" height="15" viewBox="0 0 18 15" fill="none" xmlns="http://www.w3.org/2000/svg">
<path fill-rule="evenodd" clip-rule="evenodd" d="M14.5993 10.2009C13.93 10.2009 13.387 9.65859 13.387 8.98937C13.387 8.32015 13.93 7.77713 14.5993 7.77713C15.2685 7.77713 15.8115 8.32015 15.8115 8.98937C15.8115 9.65859 15.2685 10.2009 14.5993 10.2009ZM11.0352 9.95086H6.96647C6.43427 9.95086 6.00231 9.5189 6.00231 8.98669C6.00231 8.45377 6.43427 8.0218 6.96647 8.0218H11.0352C11.5681 8.0218 11.9993 8.45377 11.9993 8.98669C11.9993 9.5189 11.5681 9.95086 11.0352 9.95086ZM3.4015 10.2009C2.73228 10.2009 2.18998 9.65859 2.18998 8.98937C2.18998 8.32015 2.73228 7.77713 3.4015 7.77713C4.07072 7.77713 4.61302 8.32015 4.61302 8.98937C4.61302 9.65859 4.07072 10.2009 3.4015 10.2009ZM5.47444 1.36446H9.00155H12.5287C14.1779 1.36446 14.8818 3.72332 15.1306 4.91105C14.9604 4.88509 14.7902 4.85912 14.6128 4.85912H3.39034C3.21294 4.85912 3.04275 4.88509 2.87184 4.91105C3.12208 3.72332 3.82591 1.36446 5.47444 1.36446ZM16.3829 5.37144C16.2971 4.70005 15.6084 0.210938 12.527 0.210938H8.99987H5.47276C2.39131 0.210938 1.70262 4.70005 1.6168 5.37144C0.64975 5.96854 0 7.02862 0 8.24808V9.45743V9.99108V13.2146C0 13.8744 0.535088 14.4095 1.19493 14.4095H1.66151C2.32136 14.4095 2.85645 13.8744 2.85645 13.2146V12.0045L8.52391 12.1185L15.144 11.9858V13.2146C15.144 13.8744 15.6784 14.4095 16.3382 14.4095H16.8055C17.4654 14.4095 17.9997 13.8744 17.9997 13.2146V9.99108V9.45743V8.24808C17.9997 7.02862 17.3493 5.96854 16.3829 5.37144Z" fill="#2E3338"/>
</svg>
