<svg width="20" height="18" viewBox="0 0 20 18" fill="none" xmlns="http://www.w3.org/2000/svg">
<path d="M14.7293 0C13.1001 0 11.4709 0.766695 10.4167 2.01257C9.36249 0.766695 7.73326 0 6.10403 0C3.13309 0 0.833008 2.30008 0.833008 5.27103C0.833008 8.91283 4.09146 11.8838 9.07498 16.2923L10.4167 17.5381L11.7584 16.2923C16.6461 11.7879 20.0004 8.81699 20.0004 5.27103C20.0004 2.30008 17.7003 0 14.7293 0ZM10.5125 14.9505H10.4167L10.3209 14.8547C5.72069 10.7337 2.74974 8.05029 2.74974 5.27103C2.74974 3.35429 4.1873 1.91674 6.10403 1.91674C7.54159 1.91674 8.97914 2.8751 9.55416 4.21682H11.3751C11.8542 2.8751 13.2918 1.91674 14.7293 1.91674C16.6461 1.91674 18.0836 3.35429 18.0836 5.27103C18.0836 8.05029 15.1127 10.7337 10.5125 14.9505Z" fill="#272727"/>
<path fill-rule="evenodd" clip-rule="evenodd" d="M10.2809 2.01257C11.3352 0.766695 12.9644 0 14.5936 0C17.5645 0 19.8646 2.30008 19.8646 5.27103C19.8646 8.70317 16.7222 11.5966 12.0885 15.8632C11.9348 16.0047 11.7795 16.1477 11.6227 16.2923L10.2809 17.5381L8.93923 16.2923C3.95572 11.8838 0.697266 8.91283 0.697266 5.27103C0.697266 2.30008 2.99735 0 5.96829 0C7.59752 0 9.22674 0.766695 10.2809 2.01257Z" fill="#272727"/>
</svg>
