<svg width="18" height="20" viewBox="0 0 18 20" fill="none" xmlns="http://www.w3.org/2000/svg">
<path fill-rule="evenodd" clip-rule="evenodd" d="M9 0C8.52679 0 8.06191 0.124366 7.65193 0.360619L4.77734 2.00324C4.58584 2.04036 4.40715 2.13923 4.27327 2.29127L1.35347 3.95973L1.35 3.96173C1.01507 4.1551 0.726491 4.41763 0.502872 4.73072C0.450936 4.78364 0.404743 4.8439 0.365899 4.91105C0.332878 4.96813 0.306826 5.02733 0.28748 5.08766C0.0991917 5.46235 0.000431587 5.87645 0 6.29723V13.4991C0.000485641 13.9726 0.125473 14.4376 0.362423 14.8475C0.599373 15.2574 0.939954 15.5978 1.35 15.8346L1.35347 15.8366L7.65 19.4346L7.65166 19.4355C7.93587 19.5994 8.24646 19.7094 8.56793 19.7615C8.69528 19.8305 8.84114 19.8697 8.99617 19.8697C9.14988 19.8697 9.29459 19.8312 9.42117 19.7633C9.74653 19.7119 10.061 19.6012 10.3484 19.4355L10.35 19.4346L16.6465 15.8366L16.65 15.8346C17.06 15.5978 17.4006 15.2574 17.6376 14.8475C17.8745 14.4376 17.9995 13.9726 18 13.4991V6.29723C17.9996 5.88411 17.9044 5.47742 17.7227 5.10815C17.7029 5.04073 17.6747 4.97458 17.638 4.91105C17.5958 4.83803 17.5448 4.77318 17.4873 4.71703C17.2651 4.40997 16.98 4.15227 16.65 3.96172L10.35 0.361731L10.3481 0.360648C9.93813 0.124377 9.47322 0 9 0ZM9.89617 17.6208L15.75 14.2757L15.7514 14.2749C15.8875 14.196 16.0005 14.0829 16.0792 13.9467C16.1582 13.8101 16.1998 13.6551 16.2 13.4972V6.78261L9.89617 10.4292V17.6208ZM8.09617 10.4225L1.8 6.78036V13.4976C1.80023 13.6553 1.84189 13.8102 1.92081 13.9467C1.99952 14.0829 2.11253 14.196 2.24858 14.2749L2.25 14.2757L8.09617 17.6164V10.4225ZM9.45 1.92058L15.2655 5.24372L13.0546 6.52263L6.80417 2.91821L8.54653 1.92258L8.55 1.92058C8.68682 1.84159 8.84202 1.8 9 1.8C9.15798 1.8 9.31318 1.84159 9.45 1.92058ZM9.00194 8.86697L11.2558 7.56317L4.99434 3.95239L2.73646 5.2426L9.00194 8.86697Z" fill="#272727"/>
</svg>
