<svg width="13" height="14" viewBox="0 0 13 14" fill="none" xmlns="http://www.w3.org/2000/svg">
<path d="M3.73204 9.1875H12.4532C12.7552 9.1875 13.0001 8.94266 13.0001 8.64062V7.49079C13.0017 6.70277 12.4432 6.02372 11.6722 5.87612L9.93319 5.54323C9.49451 5.45926 9.20749 5.04998 9.2771 4.60972C9.32684 4.35447 9.7563 2.27478 9.74613 1.88595C9.74381 1.38195 9.54062 0.90784 9.17336 0.549965C8.80939 0.195344 8.33085 2.73438e-05 7.82583 0C7.3191 0 6.8448 0.198105 6.49037 0.557785C6.14007 0.913281 5.94664 1.38614 5.94538 1.88975C5.93955 2.28599 6.37205 4.60898 6.37205 4.60898C6.44186 5.04938 6.15464 5.45896 5.71599 5.54291L3.97168 5.87664C3.19998 6.02427 2.63966 6.70168 2.63933 7.48691C2.63933 7.48691 2.63807 9.69776 2.63807 10.3906C2.63807 11.9384 1.20898 12.9999 1.19591 13.0095C1.00341 13.1482 0.922331 13.3953 0.995229 13.6211C1.06818 13.847 1.27837 14 1.51569 14H4.49616C4.63446 14 4.7676 13.9476 4.86883 13.8534C5.20855 13.5371 5.51797 13.1658 5.78569 12.7589C5.75307 12.933 5.70519 13.0885 5.64378 13.2165C5.56243 13.3859 5.5738 13.5853 5.67394 13.7444C5.77407 13.9035 5.94882 14 6.13678 14H11.6055C11.7149 14 11.8217 13.9672 11.9122 13.9059C12.0236 13.8305 13.0001 13.1133 13.0001 11.1836C13.0001 10.8816 12.7552 10.6367 12.4532 10.6367C12.1512 10.6367 11.9063 10.8816 11.9063 11.1836C11.9063 12.1966 11.5702 12.7076 11.3935 12.9062H9.06866C9.09316 12.6951 9.11378 12.4363 9.1172 12.1471C9.11977 11.9276 9.10361 11.6964 9.08827 11.497C9.06508 11.1958 8.80182 10.9707 8.50103 10.9937C8.19987 11.0169 7.97456 11.2798 7.99772 11.5809C8.01128 11.757 8.02555 11.9594 8.02348 12.1342C8.01981 12.444 7.99282 12.7124 7.96611 12.9062H6.87044C6.90725 12.6927 6.92726 12.4653 6.92967 12.2282C6.93558 11.6459 6.83123 11.0321 6.63592 10.4998C6.55364 10.2755 6.33538 10.1313 6.09656 10.142C5.85788 10.1533 5.65422 10.3183 5.59355 10.5494C5.36525 11.419 4.8781 12.2848 4.27325 12.9062H2.82001C3.28191 12.3015 3.73179 11.4426 3.73179 10.3906C3.73185 9.94079 3.73193 9.53862 3.73204 9.1875ZM3.7331 7.48778C3.73321 7.22591 3.92 7.00011 4.17719 6.95089L5.92151 6.61716C6.41471 6.5228 6.84452 6.24403 7.13177 5.83218C7.41901 5.42032 7.53216 4.92067 7.45029 4.42526C7.44964 4.42113 7.44887 4.417 7.44811 4.41287C7.44811 4.41287 7.03292 2.21558 7.03902 1.90548C7.0391 1.90189 7.03913 1.89831 7.03913 1.8947C7.03913 1.44558 7.3847 1.09375 7.82583 1.09375C8.27389 1.09375 8.65241 1.46054 8.65241 1.8947C8.65241 1.9008 8.20003 4.41897 8.19921 4.42394C8.11688 4.91955 8.22973 5.41953 8.51695 5.83177C8.80414 6.244 9.23409 6.52302 9.72751 6.61749L11.4665 6.95037C11.7219 6.99926 11.9069 7.22559 11.9063 7.48967V8.09375H3.73256C3.73286 7.6968 3.7331 7.48778 3.7331 7.48778Z" fill="#272727"/>
</svg>
