<svg width="22" height="21" viewBox="0 0 22 21" fill="none" xmlns="http://www.w3.org/2000/svg">
<path fill-rule="evenodd" clip-rule="evenodd" d="M5.74464 9.52381C5.74464 10.1082 6.21841 10.582 6.80284 10.582C7.38727 10.582 7.86104 10.1082 7.86104 9.52381L7.86104 7.34931H14.2102V9.52381C14.2102 10.1082 14.684 10.582 15.2684 10.582C15.8529 10.582 16.3266 10.1082 16.3266 9.52381V7.35097C16.8885 7.35488 17.3018 7.36787 17.6328 7.41086C18.0631 7.46674 18.2164 7.55872 18.3093 7.64417C18.4021 7.72963 18.5065 7.8747 18.5979 8.29891C18.6954 8.75115 18.7486 9.36563 18.8276 10.3136L19.3713 16.8386C19.4185 17.4042 19.4429 17.7249 19.4306 17.9504C19.4295 17.9716 19.428 17.99 19.4265 18.0058C19.4109 18.0086 19.3927 18.0116 19.3717 18.0145C19.1479 18.0455 18.8264 18.0477 18.2588 18.0477H3.81139C3.24379 18.0477 2.92226 18.0455 2.69851 18.0145C2.67746 18.0116 2.65927 18.0086 2.64365 18.0058C2.64213 17.99 2.64072 17.9716 2.63956 17.9504C2.62726 17.7249 2.6517 17.4042 2.69884 16.8386L3.24259 10.3136C3.32159 9.36563 3.37478 8.75115 3.47224 8.29891C3.56367 7.8747 3.66805 7.72963 3.76093 7.64417C3.8538 7.55872 4.00704 7.46674 4.43738 7.41086C4.76862 7.36785 5.18222 7.35486 5.74464 7.35096L5.74464 9.52381ZM5.74464 5.35067C5.14995 5.35458 4.62526 5.36967 4.17983 5.42751C3.534 5.51137 2.92133 5.69888 2.40671 6.17241C1.89208 6.64593 1.65434 7.24091 1.51713 7.87755C1.38905 8.47183 1.32697 9.21731 1.25474 10.0846L1.2495 10.1476L0.705749 16.6725L0.700877 16.7309C0.660326 17.2165 0.621752 17.6784 0.642528 18.0593C0.665706 18.4843 0.767779 18.9713 1.14674 19.3832C1.5257 19.795 2.00257 19.9372 2.42411 19.9956C2.80197 20.0479 3.26551 20.0478 3.7528 20.0477L3.81139 20.0477H18.2588L18.3174 20.0477C18.8047 20.0478 19.2682 20.0479 19.6461 19.9956C20.0676 19.9372 20.5445 19.795 20.9234 19.3832C21.3024 18.9713 21.4045 18.4843 21.4277 18.0593C21.4484 17.6784 21.4099 17.2165 21.3693 16.731L21.3644 16.6725L20.8207 10.1476L20.8154 10.0847C20.7432 9.21734 20.6811 8.47185 20.553 7.87755C20.4158 7.24091 20.1781 6.64593 19.6635 6.17241C19.1488 5.69888 18.5362 5.51137 17.8903 5.42751C17.4452 5.3697 16.9209 5.3546 16.3266 5.35068V5.29101C16.3266 2.36886 13.9578 0 11.0356 0C8.1135 0 5.74464 2.36886 5.74464 5.29101V5.35067ZM7.86104 5.34931H14.2102V5.29101C14.2102 3.53772 12.7889 2.1164 11.0356 2.1164C9.28236 2.1164 7.86104 3.53772 7.86104 5.29101V5.34931ZM19.4127 18.0901C19.4127 18.09 19.4131 18.0887 19.414 18.0864C19.4132 18.089 19.4128 18.0902 19.4127 18.0901ZM19.5058 17.9866C19.508 17.9855 19.5093 17.985 19.5094 17.9851C19.5095 17.9851 19.5083 17.9856 19.5058 17.9866ZM2.56438 17.9866C2.56213 17.9855 2.56086 17.985 2.56079 17.9851C2.56075 17.9851 2.56104 17.9852 2.56171 17.9855C2.5623 17.9858 2.56319 17.9861 2.56438 17.9866ZM2.65621 18.0864C2.6571 18.0887 2.65747 18.09 2.65743 18.0901C2.65739 18.0902 2.65695 18.089 2.65621 18.0864Z" fill="#5A5A5A"/>
</svg>
