<svg width="44" height="44" viewBox="0 0 44 44" fill="none" xmlns="http://www.w3.org/2000/svg">
<path d="M37.5564 6.44368C33.4012 2.28843 27.8765 0 22 0C16.1235 0 10.5988 2.28843 6.44359 6.44368C2.28843 10.5989 0 16.1236 0 22C0 27.8765 2.28843 33.4012 6.44359 37.5564C10.5988 41.7117 16.1235 44 22 44C27.8765 44 33.4012 41.7117 37.5564 37.5564C37.7741 37.3387 37.9856 37.1163 38.193 36.8912C38.1945 36.8897 38.1958 36.8882 38.1972 36.8866C41.9455 32.8163 44 27.5663 44 22C44 16.1236 41.7116 10.5989 37.5564 6.44368ZM42.2549 21.1373H35.3616C35.2728 17.2932 34.5922 13.6201 33.3916 10.4168C34.829 9.96325 36.169 9.42296 37.3788 8.80335C40.2535 12.1486 42.0572 16.4386 42.2549 21.1373ZM36.145 7.49031C35.0975 7.99528 33.9519 8.43975 32.7308 8.81856C32.3818 8.04899 32.0011 7.31208 31.5881 6.61435C30.697 5.10864 29.6957 3.84287 28.6125 2.83388C31.464 3.82035 34.0285 5.42644 36.145 7.49031ZM22.8627 1.78166C25.5681 2.13271 28.1125 4.1293 30.1033 7.49315C30.441 8.06369 30.7557 8.6631 31.0477 9.28701C28.5139 9.91659 25.7269 10.2812 22.8627 10.3427V1.78166ZM21.1373 1.78166V10.3427C18.273 10.2813 15.4861 9.91659 12.9523 9.28701C13.2443 8.6631 13.559 8.06369 13.8967 7.49315C15.8875 4.1293 18.4318 2.13271 21.1373 1.78166ZM15.3875 2.83379C14.3043 3.84287 13.303 5.10855 12.4119 6.61427C11.9989 7.31199 11.6182 8.04882 11.2692 8.81848C10.0481 8.43966 8.90252 7.99511 7.85503 7.49023C9.9715 5.42644 12.536 3.82035 15.3875 2.83379ZM6.62123 8.80327C7.83088 9.42279 9.17099 9.96316 10.6084 10.4167C9.40784 13.62 8.72721 17.2932 8.63835 21.1373H1.74513C1.94279 16.4386 3.74653 12.1486 6.62123 8.80327ZM1.74513 22.8627H8.63835C8.72721 26.7067 9.40784 30.3799 10.6084 33.5832C9.17099 34.0367 7.83097 34.577 6.62123 35.1966C3.74645 31.8514 1.94279 27.5614 1.74513 22.8627ZM7.85503 36.5097C8.90252 36.0048 10.0481 35.5602 11.2692 35.1815C11.6182 35.951 11.9989 36.688 12.4119 37.3856C13.303 38.8914 14.3043 40.1571 15.3875 41.1662C12.536 40.1796 9.97159 38.5735 7.85503 36.5097ZM21.1373 42.2184C18.4319 41.8674 15.8875 39.8707 13.8967 36.5069C13.559 35.9363 13.2443 35.337 12.9523 34.7131C15.4861 34.0835 18.273 33.7188 21.1373 33.6574V42.2184ZM21.1373 28.9199V31.9315C18.0383 31.9956 15.0154 32.402 12.2725 33.1071C11.1133 30.0678 10.4532 26.5552 10.3641 22.8627H15.0801L15.8485 21.8375L13.9183 21.1373H10.3641C10.4532 17.4449 11.1133 13.9323 12.2725 10.8929C15.0153 11.598 18.0384 12.0044 21.1373 12.0684V15.5782L20.8698 16.8162H23.1303L22.8628 15.5782V12.0684C25.9618 12.0044 28.9847 11.598 31.7276 10.8929C32.8868 13.9323 33.5468 17.4448 33.6359 21.1373H30.0819L28.1516 21.8375L28.9199 22.8627H33.6359C33.5468 26.5552 32.8868 30.0678 31.7276 33.1071C28.9847 32.402 25.9618 31.9956 22.8628 31.9315V28.9199L22 27.989L21.1373 28.9199ZM22.8627 42.2184V33.6574C25.7269 33.7188 28.5139 34.0835 31.0477 34.7131C30.7556 35.3369 30.441 35.9363 30.1033 36.5069C28.1125 39.8706 25.5681 41.8674 22.8627 42.2184ZM28.6125 41.1662C29.6957 40.1571 30.697 38.8914 31.5881 37.3856C32.0011 36.688 32.3818 35.951 32.7308 35.1815C33.9519 35.5602 35.0975 36.0048 36.145 36.5097C34.0285 38.5735 31.464 40.1796 28.6125 41.1662ZM37.3788 35.1966C36.1691 34.577 34.829 34.0368 33.3916 33.5832C34.5922 30.38 35.2728 26.7067 35.3616 22.8627H42.2549C42.0572 27.5614 40.2535 31.8514 37.3788 35.1966Z" fill="#DADADA"/>
<path d="M29.0158 16.0559C27.1627 14.2027 24.1583 14.2027 22.3051 16.0558L22.0001 16.3609L21.6951 16.0559C19.8421 14.2028 16.8377 14.2028 14.9845 16.0559V16.056C13.1315 17.909 13.1315 20.9134 14.9845 22.7665C16.9675 24.7494 19.81 27.5919 22.0001 29.782C24.1904 27.5917 27.0327 24.7494 29.0158 22.7664C30.8688 20.9134 30.8688 17.909 29.0158 16.0559Z" fill="#C73145"/>
</svg>
