<svg width="145" height="135" viewBox="0 0 145 135" fill="none" xmlns="http://www.w3.org/2000/svg">
<path fill-rule="evenodd" clip-rule="evenodd" d="M72.1016 0C63.0177 0 54.7732 3.68754 48.8372 9.65356C42.8711 15.6196 39.1836 23.8341 39.1836 32.918C39.1836 42.002 42.8711 50.2465 48.8372 56.1825C54.8032 62.1485 63.0177 65.8361 72.1016 65.8361C81.1856 65.8361 89.4301 62.1485 95.3661 56.1825C101.332 50.2165 105.02 42.002 105.02 32.918C105.02 23.8341 101.332 15.5896 95.3661 9.65356C89.4301 3.68754 81.1856 0 72.1016 0Z" fill="#272727"/>
<path fill-rule="evenodd" clip-rule="evenodd" d="M72.1323 2.99805C63.8878 2.99805 56.3928 6.35581 50.9964 11.7522C45.6 17.1486 42.2422 24.6436 42.2422 32.8881C42.2422 41.1326 45.6 48.6276 50.9964 54.024C56.3928 59.4204 63.8878 62.7782 72.1323 62.7782C80.3768 62.7782 87.8718 59.4204 93.2682 54.024C94.1376 53.1546 94.947 52.2552 95.6965 51.2958L94.977 50.6663C94.3774 51.3858 93.7478 52.1053 93.0883 52.7649C87.9917 57.8615 80.9764 61.0094 73.2115 61.0094C65.4467 61.0094 58.4314 57.8615 53.3348 52.7649C48.2382 47.6683 45.0903 40.6529 45.0903 32.8881C45.0903 25.1233 48.2382 18.108 53.3348 13.0114C58.4314 7.91477 65.4467 4.76687 73.2115 4.76687C80.9764 4.76687 87.9917 7.91477 93.0883 13.0114C93.7478 13.6709 94.4074 14.3904 95.007 15.1399L95.7265 14.5104C94.977 13.551 94.1676 12.6216 93.2981 11.7522C87.8718 6.35581 80.3768 2.99805 72.1323 2.99805Z" fill="white"/>
<path fill-rule="evenodd" clip-rule="evenodd" d="M53.3033 16.6995L56.1514 17.7188L57.4106 14.9906L57.9502 17.9586L60.9482 17.6588L58.6697 19.6075L60.4086 22.0659L57.5605 21.0466L56.3013 23.7747L55.7617 20.8067L52.7637 21.1065L55.0422 19.1578L53.3033 16.6995ZM68.743 19.4276L76.6877 21.1965L79.1161 13.4316L81.5445 21.1965L89.4892 19.4276L83.9729 25.4236L89.4892 31.4196L81.5445 29.6508L79.1161 37.4156L76.6877 29.6508L68.743 31.4196L74.2593 25.4236L68.743 19.4276ZM66.9442 47.2191L67.5438 44.2811L64.6657 43.4416L67.5138 42.4823L66.7943 39.5742L69.0428 41.5529L71.2314 39.4843L70.6318 42.4223L73.5098 43.2617L70.6617 44.2211L71.3813 47.1292L69.1328 45.1505L66.9442 47.2191ZM99.6524 43.4716L96.6544 43.1718L96.1148 46.1398L94.8856 43.4116L92.0375 44.401L93.7763 41.9726L91.4978 40.0239L94.4958 40.3237L95.0355 37.3557L96.2647 40.0839L99.1128 39.0945L97.3739 41.5529L99.6524 43.4716Z" fill="white"/>
<path fill-rule="evenodd" clip-rule="evenodd" d="M73.2122 10.2839C74.6513 10.134 75.5807 9.38445 75.8505 7.85547C76.0304 9.59431 76.9897 10.3138 78.2789 10.4937C76.7499 10.5837 75.9404 11.4231 75.6406 12.9221C75.4607 11.1833 74.5314 10.4338 73.2122 10.2839ZM92.5493 18.7082C93.4787 19.7875 94.648 20.1473 96.057 19.4877C94.7079 20.627 94.6779 21.7962 95.2775 22.9954C94.3481 21.7962 93.2089 21.5863 91.7699 22.2159C93.059 21.0467 93.1489 19.8775 92.5493 18.7082ZM83.9151 12.1126C85.2642 12.6223 86.4334 12.4124 87.3928 11.1833C86.7332 12.8322 87.2429 13.8814 88.3222 14.6609C86.9431 14.0313 85.8338 14.3911 84.8445 15.5903C85.4741 13.9414 85.0244 12.8621 83.9151 12.1126ZM64.4281 26.623C65.2376 25.4238 65.2975 24.2545 64.3082 23.0254C65.7472 24.0447 66.8865 23.7749 67.9058 22.9054C66.9764 24.1046 67.0663 25.2739 68.0257 26.503C66.5567 25.5137 65.4174 25.7236 64.4281 26.623ZM82.4461 42.4224C81.2769 43.2619 80.7972 44.3411 81.3068 45.8401C80.2875 44.4011 79.1483 44.2512 77.8891 44.7009C79.1783 43.8914 79.4781 42.7822 79.0284 41.2832C80.0477 42.7222 81.1869 42.9321 82.4461 42.4224ZM54.2649 42.4524C53.6053 41.1633 52.586 40.5637 51.057 40.8335C52.616 40.054 52.9458 38.9148 52.6759 37.6256C53.2755 39.0047 54.3548 39.4844 55.8838 39.2445C54.3248 40.054 53.9651 41.1633 54.2649 42.4524ZM61.0703 50.9068C59.9011 50.0673 58.7019 50.0074 57.4727 50.9667C58.4921 49.5277 58.2522 48.3884 57.4128 47.3691C58.612 48.3285 59.7512 48.2385 61.0104 47.3092C59.9911 48.7782 60.2009 49.9174 61.0703 50.9068ZM62.8991 13.6416C64.0983 12.8322 64.578 11.7529 64.0983 10.2539C65.0577 11.7229 66.2269 11.9028 67.4861 11.4531C66.1669 12.2325 65.8372 13.3418 66.2869 14.8408C65.2675 13.4018 64.1283 13.1619 62.8991 13.6416ZM52.1963 31.8095C52.1963 30.3705 51.5967 29.3511 50.0977 28.9014C51.8665 28.9314 52.6759 28.092 53.0057 26.8028C52.8858 28.3018 53.6353 29.2312 55.1043 29.7109C53.3655 29.7109 52.526 30.5204 52.1963 31.8095ZM63.2589 36.6063C62.8991 35.2272 62.0297 34.3878 60.4707 34.3278C62.1796 33.9081 62.7492 32.8588 62.7492 31.5397C63.049 33.0387 63.9784 33.7282 65.5374 33.8182C63.8285 34.2679 63.2289 35.2872 63.2589 36.6063ZM81.8465 54.4744C80.4974 54.984 79.7779 55.9134 79.8678 57.4724C79.2682 55.8235 78.1889 55.3738 76.8698 55.4937C78.3088 55.044 78.9084 54.0547 78.8485 52.4957C79.4781 54.1446 80.5274 54.6543 81.8465 54.4744ZM71.0237 55.2539C69.5847 55.074 68.5054 55.5537 67.8758 56.9927C68.1156 55.2539 67.3661 54.3545 66.137 53.8448C67.636 54.1446 68.6253 53.515 69.2849 52.106C69.075 53.8448 69.7645 54.8042 71.0237 55.2539ZM91.0803 48.7482C90.121 49.8275 89.9111 50.9967 90.7206 52.3158C89.4314 51.1166 88.2622 51.2365 87.1529 51.9561C88.2322 50.9068 88.2922 49.7375 87.5127 48.3884C88.8018 49.5577 89.9711 49.4977 91.0803 48.7482ZM97.1063 28.5717C97.4361 29.9807 98.3055 30.8202 99.8345 30.8801C98.1256 31.2699 97.556 32.2892 97.526 33.6083C97.2562 32.1093 96.3268 31.4198 94.7978 31.2998C96.4767 30.8801 97.1063 29.8908 97.1063 28.5717ZM87.003 33.7582C86.8232 35.1972 87.3328 36.2765 88.7419 36.9061C87.003 36.6663 86.1036 37.4158 85.594 38.6449C85.8638 37.1459 85.2642 36.1566 83.8551 35.497C85.594 35.7069 86.5234 34.9874 87.003 33.7582Z" fill="white"/>
<path d="M23.1449 112.004C22.965 112.094 22.6352 112.184 22.1855 112.184C21.1662 112.184 20.3867 111.524 20.3867 110.325C20.3867 109.186 21.1662 108.406 22.3054 108.406C22.7551 108.406 23.0549 108.496 23.1749 108.556L23.0549 108.946C22.8751 108.856 22.6052 108.796 22.3054 108.796C21.436 108.796 20.8664 109.336 20.8664 110.295C20.8664 111.194 21.3761 111.764 22.2755 111.764C22.5753 111.764 22.8451 111.704 23.0549 111.614L23.1449 112.004Z" fill="#272727"/>
<path d="M28.9613 110.236C28.9613 111.495 28.1818 112.154 27.2524 112.154C26.2931 112.154 25.6035 111.405 25.6035 110.296C25.6035 109.126 26.323 108.377 27.3124 108.377C28.3317 108.377 28.9613 109.156 28.9613 110.236ZM26.1132 110.296C26.1132 111.075 26.5329 111.795 27.2824 111.795C28.0319 111.795 28.4516 111.105 28.4516 110.266C28.4516 109.546 28.0619 108.767 27.2824 108.767C26.5029 108.767 26.1132 109.486 26.1132 110.296Z" fill="#272727"/>
<path d="M31.631 108.676C31.8708 108.526 32.2006 108.406 32.5903 108.406C33.2199 108.406 33.6696 108.736 33.6696 109.306C33.6696 109.755 33.3398 110.085 32.9201 110.205C33.4297 110.265 33.8195 110.595 33.8195 111.134C33.8195 111.884 33.1599 112.214 32.5004 112.214C32.1706 112.214 31.8108 112.154 31.541 111.974L31.6609 111.614C31.8708 111.734 32.1706 111.824 32.4704 111.824C33.01 111.824 33.3098 111.524 33.3098 111.134C33.3098 110.595 32.7702 110.415 32.3205 110.415H32.1106V110.025H32.3205C32.8002 110.025 33.1899 109.725 33.1899 109.336C33.1899 108.976 32.9201 108.766 32.5304 108.766C32.2605 108.766 31.9607 108.886 31.7809 109.006L31.631 108.676Z" fill="#272727"/>
<path d="M37.1152 108.496C37.3251 108.466 37.6549 108.406 37.9847 108.406C38.4643 108.406 38.7641 108.496 39.004 108.676C39.1839 108.826 39.3038 109.036 39.3038 109.336C39.3038 109.695 39.0639 109.995 38.6742 110.145C39.034 110.235 39.4237 110.535 39.4237 111.074C39.4237 111.404 39.3038 111.644 39.1239 111.824C38.8541 112.064 38.4643 112.154 37.8647 112.154C37.535 112.154 37.2951 112.124 37.1452 112.124V108.496H37.1152ZM37.5649 109.995H37.9847C38.4943 109.995 38.7641 109.725 38.7641 109.396C38.7641 108.976 38.4344 108.796 37.9547 108.796C37.7448 108.796 37.6249 108.826 37.535 108.826V109.995H37.5649ZM37.5649 111.764C37.6549 111.794 37.8048 111.794 37.9547 111.794C38.4344 111.794 38.8841 111.614 38.8841 111.074C38.8841 110.565 38.4643 110.355 37.9247 110.355H37.535V111.764H37.5649Z" fill="#272727"/>
<path d="M44.6082 110.386H43.1691V111.705H44.7581V112.095H42.6895V108.438H44.6681V108.827H43.1691V109.996H44.6082V110.386Z" fill="#272727"/>
<path d="M47.8478 108.676C48.0876 108.526 48.4174 108.406 48.8071 108.406C49.4367 108.406 49.8864 108.736 49.8864 109.306C49.8864 109.755 49.5566 110.085 49.1369 110.205C49.6466 110.265 50.0363 110.595 50.0363 111.134C50.0363 111.884 49.3767 112.214 48.7172 112.214C48.3874 112.214 48.0276 112.154 47.7578 111.974L47.8777 111.614C48.0876 111.734 48.3874 111.824 48.6872 111.824C49.2268 111.824 49.5266 111.524 49.5266 111.134C49.5266 110.595 48.987 110.415 48.5373 110.415H48.3274V110.025H48.5373C49.017 110.025 49.4067 109.725 49.4067 109.336C49.4067 108.976 49.1369 108.766 48.7472 108.766C48.4773 108.766 48.1775 108.886 47.9977 109.006L47.8478 108.676Z" fill="#272727"/>
<path d="M55.822 108.436V111.704H56.1518L56.1218 112.963H55.7621L55.7321 112.094H53.4236L53.3937 112.963H53.0339L53.0039 111.704H53.2737C53.4236 111.464 53.5435 111.194 53.6335 110.895C53.7534 110.475 53.8134 109.995 53.8134 109.336V108.406H55.822V108.436ZM54.2031 109.516C54.2031 110.115 54.1432 110.595 54.0232 111.015C53.9333 111.284 53.8434 111.524 53.7234 111.704H55.3424V108.826H54.2031V109.516Z" fill="#272727"/>
<path d="M59.6001 108.438V109.996C59.6001 110.566 59.6001 111.046 59.5701 111.555C59.75 111.166 59.9898 110.776 60.2597 110.356L61.4589 108.467H61.9385V112.125H61.4589V110.566C61.4589 109.966 61.4589 109.547 61.4888 109.067H61.4589C61.279 109.457 61.0391 109.907 60.7693 110.296L59.6601 112.125H59.1504V108.467H59.6001V108.438Z" fill="#272727"/>
<path d="M67.1843 110.386H65.7453V111.705H67.3342V112.095H65.2656V108.438H67.2443V108.827H65.7453V109.996H67.1843V110.386Z" fill="#272727"/>
<path d="M72.4628 108.437V110.026H73.0024C73.0924 109.007 73.692 108.377 74.5614 108.377C75.5207 108.377 76.0904 109.156 76.0904 110.236C76.0904 111.495 75.3708 112.154 74.5014 112.154C73.602 112.154 73.0024 111.495 72.9724 110.416H72.4328V112.094H71.9531V108.437H72.4628ZM75.6107 110.266C75.6107 109.546 75.2809 108.767 74.5314 108.767C73.8119 108.767 73.4521 109.516 73.4521 110.296C73.4521 111.075 73.8419 111.795 74.5314 111.795C75.2209 111.795 75.6107 111.105 75.6107 110.266Z" fill="#272727"/>
<path d="M79.1484 108.496C79.3583 108.466 79.6881 108.406 80.0179 108.406C80.4975 108.406 80.7973 108.496 81.0372 108.676C81.2171 108.826 81.337 109.036 81.337 109.336C81.337 109.695 81.0971 109.995 80.7074 110.145C81.0672 110.235 81.4569 110.535 81.4569 111.074C81.4569 111.404 81.337 111.644 81.1571 111.824C80.8873 112.064 80.4975 112.154 79.8979 112.154C79.5682 112.154 79.3283 112.124 79.1484 112.124V108.496ZM79.6281 109.995H80.0478C80.5575 109.995 80.8273 109.725 80.8273 109.396C80.8273 108.976 80.4975 108.796 80.0179 108.796C79.808 108.796 79.6881 108.826 79.5981 108.826V109.995H79.6281ZM79.6281 111.764C79.7181 111.794 79.868 111.794 80.0179 111.794C80.4975 111.794 80.9472 111.614 80.9472 111.074C80.9472 110.565 80.5275 110.355 79.9879 110.355H79.5981V111.764H79.6281Z" fill="#272727"/>
<path d="M86.6707 110.386H85.2316V111.705H86.8206V112.095H84.752V108.438H86.7306V108.827H85.2316V109.996H86.6707V110.386Z" fill="#272727"/>
<path d="M92.4282 108.438V112.125H91.9485V108.857H90.7493V109.966C90.7493 110.746 90.7193 111.645 90.2097 112.005C90.0598 112.095 89.8499 112.185 89.64 112.185L89.5801 111.795C89.73 111.765 89.8799 111.675 89.9698 111.585C90.2696 111.286 90.2996 110.596 90.2996 109.996V108.438H92.4282Z" fill="#272727"/>
<path d="M96.4751 108.438V109.996C96.4751 110.566 96.4751 111.046 96.4451 111.555C96.625 111.166 96.8648 110.776 97.1347 110.356L98.3339 108.467H98.8135V112.125H98.3339V110.566C98.3339 109.966 98.3338 109.547 98.3638 109.067H98.3339C98.154 109.457 97.9141 109.907 97.6443 110.296L96.5351 112.125H96.0254V108.467H96.4751V108.438Z" fill="#272727"/>
<path d="M102.172 108.497C102.412 108.467 102.712 108.438 103.071 108.438C103.551 108.438 103.881 108.557 104.091 108.737C104.3 108.917 104.42 109.187 104.42 109.517C104.42 109.847 104.33 110.116 104.151 110.296C103.911 110.566 103.491 110.686 103.041 110.686C102.891 110.686 102.771 110.686 102.652 110.656V112.125H102.172V108.497ZM102.652 110.266C102.742 110.296 102.891 110.296 103.041 110.296C103.611 110.296 103.971 110.026 103.971 109.517C103.971 109.037 103.641 108.797 103.101 108.797C102.891 108.797 102.742 108.827 102.652 108.827V110.266Z" fill="#272727"/>
<path d="M108.046 108.438V109.966H109.815V108.438H110.295V112.125H109.815V110.416H108.046V112.125H107.566V108.467H108.046V108.438Z" fill="#272727"/>
<path d="M114.193 108.438V109.817C114.313 109.787 114.522 109.787 114.642 109.787C115.392 109.787 116.051 110.116 116.051 110.926C116.051 111.256 115.931 111.525 115.782 111.705C115.482 112.035 114.972 112.125 114.462 112.125C114.133 112.125 113.893 112.095 113.713 112.095V108.438H114.193ZM114.193 111.735C114.283 111.765 114.402 111.765 114.582 111.765C115.092 111.765 115.542 111.495 115.542 110.956C115.542 110.386 115.062 110.176 114.552 110.176C114.372 110.176 114.223 110.206 114.163 110.206V111.735H114.193ZM116.921 108.438V112.125H116.441V108.467H116.921V108.438Z" fill="#272727"/>
<path d="M122.739 112.124L122.26 111.315C122.08 111.015 121.96 110.805 121.84 110.595C121.75 110.805 121.63 111.015 121.45 111.315L121.001 112.124H120.461L121.57 110.266L120.491 108.467H121.031L121.51 109.336C121.66 109.576 121.75 109.756 121.84 109.966H121.87C121.96 109.756 122.08 109.576 122.2 109.336L122.709 108.467H123.249L122.14 110.266L123.279 112.154H122.739V112.124Z" fill="#272727"/>
<path d="M55.4937 116.053V116.442H53.9048V117.432C54.0247 117.402 54.2346 117.402 54.3545 117.402C54.7142 117.402 55.044 117.492 55.3138 117.642C55.5837 117.822 55.7935 118.121 55.7935 118.541C55.7935 118.871 55.6736 119.141 55.4937 119.321C55.1939 119.62 54.7142 119.74 54.2046 119.74C53.8748 119.74 53.635 119.71 53.4551 119.71V116.053H55.4937ZM53.9048 119.351C54.0247 119.381 54.1446 119.381 54.2945 119.381C54.5943 119.381 54.8941 119.291 55.074 119.111C55.1939 118.991 55.2839 118.811 55.2839 118.571C55.2839 118.301 55.1639 118.091 54.9841 117.971C54.8042 117.852 54.5344 117.792 54.2945 117.792C54.1746 117.792 54.0247 117.792 53.9048 117.822V119.351Z" fill="#272727"/>
<path d="M59.1504 116.113C59.3902 116.083 59.69 116.053 60.0498 116.053C60.5295 116.053 60.8593 116.173 61.0691 116.353C61.279 116.532 61.3989 116.802 61.3989 117.132C61.3989 117.462 61.309 117.732 61.1291 117.911C60.8892 118.181 60.4695 118.301 60.0198 118.301C59.8699 118.301 59.75 118.301 59.6301 118.271V119.74H59.1504V116.113ZM59.6301 117.882C59.72 117.911 59.8699 117.911 60.0198 117.911C60.5894 117.911 60.9492 117.642 60.9492 117.132C60.9492 116.652 60.6194 116.412 60.0798 116.412C59.8699 116.412 59.72 116.442 59.6301 116.442V117.882Z" fill="#272727"/>
<path d="M66.4676 118.001H65.0285V119.321H66.6175V119.71H64.5488V116.053H66.5275V116.442H65.0285V117.612H66.4676V118.001Z" fill="#272727"/>
<path d="M70.3039 116.053V117.582H72.0727V116.053H72.5524V119.71H72.0727V118.001H70.3039V119.71H69.8242V116.053H70.3039Z" fill="#272727"/>
<path d="M78.4861 116.053V119.321H78.8159L78.7859 120.58H78.4261L78.3962 119.711H76.0877L76.0577 120.58H75.698L75.668 119.321H75.9378C76.0877 119.081 76.2076 118.812 76.2976 118.512C76.4175 118.092 76.4774 117.612 76.4774 116.953V116.023H78.4861V116.053ZM76.8672 117.133C76.8672 117.732 76.8072 118.212 76.6873 118.632C76.5973 118.902 76.5074 119.141 76.3875 119.321H78.0064V116.443H76.8672V117.133Z" fill="#272727"/>
<path d="M84.932 117.853C84.932 119.112 84.1525 119.772 83.2231 119.772C82.2638 119.772 81.5742 119.022 81.5742 117.913C81.5742 116.744 82.2937 115.994 83.2831 115.994C84.3024 115.994 84.932 116.774 84.932 117.853ZM82.0839 117.913C82.0839 118.692 82.5036 119.412 83.2531 119.412C84.0026 119.412 84.4223 118.722 84.4223 117.883C84.4223 117.163 84.0326 116.384 83.2531 116.384C82.4736 116.384 82.0839 117.103 82.0839 117.913Z" fill="#272727"/>
<path d="M87.752 116.113C87.9618 116.083 88.2916 116.023 88.6214 116.023C89.1011 116.023 89.4008 116.113 89.6407 116.293C89.8206 116.443 89.9405 116.653 89.9405 116.953C89.9405 117.313 89.7006 117.612 89.3109 117.762C89.6707 117.852 90.0604 118.152 90.0604 118.692C90.0604 119.021 89.9405 119.261 89.7606 119.441C89.4908 119.681 89.1011 119.771 88.5015 119.771C88.1717 119.771 87.9318 119.741 87.752 119.741V116.113ZM88.2316 117.612H88.6514C89.161 117.612 89.4308 117.343 89.4308 117.013C89.4308 116.593 89.1011 116.413 88.6214 116.413C88.4115 116.413 88.2916 116.443 88.2017 116.443V117.612H88.2316ZM88.2316 119.381C88.3216 119.411 88.4715 119.411 88.6214 119.411C89.1011 119.411 89.5508 119.231 89.5508 118.692C89.5508 118.182 89.131 117.972 88.5914 117.972H88.2017V119.381H88.2316Z" fill="#272727"/>
<path d="M63.3457 134.939V134.64L63.7354 134.28C64.6348 133.41 65.0546 132.961 65.0546 132.421C65.0546 132.061 64.8747 131.732 64.365 131.732C64.0353 131.732 63.7654 131.881 63.6155 132.031L63.4656 131.702C63.7055 131.492 64.0652 131.342 64.455 131.342C65.2045 131.342 65.5342 131.851 65.5342 132.361C65.5342 133.021 65.0546 133.53 64.3051 134.25L64.0352 134.52H65.6242V134.909H63.3457V134.939Z" fill="#272727"/>
<path d="M70.6328 133.141C70.6328 134.34 70.1831 134.999 69.4036 134.999C68.7141 134.999 68.2344 134.34 68.2344 133.171C68.2344 131.971 68.744 131.342 69.4636 131.342C70.1831 131.342 70.6328 132.031 70.6328 133.141ZM68.7141 133.201C68.7141 134.13 68.9839 134.64 69.4336 134.64C69.9133 134.64 70.1531 134.07 70.1531 133.171C70.1531 132.301 69.9432 131.732 69.4336 131.732C69.0139 131.732 68.7141 132.241 68.7141 133.201Z" fill="#272727"/>
<path d="M74.8308 131.854L74.2013 132.184L74.1113 131.824L74.8908 131.404H75.3105V134.942H74.8608V131.854H74.8308Z" fill="#272727"/>
<path d="M79.4461 131.854L78.8165 132.184L78.7266 131.824L79.506 131.404H79.9258V134.942H79.4461V131.854Z" fill="#272727"/>
<path fill-rule="evenodd" clip-rule="evenodd" d="M16.2192 95.487V98.3651C15.1699 98.9047 14.0906 99.3244 13.0113 99.5943C11.932 99.8641 10.8528 100.014 9.77348 100.014C8.75416 100.014 7.76482 99.8641 6.83544 99.6242C5.90606 99.3544 5.03664 98.9647 4.1972 98.425C2.87808 97.5556 1.82878 96.4464 1.10926 95.0973C0.359759 93.7482 0 92.2791 0 90.6902C0 89.491 0.239838 88.3218 0.719518 87.1825C1.1992 86.0433 1.88874 85.054 2.78814 84.2145C3.7475 83.3151 4.82678 82.6256 5.996 82.2059C7.1952 81.7562 8.48434 81.5463 9.92338 81.5463C10.9427 81.5463 11.932 81.6662 12.9214 81.8761C13.9107 82.1159 14.93 82.4757 16.0393 82.9554V85.7435C14.9001 85.1139 13.8508 84.6642 12.8314 84.3644C11.8421 84.0646 10.8827 83.9147 9.92338 83.9147C7.82478 83.9147 6.11592 84.5743 4.73684 85.8634C3.35776 87.1526 2.6982 88.8015 2.6982 90.7502C2.6982 92.6989 3.35776 94.2878 4.70686 95.6069C6.05596 96.8961 7.73484 97.5556 9.77348 97.5556C10.8228 97.5556 11.8721 97.3757 12.9214 97.046C14.0306 96.7162 15.1099 96.1765 16.2192 95.487ZM132.602 92.1592H138.178L135.36 85.7135L132.602 92.1592ZM127.715 97.4057L134.46 81.8461H136.319L144.174 99.7142H141.536L139.227 94.4677H131.612L129.334 99.7142H127.115H126.725H116.083V81.8461H118.631V97.4057H127.115H127.715ZM102.861 99.7142V81.8461H105.41V97.4057H113.924V99.7142H102.861ZM88.5609 99.7142V81.8461H99.3238V84.1246H91.1092V89.551H99.0839V91.8594H91.1092V97.4357H99.5936V99.7442H88.5609V99.7142ZM77.3484 99.7142V84.1845H70.7828V81.8461H86.4623V84.1845H79.8967V99.7142H77.3484ZM59.5403 98.3051V94.9474C60.3498 95.8767 61.1292 96.5363 61.8488 96.956C62.5983 97.3757 63.3777 97.5556 64.2172 97.5556C65.1166 97.5556 65.8061 97.3458 66.3158 96.926C66.8254 96.5063 67.0953 95.9667 67.0953 95.2472C67.0953 94.6775 66.9154 94.1679 66.5856 93.7182C66.2558 93.2685 65.4164 92.6389 64.1272 91.8294C62.0886 90.5403 60.8294 89.521 60.3198 88.8015C59.8101 88.0819 59.5403 87.2425 59.5403 86.2532C59.5403 84.8741 60.02 83.7348 61.0093 82.8354C61.9987 81.936 63.2578 81.4863 64.8168 81.4863C65.5063 81.4863 66.1959 81.5763 66.8554 81.7861C67.515 81.996 68.2045 82.2958 68.8641 82.7155V85.6236C68.0846 84.994 67.3651 84.5443 66.7055 84.2445C66.046 83.9747 65.3864 83.8248 64.7268 83.8248C63.9174 83.8248 63.2578 84.0346 62.7781 84.4244C62.2685 84.8141 62.0286 85.3238 62.0286 85.9534C62.0286 86.8528 63.0779 87.932 65.1765 89.2512L65.5663 89.491C67.2751 90.5403 68.4144 91.4997 68.924 92.3091C69.4637 93.1186 69.7035 94.1379 69.7035 95.3371C69.7035 96.6862 69.2238 97.8254 68.2345 98.7248C67.2452 99.6242 65.986 100.074 64.427 100.074C63.4677 100.074 62.5983 99.924 61.8188 99.6542C61.0093 99.3544 60.2598 98.9047 59.5403 98.3051ZM40.1132 99.7142V81.8461H42.3318L54.1139 95.7268V81.8461H56.6622V99.7142H54.3837L42.6615 85.8334V99.7142H40.1132ZM20.8961 90.8101C20.8961 91.7095 21.0759 92.5789 21.4057 93.4184C21.7355 94.2278 22.2452 94.9773 22.8747 95.6069C23.5043 96.2365 24.2238 96.7462 25.0633 97.0759C25.9027 97.4057 26.7721 97.5856 27.7015 97.5856C28.6309 97.5856 29.5303 97.4057 30.3398 97.0759C31.1492 96.7462 31.8987 96.2365 32.5283 95.5769C33.1579 94.9474 33.6675 94.1979 33.9973 93.3884C34.3271 92.5789 34.507 91.6795 34.507 90.7801C34.507 89.8807 34.3271 89.0113 33.9973 88.2019C33.6675 87.3924 33.1579 86.6429 32.4983 85.9833C31.8687 85.3238 31.1192 84.8141 30.3098 84.4843C29.5003 84.1545 28.6009 83.9747 27.7015 83.9747C26.8021 83.9747 25.9627 84.1545 25.1232 84.4843C24.2838 84.8441 23.5343 85.3238 22.8747 85.9833C22.2452 86.6129 21.7355 87.3324 21.4057 88.1719C21.0759 89.0113 20.8961 89.8807 20.8961 90.8101ZM18.1679 90.6902C18.1679 89.491 18.4077 88.3518 18.8874 87.2125C19.3671 86.0733 20.0566 85.0839 20.956 84.2445C21.8554 83.3751 22.9047 82.7155 24.044 82.2358C25.1832 81.7861 26.4124 81.5463 27.6715 81.5463C28.9607 81.5463 30.1899 81.7861 31.3591 82.2358C32.5283 82.6855 33.5476 83.3751 34.417 84.2445C35.3464 85.1439 36.036 86.1632 36.5156 87.2725C36.9953 88.3817 37.2052 89.5809 37.2052 90.8701C37.2052 92.0993 36.9654 93.2685 36.4857 94.3777C36.006 95.487 35.3164 96.4763 34.447 97.3458C33.5176 98.2452 32.4983 98.9047 31.3291 99.3544C30.1899 99.8041 28.9607 100.044 27.6715 100.044C26.4124 100.044 25.1832 99.8041 24.014 99.3544C22.8448 98.8747 21.8254 98.2152 20.956 97.3757C20.0266 96.4763 19.3371 95.457 18.8574 94.3478C18.4077 93.1785 18.1679 91.9793 18.1679 90.6902Z" fill="#272727"/>
<path d="M92.9091 126.096H51.2969V126.366H92.9091V126.096Z" fill="#272727"/>
</svg>
