<svg width="16" height="19" viewBox="0 0 16 19" fill="none" xmlns="http://www.w3.org/2000/svg">
<path d="M0 16.2378C0 17.8271 0.820312 18.6475 2.3877 18.6475H9.24316C10.8105 18.6475 11.6309 17.8198 11.6309 16.2378V14.8828H12.876C14.4434 14.8828 15.2637 14.0552 15.2637 12.4731V6.67969C15.2637 5.71289 15.0586 5.09766 14.48 4.50439L10.8325 0.783691C10.2759 0.219727 9.6167 0 8.77441 0H6.02051C4.45312 0 3.63281 0.827637 3.63281 2.41699V3.76465H2.3877C0.820312 3.76465 0 4.59961 0 6.18164V16.2378ZM10.8911 8.53271L6.92139 4.50439C6.36475 3.94043 5.88867 3.78662 5.09033 3.77197V2.50488C5.09033 1.83838 5.44189 1.46484 6.14502 1.46484H9.19922V4.94385C9.19922 5.85205 9.68262 6.32812 10.5835 6.32812H13.7988V12.3779C13.7988 13.0518 13.4473 13.4253 12.7441 13.4253H11.6309V10.6128C11.6309 9.62402 11.5063 9.1626 10.8911 8.53271ZM10.4077 4.76074V2.05811L13.418 5.11963H10.7666C10.5103 5.11963 10.4077 5.01709 10.4077 4.76074ZM1.45752 16.1426V6.27686C1.45752 5.60303 1.80908 5.22949 2.51953 5.22949H4.75342V9.21387C4.75342 10.2759 5.27344 10.7886 6.32812 10.7886H10.1733V16.1426C10.1733 16.8164 9.82178 17.1899 9.11133 17.1899H2.51221C1.80908 17.1899 1.45752 16.8164 1.45752 16.1426ZM6.46729 9.50684C6.16699 9.50684 6.03516 9.38232 6.03516 9.07471V5.50781L9.97559 9.50684H6.46729Z" fill="#2E3338"/>
</svg>
