<svg width="18" height="20" viewBox="0 0 18 20" fill="none" xmlns="http://www.w3.org/2000/svg">
<path fill-rule="evenodd" clip-rule="evenodd" d="M9 0C8.52679 0 8.06191 0.124366 7.65193 0.360619L4.77607 2.00396C4.58621 2.04129 4.40909 2.13934 4.27594 2.28975L1.35347 3.95973L1.35 3.96173C1.01553 4.15484 0.727271 4.41692 0.503778 4.72945C0.451159 4.78279 0.404391 4.84361 0.365129 4.91148C0.331558 4.96952 0.305191 5.02974 0.28575 5.09111C0.0985867 5.46489 0.000430262 5.87774 0 6.29723V13.4991C0.000485641 13.9726 0.125473 14.4376 0.362423 14.8475C0.599373 15.2574 0.939954 15.5978 1.35 15.8346L1.35347 15.8366L7.65 19.4346L7.65166 19.4355C7.93639 19.5997 8.2476 19.7098 8.5697 19.7618C8.69714 19.831 8.84315 19.8702 8.99835 19.8702C9.15297 19.8702 9.29849 19.8312 9.4256 19.7626C9.74939 19.7109 10.0623 19.6004 10.3484 19.4355L10.35 19.4346L16.6465 15.8366L16.65 15.8346C17.06 15.5978 17.4006 15.2574 17.6376 14.8475C17.8745 14.4376 17.9995 13.9726 18 13.4991V6.29723C17.9996 5.8824 17.9036 5.47405 17.7204 5.10357C17.7007 5.03788 17.6731 4.97344 17.6372 4.91148C17.5959 4.84004 17.5463 4.77641 17.4902 4.72111C17.2676 4.41226 16.9815 4.15312 16.65 3.96172L10.35 0.361731L10.3481 0.360648C9.93813 0.124377 9.47322 0 9 0ZM9.89835 17.6195L15.75 14.2757L15.7514 14.2749C15.8875 14.196 16.0005 14.0829 16.0792 13.9467C16.1582 13.8101 16.1998 13.6551 16.2 13.4972V6.7826L9.89835 10.4279V17.6195ZM8.09835 10.4246L1.8 6.78124V13.4976C1.80023 13.6553 1.84189 13.8102 1.92081 13.9467C1.99952 14.0829 2.11253 14.196 2.24858 14.2749L2.25 14.2757L8.09835 17.6176V10.4246ZM9.45 1.92058L15.2655 5.24371L13.0549 6.52245L6.80449 2.91803L8.54653 1.92258L8.55 1.92058C8.68682 1.84159 8.84202 1.8 9 1.8C9.15798 1.8 9.31318 1.84159 9.45 1.92058ZM9.00117 8.8674L11.2561 7.56299L4.99466 3.95221L2.73569 5.24304L9.00117 8.8674Z" fill="#464A4F"/>
</svg>
