<svg width="24" height="13" viewBox="0 0 24 13" fill="none" xmlns="http://www.w3.org/2000/svg">
<path d="M23.3084 5.78576C23.2637 5.72601 22.1885 4.30621 20.2352 2.88569C17.6395 0.997831 14.7009 0 11.7369 0C8.773 0 5.83427 0.997831 3.23857 2.88561C1.28519 4.30621 0.210058 5.72601 0.165324 5.78576C-0.055108 6.07962 -0.055108 6.48373 0.165324 6.77759C0.210058 6.83734 1.28519 8.25715 3.23857 9.67774C5.83435 11.5655 8.773 12.5634 11.7369 12.5634C14.7009 12.5634 17.6396 11.5655 20.2352 9.67766C22.1885 8.25707 23.2636 6.83726 23.3084 6.77759C23.5288 6.48373 23.5288 6.07954 23.3084 5.78576ZM16.3656 6.28164C16.3656 8.83387 14.2892 10.9103 11.737 10.9103C9.18478 10.9103 7.10834 8.83387 7.10834 6.28164C7.10834 3.7294 9.1847 1.65304 11.7369 1.65304C14.2892 1.65304 16.3656 3.7294 16.3656 6.28164ZM1.90886 6.28156C2.61513 5.50202 4.18748 3.96754 6.46064 2.87937C5.82566 3.8606 5.45522 5.02836 5.45522 6.28164C5.45522 7.53942 5.82819 8.71105 6.46743 9.6945C5.71359 9.33362 4.97539 8.89283 4.25481 8.3727C3.15637 7.57981 2.35803 6.7779 1.90886 6.28156ZM19.219 8.3727C18.4984 8.89283 17.7602 9.33346 17.0065 9.6945C17.6457 8.71113 18.0187 7.53934 18.0187 6.28164C18.0187 5.02393 17.6457 3.85222 17.0065 2.86878C17.7602 3.22973 18.4984 3.67044 19.219 4.19058C20.3173 4.98347 21.1157 5.78537 21.5648 6.28164C21.1154 6.77822 20.3172 7.57997 19.219 8.3727Z" fill="#272727"/>
<path d="M11.7368 7.64551C12.49 7.64551 13.1006 7.03493 13.1006 6.28174C13.1006 5.52855 12.49 4.91797 11.7368 4.91797C10.9836 4.91797 10.373 5.52855 10.373 6.28174C10.373 7.03493 10.9836 7.64551 11.7368 7.64551Z" fill="#272727"/>
</svg>
