<svg width="21" height="15" viewBox="0 0 21 15" fill="none" xmlns="http://www.w3.org/2000/svg">
<path d="M20.9207 7.14242C19.1646 3.38656 15.1713 0 10.5 0C5.24391 0 1.46583 4.17692 0.0793076 7.14242C-0.0264359 7.36865 -0.0264359 7.63135 0.0793076 7.85758C1.83545 11.6134 5.8287 15 10.5 15C15.7561 15 19.5342 10.8229 20.9207 7.85758C21.0264 7.63135 21.0264 7.36865 20.9207 7.14242ZM10.5 13.3333C6.72079 13.3333 3.58743 10.8032 1.74941 7.5C3.57973 4.21029 6.71118 1.66667 10.5 1.66667C14.2789 1.66667 17.4126 4.19645 19.2506 7.5C17.4203 10.7896 14.2888 13.3333 10.5 13.3333ZM10.5 3.33333C8.23837 3.33333 6.39844 5.20247 6.39844 7.5C6.39844 9.79753 8.23837 11.6667 10.5 11.6667C12.7616 11.6667 14.6016 9.79753 14.6016 7.5C14.6016 5.20247 12.7616 3.33333 10.5 3.33333ZM10.5 10C9.14312 10 8.03906 8.87842 8.03906 7.5C8.03906 6.12142 9.14312 5 10.5 5C11.857 5 12.9609 6.12142 12.9609 7.5C12.9609 8.87842 11.857 10 10.5 10Z" fill="white" fill-opacity="0.6"/>
</svg>
