<svg width="22" height="21" viewBox="0 0 22 21" fill="none" xmlns="http://www.w3.org/2000/svg">
<path d="M15.95 0C14.08 0 12.21 0.88 11 2.31C9.79 0.88 7.92 0 6.05 0C2.64 0 0 2.64 0 6.05C0 10.23 3.74 13.64 9.46 18.7L11 20.13L12.54 18.7C18.15 13.53 22 10.12 22 6.05C22 2.64 19.36 0 15.95 0ZM11.11 17.16H11L10.89 17.05C5.61 12.32 2.2 9.24 2.2 6.05C2.2 3.85 3.85 2.2 6.05 2.2C7.7 2.2 9.35 3.3 10.01 4.84H12.1C12.65 3.3 14.3 2.2 15.95 2.2C18.15 2.2 19.8 3.85 19.8 6.05C19.8 9.24 16.39 12.32 11.11 17.16Z" fill="#C73145"/>
<path d="M8 16.0654L2 8.56543L1.5 5.06543L3 1.56543L5.5 1.06543L8.5 1.56543L10.5 3.56543H12L14.5 0.56543L17 1.56543L20 3.06543L21 6.06543L19 11.0654L11 18.5654L8 16.0654Z" fill="#C73145"/>
</svg>
