<svg width="23" height="21" viewBox="0 0 23 21" fill="none" xmlns="http://www.w3.org/2000/svg">
<path d="M16.5867 0C14.7167 0 12.8467 0.88 11.6367 2.31C10.4267 0.88 8.55672 0 6.68672 0C3.27672 0 0.636719 2.64 0.636719 6.05C0.636719 10.23 4.37672 13.64 10.0967 18.7L11.6367 20.13L13.1767 18.7C18.7867 13.53 22.6367 10.12 22.6367 6.05C22.6367 2.64 19.9967 0 16.5867 0ZM11.7467 17.16H11.6367L11.5267 17.05C6.24672 12.32 2.83672 9.24 2.83672 6.05C2.83672 3.85 4.48672 2.2 6.68672 2.2C8.33672 2.2 9.98672 3.3 10.6467 4.84H12.7367C13.2867 3.3 14.9367 2.2 16.5867 2.2C18.7867 2.2 20.4367 3.85 20.4367 6.05C20.4367 9.24 17.0267 12.32 11.7467 17.16Z" fill="#5A5A5A"/>
</svg>
