<svg width="20" height="20" viewBox="0 0 20 20" fill="none" xmlns="http://www.w3.org/2000/svg">
<path d="M19.4092 6.64013C19.4092 6.64013 19.4092 6.64013 19.4092 6.59013C18.7046 4.66635 17.4261 3.00541 15.7467 1.83199C14.0673 0.658569 12.068 0.0292969 10.0192 0.0292969C7.97047 0.0292969 5.97115 0.658569 4.29173 1.83199C2.6123 3.00541 1.33382 4.66635 0.629219 6.59013C0.629219 6.59013 0.629219 6.59013 0.629219 6.64013C-0.157656 8.81102 -0.157656 11.1892 0.629219 13.3601C0.629219 13.3601 0.629219 13.3601 0.629219 13.4101C1.33382 15.3339 2.6123 16.9948 4.29173 18.1683C5.97115 19.3417 7.97047 19.971 10.0192 19.971C12.068 19.971 14.0673 19.3417 15.7467 18.1683C17.4261 16.9948 18.7046 15.3339 19.4092 13.4101C19.4092 13.4101 19.4092 13.4101 19.4092 13.3601C20.1961 11.1892 20.1961 8.81102 19.4092 6.64013ZM2.25922 12.0001C1.91245 10.6893 1.91245 9.31091 2.25922 8.00013H4.11922C3.95925 9.32866 3.95925 10.6716 4.11922 12.0001H2.25922ZM3.07922 14.0001H4.47922C4.71394 14.892 5.04943 15.7542 5.47922 16.5701C4.49852 15.9021 3.67872 15.0242 3.07922 14.0001ZM4.47922 6.00013H3.07922C3.67009 4.97921 4.47941 4.10159 5.44922 3.43013C5.02977 4.24737 4.70436 5.10954 4.47922 6.00013ZM8.99922 17.7001C7.77098 16.7988 6.90837 15.4854 6.56922 14.0001H8.99922V17.7001ZM8.99922 12.0001H6.13922C5.95261 10.6733 5.95261 9.32693 6.13922 8.00013H8.99922V12.0001ZM8.99922 6.00013H6.56922C6.90837 4.51489 7.77098 3.20144 8.99922 2.30013V6.00013ZM16.9192 6.00013H15.5192C15.2845 5.10828 14.949 4.24606 14.5192 3.43013C15.4999 4.0982 16.3197 4.97607 16.9192 6.00013ZM10.9992 2.30013C12.2275 3.20144 13.0901 4.51489 13.4292 6.00013H10.9992V2.30013ZM10.9992 17.7001V14.0001H13.4292C13.0901 15.4854 12.2275 16.7988 10.9992 17.7001ZM13.8592 12.0001H10.9992V8.00013H13.8592C14.0458 9.32693 14.0458 10.6733 13.8592 12.0001ZM14.5492 16.5701C14.979 15.7542 15.3145 14.892 15.5492 14.0001H16.9492C16.3497 15.0242 15.5299 15.9021 14.5492 16.5701ZM17.7392 12.0001H15.8792C15.9605 11.3366 16.0006 10.6686 15.9992 10.0001C16.0003 9.33163 15.9602 8.6637 15.8792 8.00013H17.7392C18.086 9.31091 18.086 10.6893 17.7392 12.0001Z" fill="black"/>
</svg>
