<svg width="21" height="20" viewBox="0 0 21 20" fill="none" xmlns="http://www.w3.org/2000/svg">
<path d="M19.9995 7.67015C19.9363 7.48723 19.8215 7.32657 19.6688 7.20765C19.5162 7.08872 19.3323 7.01664 19.1395 7.00014L13.4495 6.17015L10.8995 1.00015C10.8176 0.831074 10.6898 0.688487 10.5306 0.588719C10.3714 0.48895 10.1873 0.436035 9.99949 0.436035C9.81163 0.436035 9.62757 0.48895 9.4684 0.588719C9.30923 0.688487 9.18137 0.831074 9.09949 1.00015L6.54949 6.16014L0.859489 7.00014C0.674412 7.02645 0.500413 7.10411 0.357239 7.2243C0.214065 7.3445 0.107449 7.50242 0.0494892 7.68015C-0.00356587 7.85382 -0.00832693 8.03866 0.0357169 8.21484C0.0797607 8.39101 0.170947 8.55187 0.299489 8.68015L4.42949 12.6801L3.42949 18.3601C3.39379 18.5476 3.41248 18.7414 3.48336 18.9186C3.55424 19.0958 3.67434 19.249 3.82949 19.3601C3.98071 19.4683 4.15906 19.5321 4.34454 19.5444C4.53001 19.5568 4.71526 19.5172 4.87949 19.4301L9.99949 16.7601L15.0995 19.4401C15.2398 19.5193 15.3983 19.5607 15.5595 19.5601C15.7713 19.5609 15.9779 19.4944 16.1495 19.3701C16.3046 19.259 16.4247 19.1058 16.4956 18.9286C16.5665 18.7514 16.5852 18.5576 16.5495 18.3701L15.5495 12.6901L19.6795 8.69014C19.8239 8.56782 19.9306 8.40705 19.9872 8.22649C20.0439 8.04594 20.0481 7.85302 19.9995 7.67015ZM13.8495 11.6701C13.7322 11.7836 13.6445 11.924 13.5939 12.0791C13.5434 12.2343 13.5316 12.3994 13.5595 12.5601L14.2795 16.7501L10.5195 14.7501C10.3748 14.6731 10.2134 14.6328 10.0495 14.6328C9.88557 14.6328 9.72417 14.6731 9.57949 14.7501L5.81949 16.7501L6.53949 12.5601C6.56742 12.3994 6.5556 12.2343 6.50505 12.0791C6.45451 11.924 6.36677 11.7836 6.24949 11.6701L3.24949 8.67015L7.45949 8.06015C7.62149 8.03761 7.77549 7.97569 7.90799 7.8798C8.04049 7.78391 8.14745 7.65698 8.21949 7.51015L9.99949 3.70015L11.8795 7.52015C11.9515 7.66698 12.0585 7.79391 12.191 7.8898C12.3235 7.98569 12.4775 8.04761 12.6395 8.07014L16.8495 8.68015L13.8495 11.6701Z" fill="black"/>
</svg>
