<svg width="177" height="76" viewBox="0 0 177 76" fill="none" xmlns="http://www.w3.org/2000/svg">
<path d="M38.8 39.9002C38.8 40.5002 38.6 41.0002 38.2 41.3002C37.8 41.6002 37.3 41.8002 36.7 41.8002C36.6 41.8002 36.3 41.8002 36.1 41.8002C35.8 41.8002 35.6 41.7002 35.5 41.7002V40.8002H35.6C35.7 40.8002 35.9 40.9002 36.1 40.9002C36.3 41.0002 36.5 41.0002 36.7 41.0002C37 41.0002 37.2 41.0002 37.4 40.9002C37.6 40.8002 37.7 40.7002 37.8 40.6002C37.9 40.5002 37.9 40.3002 38 40.1002C38 39.9002 38 39.7002 38 39.5002V35.4002H36.5V34.7002H38.9V39.9002H38.8Z" fill="#2B2422"/>
<path d="M51.6001 41.7002V34.7002H56.0001V35.5002H52.5001V37.4002H55.7001V38.3002H52.5001V40.9002H56.0001V41.7002H51.6001Z" fill="#2B2422"/>
<path d="M76.2999 34.7002L74.4999 41.7002H73.4999L72.0999 35.9002L70.6999 41.7002H69.6999L67.8999 34.7002H68.7999L70.1999 40.5002L71.5999 34.7002H72.5999L73.9999 40.6002L75.3999 34.7002H76.2999Z" fill="#2B2422"/>
<path d="M88.6001 41.7002V34.7002H93.0001V35.5002H89.5001V37.4002H92.7001V38.3002H89.5001V40.9002H93.0001V41.7002H88.6001Z" fill="#2B2422"/>
<path d="M109.5 41.7002H105.5V34.7002H106.4V40.9002H109.5V41.7002Z" fill="#2B2422"/>
<path d="M127.1 41.7002H125.9L123.7 38.9002H122.6V41.7002H121.7V34.7002H123.5C123.9 34.7002 124.2 34.7002 124.5 34.8002C124.8 34.8002 125 34.9002 125.3 35.1002C125.5 35.3002 125.7 35.5002 125.9 35.7002C126 35.9002 126.1 36.3002 126.1 36.6002C126.1 37.1002 126 37.5002 125.7 37.9002C125.4 38.2002 125.1 38.5002 124.6 38.7002L127.1 41.7002ZM125.1 36.7002C125.1 36.5002 125.1 36.3002 125 36.2002C124.9 36.0002 124.8 35.9002 124.7 35.8002C124.6 35.7002 124.4 35.7002 124.2 35.6002C124 35.6002 123.8 35.5002 123.5 35.5002H122.6V38.1002H123.4C123.7 38.1002 123.9 38.1002 124.1 38.0002C124.3 38.0002 124.5 37.9002 124.6 37.7002C124.7 37.6002 124.8 37.4002 124.9 37.2002C125.1 37.1002 125.1 36.9002 125.1 36.7002Z" fill="#2B2422"/>
<path d="M144 34.7002L141.7 38.6002V41.7002H140.7V38.7002L138.4 34.7002H139.4L141.2 37.8002L143 34.7002H144Z" fill="#2B2422"/>
<path d="M37.2 0.600002H38.6L40.8 8.9L39.1 9.5C37.9 6.9 36.6 5 35.1 3.9C33.6 2.8 31.9 2.2 30 2.2C27.3 2.2 25 3.3 23.1 5.6C21.2 7.9 20.3 10.6 20.3 13.7C20.3 16 20.8 18 21.7 19.9C22.6 21.8 23.9 23.2 25.5 24.2C27.1 25.2 28.8 25.7 30.5 25.7C31.6 25.7 32.7 25.5 33.8 25.1C34.8 24.7 35.7 24.2 36.3 23.6C36.8 23.2 37.1 22.7 37.3 22.2C37.5 21.7 37.5 20.9 37.5 20V18.7C37.5 17.7 37.4 17 37.1 16.5C36.9 16.1 36.5 15.8 36.1 15.6C35.8 15.5 34.9 15.4 33.4 15.4V13.8H44.3V15.4H43.4C42.6 15.4 42.1 15.5 41.8 15.6C41.5 15.7 41.3 16 41.2 16.3C41.1 16.6 41 17.2 41 18.1V27.4H39.1L38.1 25C37 25.8 35.9 26.4 34.6 26.8C32.8 27.5 31 27.8 29.2 27.8C25.6 27.8 22.5 26.5 19.9 23.8C17.3 21.1 16 17.8 16 13.9C16 10 17.3 6.7 19.9 4C22.5 1.3 25.6 0 29.3 0C30.2 0 31.1 0.0999992 32 0.299999C32.9 0.499999 33.7 0.700002 34.4 1.1C35 1.3 35.6 1.7 36.3 2.3L37.2 0.600002Z" fill="#2B2422"/>
<path d="M47.2002 0.599609H69.1002L71.6002 7.69961L69.9002 8.29961C69.5002 7.09961 69.0002 6.19961 68.5002 5.59961C68.0002 4.89961 67.4002 4.39961 66.7002 3.89961C66.0002 3.39961 65.3002 3.09961 64.6002 2.99961C63.9002 2.79961 62.6002 2.79961 60.7002 2.79961H54.2002V12.6996H57.4002C58.6002 12.6996 59.5002 12.4996 60.1002 12.0996C60.7002 11.6996 61.1002 11.1996 61.4002 10.5996C61.6002 10.1996 61.7002 9.39961 61.7002 8.19961V7.69961H63.6002V19.4996H61.7002V18.4996C61.7002 17.5996 61.6002 16.9996 61.5002 16.5996C61.4002 16.1996 61.1002 15.7996 60.8002 15.4996C60.4002 15.0996 60.0002 14.8996 59.6002 14.7996C59.2002 14.6996 58.5002 14.5996 57.5002 14.5996H54.3002V23.2996C54.3002 24.1996 54.3002 24.7996 54.4002 24.9996C54.5002 25.1996 54.6002 25.2996 54.8002 25.3996C55.0002 25.4996 55.5002 25.4996 56.4002 25.4996H60.4002C62.7002 25.4996 64.4002 25.1996 65.7002 24.6996C67.0002 24.1996 68.1002 23.2996 69.0002 22.1996C69.8002 21.2996 70.5002 20.0996 71.2002 18.4996L73.0002 19.0996L70.0002 27.4996H47.2002V25.8996H48.0002C48.9002 25.8996 49.5002 25.7996 49.7002 25.6996C50.0002 25.4996 50.3002 25.2996 50.5002 24.8996C50.6002 24.5996 50.7002 24.0996 50.7002 23.1996V4.69961C50.7002 3.89961 50.6002 3.29961 50.4002 2.99961C50.2002 2.69961 49.9002 2.49961 49.5002 2.29961C49.3002 2.19961 48.5002 2.19961 47.2002 2.19961V0.599609Z" fill="#2B2422"/>
<path d="M89.4999 0.200195C91.9999 0.200195 94.1999 0.800195 96.1999 2.00019C98.2999 3.30019 99.9999 4.9002 101.2 7.0002C102.4 9.0002 102.9 11.4002 102.9 14.1002C102.9 18.2002 101.6 21.6002 98.9999 24.2002C96.3999 26.8002 93.0999 28.1002 89.1999 28.1002C84.6999 28.1002 81.1999 26.5002 78.5999 23.4002C76.4999 20.8002 75.3999 17.8002 75.3999 14.2002C75.3999 11.6002 75.9999 9.2002 77.1999 7.1002C78.3999 5.0002 80.0999 3.3002 82.2999 2.1002C84.4999 0.800197 86.8999 0.200195 89.4999 0.200195ZM89.4999 2.2002C87.4999 2.2002 85.7999 2.7002 84.2999 3.6002C82.8999 4.5002 81.6999 5.9002 80.7999 7.7002C79.8999 9.5002 79.4999 11.7002 79.4999 14.3002C79.4999 16.8002 79.8999 18.9002 80.7999 20.7002C81.6999 22.4002 82.7999 23.8002 84.1999 24.7002C85.5999 25.6002 87.2999 26.1002 89.0999 26.1002C90.8999 26.1002 92.4999 25.6002 93.8999 24.7002C95.2999 23.8002 96.3999 22.4002 97.2999 20.4002C98.1999 18.5002 98.6999 16.3002 98.6999 13.9002C98.6999 11.5002 98.1999 9.30019 97.2999 7.30019C96.4999 5.60019 95.4999 4.30019 94.1999 3.50019C92.9999 2.70019 91.3999 2.2002 89.4999 2.2002Z" fill="#2B2422"/>
<path d="M106.4 0.599609H114.9L122.8 21.8996L130.6 0.599609H138.8V2.19961H138.1C137.3 2.19961 136.7 2.29961 136.4 2.39961C136.1 2.49961 135.9 2.79961 135.7 3.09961C135.5 3.49961 135.4 3.99961 135.4 4.89961V22.6996C135.4 23.7996 135.5 24.4996 135.6 24.8996C135.7 25.1996 136 25.4996 136.3 25.6996C136.6 25.8996 137.2 25.9996 138 25.9996H138.7V27.5996H128.4V25.9996H129.1C129.8 25.9996 130.2 25.8996 130.5 25.7996C130.8 25.6996 131.1 25.4996 131.3 25.2996C131.5 25.0996 131.6 24.7996 131.6 24.5996C131.7 24.0996 131.7 23.6996 131.7 23.3996V3.49961L122.9 27.5996H121L112.2 3.89961V22.9996C112.2 23.9996 112.3 24.5996 112.5 24.9996C112.7 25.2996 112.9 25.5996 113.3 25.7996C113.7 25.9996 114.3 26.0996 115.2 26.0996H115.8V27.6996H106.3V26.0996H106.8C107.7 26.0996 108.4 25.9996 108.8 25.7996C109.2 25.5996 109.5 25.2996 109.6 24.9996C109.8 24.5996 109.9 23.8996 109.9 22.8996V5.09961C109.9 4.09961 109.8 3.49961 109.7 3.09961C109.6 2.79961 109.3 2.49961 109 2.39961C108.7 2.19961 108.1 2.19961 107.3 2.19961H106.4V0.599609Z" fill="#2B2422"/>
<path d="M152.4 0.599609H155.6L164 23.0996C164.4 24.1996 164.8 24.9996 165.2 25.2996C165.6 25.6996 166.2 25.7996 166.9 25.7996H167.3V27.3996H157.7V25.7996C158 25.7996 158.3 25.7996 158.6 25.7996C159.2 25.7996 159.6 25.6996 159.8 25.5996C160.2 25.3996 160.4 24.9996 160.4 24.6996C160.4 24.3996 160.2 23.7996 159.9 22.6996L158.1 17.4996H148.4L146.3 23.2996C146.1 23.8996 146 24.2996 146 24.5996C146 24.8996 146.1 25.0996 146.2 25.2996C146.3 25.4996 146.5 25.5996 146.8 25.6996C147 25.7996 147.4 25.7996 147.9 25.7996C148.2 25.7996 148.5 25.7996 148.7 25.7996V27.3996H140.7V25.7996C141.4 25.7996 142 25.6996 142.3 25.5996C142.6 25.4996 142.9 25.1996 143.2 24.8996C143.4 24.5996 143.8 23.8996 144.2 22.7996L152.4 0.599609ZM149 15.6996H157.3L153.2 4.09961L149 15.6996Z" fill="#2B2422"/>
<path d="M66.0706 70.08C65.3706 70.08 64.7373 69.9267 64.1706 69.62C63.6106 69.3067 63.1706 68.88 62.8506 68.34C62.5306 67.7933 62.3706 67.18 62.3706 66.5C62.3706 65.82 62.5306 65.21 62.8506 64.67C63.1706 64.1233 63.614 63.6967 64.1806 63.39C64.7473 63.0767 65.3806 62.92 66.0806 62.92C66.6273 62.92 67.1273 63.0133 67.5806 63.2C68.034 63.38 68.4206 63.65 68.7406 64.01L68.0906 64.64C67.564 64.0867 66.9073 63.81 66.1206 63.81C65.6006 63.81 65.1306 63.9267 64.7106 64.16C64.2906 64.3933 63.9606 64.7167 63.7206 65.13C63.4873 65.5367 63.3706 65.9933 63.3706 66.5C63.3706 67.0067 63.4873 67.4667 63.7206 67.88C63.9606 68.2867 64.2906 68.6067 64.7106 68.84C65.1306 69.0733 65.6006 69.19 66.1206 69.19C66.9006 69.19 67.5573 68.91 68.0906 68.35L68.7406 68.98C68.4206 69.34 68.0306 69.6133 67.5706 69.8C67.1173 69.9867 66.6173 70.08 66.0706 70.08ZM75.9612 68.25H72.2412L71.4712 70H70.4412L73.6112 63H74.6012L77.7812 70H76.7312L75.9612 68.25ZM75.6112 67.45L74.1012 64.02L72.5912 67.45H75.6112ZM82.3654 70.08C81.8387 70.08 81.3287 70 80.8354 69.84C80.3487 69.6733 79.9654 69.46 79.6854 69.2L80.0554 68.42C80.3221 68.66 80.6621 68.8567 81.0754 69.01C81.4954 69.1567 81.9254 69.23 82.3654 69.23C82.9454 69.23 83.3787 69.1333 83.6654 68.94C83.9521 68.74 84.0954 68.4767 84.0954 68.15C84.0954 67.91 84.0154 67.7167 83.8554 67.57C83.7021 67.4167 83.5087 67.3 83.2754 67.22C83.0487 67.14 82.7254 67.05 82.3054 66.95C81.7787 66.8233 81.3521 66.6967 81.0254 66.57C80.7054 66.4433 80.4287 66.25 80.1954 65.99C79.9687 65.7233 79.8554 65.3667 79.8554 64.92C79.8554 64.5467 79.9521 64.21 80.1454 63.91C80.3454 63.61 80.6454 63.37 81.0454 63.19C81.4454 63.01 81.9421 62.92 82.5354 62.92C82.9487 62.92 83.3554 62.9733 83.7554 63.08C84.1554 63.1867 84.4987 63.34 84.7854 63.54L84.4554 64.34C84.1621 64.1533 83.8487 64.0133 83.5154 63.92C83.1821 63.82 82.8554 63.77 82.5354 63.77C81.9687 63.77 81.5421 63.8733 81.2554 64.08C80.9754 64.2867 80.8354 64.5533 80.8354 64.88C80.8354 65.12 80.9154 65.3167 81.0754 65.47C81.2354 65.6167 81.4321 65.7333 81.6654 65.82C81.9054 65.9 82.2287 65.9867 82.6354 66.08C83.1621 66.2067 83.5854 66.3333 83.9054 66.46C84.2254 66.5867 84.4987 66.78 84.7254 67.04C84.9587 67.3 85.0754 67.65 85.0754 68.09C85.0754 68.4567 84.9754 68.7933 84.7754 69.1C84.5754 69.4 84.2721 69.64 83.8654 69.82C83.4587 69.9933 82.9587 70.08 82.3654 70.08ZM89.3287 63.87H86.9287V63H92.7187V63.87H90.3187V70H89.3287V63.87ZM98.3702 70.08C97.6635 70.08 97.0268 69.9267 96.4602 69.62C95.8935 69.3067 95.4468 68.8767 95.1202 68.33C94.8002 67.7833 94.6402 67.1733 94.6402 66.5C94.6402 65.8267 94.8002 65.2167 95.1202 64.67C95.4468 64.1233 95.8935 63.6967 96.4602 63.39C97.0268 63.0767 97.6635 62.92 98.3702 62.92C99.0702 62.92 99.7035 63.0767 100.27 63.39C100.837 63.6967 101.28 64.1233 101.6 64.67C101.92 65.21 102.08 65.82 102.08 66.5C102.08 67.18 101.92 67.7933 101.6 68.34C101.28 68.88 100.837 69.3067 100.27 69.62C99.7035 69.9267 99.0702 70.08 98.3702 70.08ZM98.3702 69.19C98.8835 69.19 99.3435 69.0733 99.7502 68.84C100.163 68.6067 100.487 68.2867 100.72 67.88C100.96 67.4667 101.08 67.0067 101.08 66.5C101.08 65.9933 100.96 65.5367 100.72 65.13C100.487 64.7167 100.163 64.3933 99.7502 64.16C99.3435 63.9267 98.8835 63.81 98.3702 63.81C97.8568 63.81 97.3902 63.9267 96.9702 64.16C96.5568 64.3933 96.2302 64.7167 95.9902 65.13C95.7568 65.5367 95.6402 65.9933 95.6402 66.5C95.6402 67.0067 95.7568 67.4667 95.9902 67.88C96.2302 68.2867 96.5568 68.6067 96.9702 68.84C97.3902 69.0733 97.8568 69.19 98.3702 69.19ZM111.599 70L111.589 64.9L109.059 69.15H108.599L106.069 64.93V70H105.109V63H105.929L108.849 67.92L111.729 63H112.549L112.559 70H111.599Z" fill="#2B2422"/>
</svg>
