<svg width="20" height="20" viewBox="0 0 20 20" fill="none" xmlns="http://www.w3.org/2000/svg">
<path fill-rule="evenodd" clip-rule="evenodd" d="M10.0559 2.74371C10.7341 1.5106 11.9946 0 14.0911 0C14.9349 0 15.7442 0.335226 16.3409 0.931933C16.9376 1.52864 17.2729 2.33795 17.2729 3.18182C17.2729 3.65778 17.1662 4.12275 16.9662 4.54477H19.0909C19.593 4.54477 20 4.95179 20 5.45386V9.99932C20 10.5014 19.593 10.9084 19.0909 10.9084H18.1815V19.091C18.1815 19.5931 17.7745 20.0001 17.2725 20.0001H2.727C2.22492 20.0001 1.81791 19.5931 1.81791 19.091V10.9084H0.909091C0.407014 10.9084 0 10.5014 0 9.99932V5.45386C0 4.95179 0.407014 4.54477 0.909091 4.54477H3.03356C2.83351 4.12275 2.72686 3.65778 2.72686 3.18182C2.72686 2.33795 3.06209 1.52864 3.6588 0.931933C4.2555 0.335226 5.06481 0 5.90868 0C8.00513 0 9.26567 1.5106 9.94388 2.74371C9.96288 2.77826 9.98154 2.81279 9.99987 2.84726C10.0182 2.81279 10.0369 2.77826 10.0559 2.74371ZM5.84272 6.36295C5.86468 6.36341 5.88667 6.36364 5.90868 6.36364H9.09105V9.09023H1.81818V6.36295H5.84272ZM8.77571 4.54477C8.66478 4.2546 8.52437 3.93559 8.35076 3.61993C7.77897 2.58031 6.99405 1.81818 5.90868 1.81818C5.54702 1.81818 5.20018 1.96185 4.94444 2.21758C4.68871 2.47331 4.54504 2.82016 4.54504 3.18182C4.54504 3.54348 4.68871 3.89032 4.94444 4.14605C5.18998 4.39159 5.51952 4.53382 5.86551 4.54477H8.77571ZM14.0911 6.36364H10.9092V9.09023H18.1818V6.36295H14.157C14.135 6.36341 14.1131 6.36364 14.0911 6.36364ZM15.0553 4.14605C14.8098 4.39159 14.4802 4.53382 14.1342 4.54477H11.224C11.335 4.2546 11.4754 3.93559 11.649 3.61993C12.2208 2.58031 13.0057 1.81818 14.0911 1.81818C14.4527 1.81818 14.7996 1.96185 15.0553 2.21758C15.311 2.47331 15.4547 2.82016 15.4547 3.18182C15.4547 3.54348 15.311 3.89032 15.0553 4.14605ZM9.09105 10.9084H3.63609V18.182H9.09105V10.9084ZM10.9092 18.182V10.9084H16.3634V18.182H10.9092Z" fill="#272727"/>
</svg>
