<svg width="13" height="13" viewBox="0 0 13 13" fill="none" xmlns="http://www.w3.org/2000/svg">
<path fill-rule="evenodd" clip-rule="evenodd" d="M6.53622 1.78341C6.97706 0.981888 7.7964 0 9.1591 0C9.70761 0 10.2337 0.217897 10.6215 0.605756C11.0094 0.993616 11.2273 1.51967 11.2273 2.06818C11.2273 2.37772 11.1579 2.68011 11.0277 2.95455H12.4091C12.7354 2.95455 13 3.2191 13 3.54545V6.5C13 6.82635 12.7354 7.09091 12.4091 7.09091H11.8182V12.4091C11.8182 12.7354 11.5536 13 11.2273 13H6.50107L6.5 13L6.49893 13H1.77273C1.44638 13 1.18182 12.7354 1.18182 12.4091V7.09091H0.590909C0.264559 7.09091 0 6.82635 0 6.5V3.54545C0 3.2191 0.264559 2.95455 0.590909 2.95455H1.97229C1.84212 2.68011 1.77273 2.37772 1.77273 2.06818C1.77273 1.51967 1.99062 0.993616 2.37848 0.605756C2.76634 0.217897 3.29239 0 3.84091 0C5.2036 0 6.02295 0.981888 6.46379 1.78341C6.47608 1.80576 6.48815 1.82809 6.5 1.85039C6.51186 1.82809 6.52393 1.80576 6.53622 1.78341ZM5.90909 4.13636H3.84091H1.18182V5.90909H1.77273H5.90909V4.13636ZM5.70465 2.95455C5.63251 2.76582 5.5412 2.55829 5.42826 2.35295C5.0566 1.6772 4.5464 1.18182 3.84091 1.18182C3.60583 1.18182 3.38038 1.2752 3.21416 1.44143C3.04793 1.60765 2.95455 1.8331 2.95455 2.06818C2.95455 2.30326 3.04793 2.52871 3.21416 2.69494C3.38038 2.86116 3.60583 2.95455 3.84091 2.95455H5.70465ZM9.78585 2.69494C9.61962 2.86116 9.39417 2.95455 9.1591 2.95455H7.29536C7.36749 2.76582 7.45881 2.55829 7.57175 2.35295C7.94341 1.6772 8.45361 1.18182 9.1591 1.18182C9.39417 1.18182 9.61962 1.2752 9.78585 1.44143C9.95208 1.60765 10.0455 1.8331 10.0455 2.06818C10.0455 2.30326 9.95208 2.52871 9.78585 2.69494ZM7.09091 5.90909V4.13636H9.1591H11.8182V5.90909H11.2273H7.09091ZM7.09091 11.8182H10.6364V7.09091H7.09091V11.8182ZM5.90909 7.09091V11.8182H2.36364V7.09091H5.90909Z" fill="#5A5A5A"/>
</svg>
