<svg width="11" height="11" viewBox="0 0 11 11" fill="none" xmlns="http://www.w3.org/2000/svg">
<path d="M5.5 11C8.53267 11 11 8.53273 11 5.5C11 2.46727 8.53267 0 5.5 0C2.46733 0 0 2.46727 0 5.5C0 8.53273 2.46733 11 5.5 11ZM1.61009 6.26744H3.22868C3.27974 7.29305 3.43307 8.24703 3.67282 9.01724C2.62189 8.46908 1.84585 7.4644 1.61009 6.26744ZM5.93417 2.68922C6.0894 3.27457 6.19234 3.98144 6.23424 4.73256H4.7651C4.85867 3.03288 5.24859 1.97458 5.49847 1.62411C5.61031 1.78 5.77899 2.10402 5.93417 2.68922ZM6.23485 6.26744C6.14127 7.96712 5.75136 9.02542 5.50148 9.37589C5.38964 9.22005 5.22101 8.89598 5.06578 8.31083C4.91055 7.72548 4.80761 7.01861 4.76571 6.26749H6.23485V6.26744ZM7.32718 9.01724C7.56693 8.24698 7.72026 7.293 7.77132 6.26744H9.38991C9.15415 7.4644 8.37811 8.46908 7.32718 9.01724ZM9.38991 4.73256H7.77132C7.72026 3.70695 7.56693 2.75297 7.32718 1.98276C8.37811 2.53092 9.15415 3.5356 9.38991 4.73256ZM3.67282 1.98276C3.43307 2.75302 3.27974 3.707 3.22868 4.73256H1.61009C1.84585 3.5356 2.62189 2.53092 3.67282 1.98276Z" fill="#5A5A5A"/>
</svg>
