<svg width="13" height="12" viewBox="0 0 13 12" fill="none" xmlns="http://www.w3.org/2000/svg">
<path d="M8.97821 0C7.93578 0 6.89335 0.490554 6.21884 1.2877C5.54433 0.490554 4.5019 0 3.45947 0C1.55858 0 0.0869141 1.47166 0.0869141 3.37256C0.0869141 5.70269 2.17177 7.60359 5.36037 10.4243L6.21884 11.2214L7.07731 10.4243C10.2046 7.54227 12.3508 5.64137 12.3508 3.37256C12.3508 1.47166 10.8791 0 8.97821 0ZM6.28016 9.56581H6.21884L6.15752 9.50449C3.2142 6.86773 1.3133 5.15082 1.3133 3.37256C1.3133 2.14617 2.23309 1.22639 3.45947 1.22639C4.37926 1.22639 5.29905 1.83958 5.66697 2.69805H6.83203C7.13863 1.83958 8.05842 1.22639 8.97821 1.22639C10.2046 1.22639 11.1244 2.14617 11.1244 3.37256C11.1244 5.15082 9.22348 6.86774 6.28016 9.56581Z" fill="#C73145"/>
<path fill-rule="evenodd" clip-rule="evenodd" d="M6.13193 1.2877C6.80644 0.490554 7.84887 0 8.8913 0C10.7922 0 12.2639 1.47166 12.2639 3.37256C12.2639 5.56855 10.2532 7.41987 7.28846 10.1498C7.19014 10.2403 7.09077 10.3318 6.9904 10.4243L6.13193 11.2214L5.27346 10.4243C2.08486 7.60359 0 5.70269 0 3.37256C0 1.47166 1.47166 0 3.37256 0C4.41499 0 5.45742 0.490554 6.13193 1.2877Z" fill="#C73145"/>
</svg>
