<svg width="13" height="13" viewBox="0 0 13 13" fill="none" xmlns="http://www.w3.org/2000/svg">
<path d="M6.5 0C4.83365 0.00475292 3.23277 0.649294 2.028 1.8005V0.65C2.028 0.477609 1.95952 0.312279 1.83762 0.19038C1.71572 0.0684819 1.55039 0 1.378 0C1.20561 0 1.04028 0.0684819 0.91838 0.19038C0.796482 0.312279 0.728 0.477609 0.728 0.65V3.575C0.728 3.74739 0.796482 3.91272 0.91838 4.03462C1.04028 4.15652 1.20561 4.225 1.378 4.225H4.303C4.47539 4.225 4.64072 4.15652 4.76262 4.03462C4.88452 3.91272 4.953 3.74739 4.953 3.575C4.953 3.40261 4.88452 3.23728 4.76262 3.11538C4.64072 2.99348 4.47539 2.925 4.303 2.925H2.743C3.57875 2.05163 4.69268 1.49673 5.89325 1.35568C7.09381 1.21464 8.30601 1.49628 9.32142 2.15218C10.3368 2.80807 11.092 3.79724 11.4571 4.94961C11.8222 6.10198 11.7744 7.34555 11.322 8.46651C10.8695 9.58746 10.0406 10.5158 8.9779 11.0918C7.91515 11.6678 6.68491 11.8556 5.49871 11.6229C4.31251 11.3901 3.24445 10.7514 2.47818 9.81642C1.71192 8.8815 1.29531 7.70881 1.3 6.5C1.3 6.32761 1.23152 6.16228 1.10962 6.04038C0.98772 5.91848 0.82239 5.85 0.65 5.85C0.477609 5.85 0.312279 5.91848 0.19038 6.04038C0.0684819 6.16228 0 6.32761 0 6.5C0 7.78558 0.381218 9.04228 1.09545 10.1112C1.80968 11.1801 2.82484 12.0132 4.01256 12.5052C5.20028 12.9972 6.50721 13.1259 7.76808 12.8751C9.02896 12.6243 10.1872 12.0052 11.0962 11.0962C12.0052 10.1872 12.6243 9.02896 12.8751 7.76808C13.1259 6.50721 12.9972 5.20028 12.5052 4.01256C12.0132 2.82484 11.1801 1.80968 10.1112 1.09545C9.04228 0.381218 7.78558 0 6.5 0ZM5.92554 4.225C5.75314 4.225 5.58781 4.29348 5.46592 4.41538C5.34402 4.53728 5.27554 4.70261 5.27554 4.875V7.60962C5.27554 7.78201 5.34402 7.94734 5.46592 8.06924C5.58781 8.19113 5.75314 8.25962 5.92554 8.25962H8.40344C8.57583 8.25962 8.74116 8.19113 8.86306 8.06924C8.98496 7.94734 9.05344 7.78201 9.05344 7.60962C9.05344 7.43723 8.98496 7.2719 8.86306 7.15C8.74116 7.0281 8.57583 6.95962 8.40344 6.95962H6.57554V4.875C6.57554 4.70261 6.50705 4.53728 6.38515 4.41538C6.26326 4.29348 6.09793 4.225 5.92554 4.225Z" fill="#272727"/>
</svg>
