<svg width="22" height="22" viewBox="0 0 22 22" fill="none" xmlns="http://www.w3.org/2000/svg">
<path d="M11 0C4.9346 0 0 4.93467 0 11.0001C0 17.0655 4.9346 22 11 22C17.0654 22 22 17.0655 22 11.0001C22 4.93467 17.0654 0 11 0ZM11 20C6.03733 20 2 15.9627 2 11.0001C2 6.03747 6.03733 2 11 2C15.9627 2 20 6.03747 20 11.0001C20 15.9627 15.9626 20 11 20Z" fill="#DCDCDC"/>
<path d="M11.001 4.66797C10.266 4.66797 9.66797 5.26637 9.66797 6.0019C9.66797 6.73677 10.266 7.33464 11.001 7.33464C11.7361 7.33464 12.3341 6.73677 12.3341 6.0019C12.3341 5.26637 11.7361 4.66797 11.001 4.66797Z" fill="#5A5A5A"/>
<path d="M11 9.33203C10.4477 9.33203 10 9.77976 10 10.332V16.332C10 16.8843 10.4477 17.332 11 17.332C11.5523 17.332 12 16.8843 12 16.332V10.332C12 9.77976 11.5523 9.33203 11 9.33203Z" fill="#5A5A5A"/>
</svg>
