<svg width="12" height="13" viewBox="0 0 12 13" fill="none" xmlns="http://www.w3.org/2000/svg">
<path d="M11.97 3.52883C11.9419 2.89108 11.8387 2.45263 11.691 2.07271C11.5386 1.66944 11.3041 1.30838 10.9969 1.00824C10.6968 0.703421 10.3333 0.466566 9.93472 0.31654C9.5526 0.168803 9.11644 0.065671 8.47868 0.0375524C7.83616 0.00705253 7.63219 0 6.00258 0C4.37297 0 4.169 0.00705253 3.52886 0.0351711C2.8911 0.0632896 2.45265 0.166513 2.07282 0.314158C1.66945 0.466566 1.30839 0.70104 1.00825 1.00824C0.703427 1.30838 0.466662 1.67182 0.316542 2.07042C0.168804 2.45263 0.0656715 2.8887 0.0375527 3.52645C0.00705259 4.16896 0 4.37294 0 6.00253C0 7.63212 0.00705259 7.8361 0.0351714 8.47623C0.0632901 9.11398 0.166514 9.55243 0.314252 9.93235C0.466662 10.3356 0.703427 10.6967 1.00825 10.9968C1.30839 11.3016 1.67183 11.5385 2.07044 11.6885C2.45265 11.8363 2.88872 11.9394 3.52657 11.9675C4.16662 11.9957 4.37068 12.0027 6.00029 12.0027C7.6299 12.0027 7.83387 11.9957 8.47401 11.9675C9.11177 11.9394 9.55022 11.8363 9.93005 11.6885C10.7367 11.3767 11.3745 10.7389 11.6863 9.93235C11.834 9.55014 11.9372 9.11398 11.9653 8.47623C11.9934 7.8361 12.0005 7.63212 12.0005 6.00253C12.0005 4.37294 11.9981 4.16896 11.97 3.52883ZM10.8891 8.42933C10.8633 9.01552 10.7648 9.33206 10.6828 9.54308C10.4811 10.066 10.0661 10.481 9.54316 10.6827C9.33214 10.7647 9.0133 10.8632 8.4294 10.8889C7.79632 10.9171 7.60645 10.9241 6.00496 10.9241C4.40347 10.9241 4.21122 10.9171 3.58043 10.8889C2.99424 10.8632 2.67769 10.7647 2.46667 10.6827C2.20645 10.5865 1.9696 10.4341 1.77734 10.2348C1.57804 10.0402 1.42563 9.80568 1.32946 9.54547C1.24739 9.33444 1.14893 9.01552 1.12319 8.43171C1.09498 7.79864 1.08802 7.60868 1.08802 6.0072C1.08802 4.40573 1.09498 4.21348 1.12319 3.58278C1.14893 2.99659 1.24739 2.68005 1.32946 2.46903C1.42563 2.20873 1.57804 1.97196 1.77973 1.77962C1.97427 1.58032 2.20874 1.42791 2.46905 1.33183C2.68008 1.24976 2.999 1.1513 3.58281 1.12547C4.21589 1.09736 4.40585 1.0903 6.00725 1.0903C7.61112 1.0903 7.80099 1.09736 8.43179 1.12547C9.01797 1.1513 9.33452 1.24976 9.54555 1.33183C9.80576 1.42791 10.0426 1.58032 10.2349 1.77962C10.4342 1.97425 10.5866 2.20873 10.6828 2.46903C10.7648 2.68005 10.8633 2.99888 10.8891 3.58278C10.9172 4.21586 10.9243 4.40573 10.9243 6.0072C10.9243 7.60868 10.9172 7.79625 10.8891 8.42933Z" fill="#5A5A5A"/>
<path d="M6.00325 2.91992C4.30103 2.91992 2.91992 4.30094 2.91992 6.00325C2.91992 7.70557 4.30103 9.08658 6.00325 9.08658C7.70557 9.08658 9.08658 7.70557 9.08658 6.00325C9.08658 4.30094 7.70557 2.91992 6.00325 2.91992ZM6.00325 8.00333C4.89894 8.00333 4.00317 7.10766 4.00317 6.00325C4.00317 4.89884 4.89894 4.00317 6.00325 4.00317C7.10766 4.00317 8.00333 4.89884 8.00333 6.00325C8.00333 7.10766 7.10766 8.00333 6.00325 8.00333Z" fill="#5A5A5A"/>
<path d="M9.92801 2.79697C9.92801 3.19447 9.6057 3.51678 9.2081 3.51678C8.81059 3.51678 8.48828 3.19447 8.48828 2.79697C8.48828 2.39937 8.81059 2.07715 9.2081 2.07715C9.6057 2.07715 9.92801 2.39937 9.92801 2.79697Z" fill="#5A5A5A"/>
</svg>
