<svg width="17" height="17" viewBox="0 0 17 17" fill="none" xmlns="http://www.w3.org/2000/svg">
<path d="M16.2836 4.70496C16.2461 3.85465 16.1086 3.27007 15.9116 2.76353C15.7084 2.22584 15.3958 1.74445 14.9862 1.34427C14.586 0.937865 14.1014 0.622069 13.57 0.422039C13.0605 0.225063 12.479 0.0875585 11.6287 0.0500683C10.772 0.00940307 10.5001 0 8.32733 0C6.15461 0 5.88266 0.00940307 5.02917 0.0468933C4.17887 0.0843835 3.59429 0.22201 3.08787 0.418864C2.55006 0.622069 2.06867 0.93469 1.66849 1.34427C1.26208 1.74445 0.946409 2.22902 0.746258 2.76048C0.549282 3.27007 0.411777 3.85148 0.374287 4.70178C0.333622 5.55844 0.324219 5.8304 0.324219 8.00312C0.324219 10.1758 0.333622 10.4478 0.371112 11.3013C0.408602 12.1516 0.546229 12.7362 0.743205 13.2427C0.946409 13.7804 1.26208 14.2618 1.66849 14.662C2.06867 15.0684 2.55324 15.3842 3.08469 15.5842C3.59429 15.7812 4.17569 15.9187 5.02612 15.9562C5.87948 15.9938 6.15156 16.0031 8.32428 16.0031C10.497 16.0031 10.769 15.9938 11.6224 15.9562C12.4727 15.9187 13.0573 15.7812 13.5637 15.5842C14.6392 15.1684 15.4895 14.3181 15.9054 13.2427C16.1022 12.7331 16.2398 12.1516 16.2773 11.3013C16.3148 10.4478 16.3242 10.1758 16.3242 8.00312C16.3242 5.8304 16.321 5.55844 16.2836 4.70496ZM14.8424 11.2388C14.808 12.0203 14.6767 12.4423 14.5673 12.7237C14.2984 13.4209 13.7451 13.9742 13.0479 14.2431C12.7666 14.3525 12.3415 14.4838 11.563 14.5181C10.7189 14.5557 10.4657 14.565 8.33051 14.565C6.19528 14.565 5.93895 14.5557 5.09793 14.5181C4.31637 14.4838 3.89433 14.3525 3.61297 14.2431C3.26604 14.1149 2.95024 13.9117 2.69392 13.6459C2.42819 13.3864 2.22498 13.0738 2.09676 12.7269C1.98734 12.4455 1.85606 12.0203 1.82175 11.2419C1.78414 10.3979 1.77486 10.1446 1.77486 8.00935C1.77486 5.87411 1.78414 5.61779 1.82175 4.77689C1.85606 3.99533 1.98734 3.57329 2.09676 3.29193C2.22498 2.94487 2.42819 2.6292 2.69709 2.37275C2.95647 2.10702 3.26909 1.90382 3.61615 1.77572C3.89751 1.6663 4.32272 1.53502 5.1011 1.50058C5.94518 1.46309 6.19845 1.45369 8.33356 1.45369C10.472 1.45369 10.7251 1.46309 11.5661 1.50058C12.3477 1.53502 12.7697 1.6663 13.0511 1.77572C13.398 1.90382 13.7138 2.10702 13.9702 2.37275C14.2359 2.63225 14.4391 2.94487 14.5673 3.29193C14.6767 3.57329 14.808 3.99838 14.8424 4.77689C14.8799 5.62096 14.8893 5.87411 14.8893 8.00935C14.8893 10.1446 14.8799 10.3947 14.8424 11.2388Z" fill="#272727"/>
<path d="M8.32973 3.89209C6.06017 3.89209 4.21875 5.73338 4.21875 8.00307C4.21875 10.2727 6.06017 12.114 8.32973 12.114C10.5994 12.114 12.4407 10.2727 12.4407 8.00307C12.4407 5.73338 10.5994 3.89209 8.32973 3.89209ZM8.32973 10.6698C6.85735 10.6698 5.66304 9.47556 5.66304 8.00307C5.66304 6.53057 6.85735 5.33638 8.32973 5.33638C9.80222 5.33638 10.9964 6.53057 10.9964 8.00307C10.9964 9.47556 9.80222 10.6698 8.32973 10.6698Z" fill="#272727"/>
<path d="M13.5602 3.72926C13.5602 4.25925 13.1305 4.68898 12.6004 4.68898C12.0704 4.68898 11.6406 4.25925 11.6406 3.72926C11.6406 3.19914 12.0704 2.76953 12.6004 2.76953C13.1305 2.76953 13.5602 3.19914 13.5602 3.72926Z" fill="#272727"/>
</svg>
