<svg width="10" height="14" viewBox="0 0 10 14" fill="none" xmlns="http://www.w3.org/2000/svg">
<path d="M4.99997 0C2.24296 0 0 2.33729 0 5.21023C0 6.81722 0.793982 8.76774 2.35996 11.0076C3.50595 12.6468 4.63522 13.8158 4.68274 13.8648C4.77009 13.9549 4.88501 14 5.00005 14C5.11176 14 5.22355 13.9574 5.3102 13.8719C5.35783 13.825 6.48996 12.7033 7.63811 11.0867C9.20535 8.88004 10 6.90292 10 5.2102C9.99995 2.33729 7.75693 0 4.99997 0ZM4.99997 7.45955C3.65209 7.45955 2.55555 6.33704 2.55555 4.95729C2.55555 3.57755 3.65212 2.45504 4.99997 2.45504C6.34782 2.45504 7.4444 3.57755 7.4444 4.95729C7.4444 6.33704 6.3478 7.45955 4.99997 7.45955Z" fill="white"/>
</svg>
