<svg width="8" height="8" viewBox="0 0 8 8" fill="none" xmlns="http://www.w3.org/2000/svg">
<path d="M6.8 3.60591H2V2.80699C2.00157 1.83575 2.70252 1.00642 3.661 0.841792C4.61948 0.677167 5.5576 1.22497 5.884 2.13989C5.91925 2.24114 5.99378 2.32399 6.09082 2.36982C6.18786 2.41564 6.29927 2.42059 6.4 2.38356C6.60706 2.31009 6.71601 2.08357 6.644 1.87624C6.19376 0.586132 4.87594 -0.190176 3.5275 0.040363C2.17906 0.270902 1.19487 1.44078 1.2 2.80699V3.60591C0.537258 3.60591 0 4.14245 0 4.8043V6.80161C0 7.46346 0.537258 8 1.2 8H6.8C7.46274 8 8 7.46346 8 6.80161V4.8043C8 4.14245 7.46274 3.60591 6.8 3.60591Z" fill="#5A5A5A"/>
</svg>
