<svg width="13" height="13" viewBox="0 0 13 13" fill="none" xmlns="http://www.w3.org/2000/svg">
<path d="M3.70918 8.6385L2.21381 7.15L8.44886 7.15C8.6213 7.15 8.78667 7.08152 8.9086 6.95962C9.03053 6.83772 9.09903 6.67239 9.09903 6.5C9.09903 6.32761 9.03053 6.16228 8.9086 6.04038C8.78667 5.91848 8.6213 5.85 8.44886 5.85L2.21381 5.85L3.70918 4.3615C3.77012 4.30107 3.81849 4.22918 3.8515 4.14997C3.88451 4.07077 3.9015 3.98581 3.9015 3.9C3.9015 3.81419 3.88451 3.72923 3.8515 3.65003C3.81849 3.57082 3.77012 3.49893 3.70918 3.4385C3.64874 3.37758 3.57683 3.32922 3.49761 3.29622C3.41838 3.26322 3.3334 3.24623 3.24757 3.24623C3.16174 3.24623 3.07676 3.26322 2.99753 3.29622C2.9183 3.32922 2.84639 3.37758 2.78595 3.4385L0.185305 6.0385C0.126114 6.10032 0.0797147 6.17321 0.0487706 6.253C-0.0162573 6.41125 -0.0162573 6.58875 0.0487707 6.747C0.0797147 6.82679 0.126114 6.89968 0.185305 6.9615L2.78595 9.5615C2.84657 9.6221 2.91854 9.67018 2.99774 9.70298C3.07695 9.73578 3.16184 9.75266 3.24757 9.75266C3.3333 9.75266 3.41819 9.73578 3.49739 9.70298C3.5766 9.67018 3.64856 9.6221 3.70918 9.5615C3.7698 9.50089 3.81789 9.42895 3.8507 9.34976C3.8835 9.27058 3.90039 9.18571 3.90039 9.1C3.90039 9.01429 3.8835 8.92942 3.8507 8.85024C3.81789 8.77105 3.7698 8.69911 3.70918 8.6385ZM7.7987 0.65C7.7987 0.822391 7.8672 0.987721 7.98913 1.10962C8.11106 1.23152 8.27643 1.3 8.44886 1.3L11.0495 1.3C11.2219 1.3 11.3873 1.36848 11.5092 1.49038C11.6312 1.61228 11.6997 1.77761 11.6997 1.95L11.6997 11.05C11.6997 11.2224 11.6312 11.3877 11.5092 11.5096C11.3873 11.6315 11.2219 11.7 11.0495 11.7L8.44886 11.7C8.27643 11.7 8.11106 11.7685 7.98913 11.8904C7.8672 12.0123 7.7987 12.1776 7.7987 12.35C7.7987 12.5224 7.8672 12.6877 7.98913 12.8096C8.11106 12.9315 8.27643 13 8.44886 13L11.0495 13C11.5668 13 12.0629 12.7946 12.4287 12.4289C12.7945 12.0632 13 11.5672 13 11.05L13 1.95C13 1.43283 12.7945 0.936838 12.4287 0.571142C12.0629 0.205446 11.5668 4.48073e-07 11.0495 -4.8299e-07L8.44886 -3.69312e-07C8.27643 -3.61774e-07 8.11106 0.068482 7.98913 0.19038C7.8672 0.312278 7.7987 0.477609 7.7987 0.65Z" fill="#272727"/>
</svg>
