<svg width="15" height="16" viewBox="0 0 15 16" fill="none" xmlns="http://www.w3.org/2000/svg">
<path fill-rule="evenodd" clip-rule="evenodd" d="M7.04687 0C6.67882 0 6.31725 0.0967294 5.99837 0.280481L3.76264 1.55804C3.61406 1.58696 3.47543 1.66368 3.37146 1.78157L1.09957 3.07979L1.09687 3.08135C0.836945 3.23142 0.612904 3.43505 0.439138 3.67785C0.398071 3.71942 0.361576 3.76685 0.330953 3.81978C0.304804 3.86499 0.284273 3.9119 0.269146 3.95971C0.123561 4.25044 0.0472097 4.57156 0.046875 4.89785V10.4993C0.0472527 10.8675 0.144465 11.2292 0.32876 11.5481C0.513054 11.8669 0.77795 12.1317 1.09687 12.3158L1.09958 12.3173L5.99687 15.1158L5.99817 15.1165C6.21967 15.2442 6.46178 15.3299 6.71236 15.3703C6.81132 15.4239 6.92463 15.4543 7.04505 15.4543C7.16485 15.4543 7.27762 15.4242 7.37621 15.3711C7.62864 15.3311 7.87258 15.2451 8.09562 15.1165L8.09687 15.1158L12.9942 12.3173L12.9969 12.3158C13.3158 12.1317 13.5807 11.8669 13.765 11.5481C13.9493 11.2292 14.0465 10.8675 14.0469 10.4993V4.89785C14.0465 4.57552 13.972 4.25822 13.8299 3.97029C13.8145 3.91882 13.7929 3.86832 13.7648 3.81978C13.7324 3.76382 13.6935 3.71401 13.6495 3.67078C13.4765 3.43109 13.2543 3.22995 12.9969 3.08134L8.09687 0.281347L8.09541 0.280504C7.77653 0.0967374 7.41494 0 7.04687 0ZM7.74505 13.7044L12.2969 11.1033L12.298 11.1027C12.4038 11.0414 12.4917 10.9533 12.5529 10.8474C12.6143 10.7412 12.6467 10.6206 12.6469 10.4978V5.27515L7.74505 8.11068V13.7044ZM6.34505 8.10741L1.44687 5.27399V10.4981C1.44705 10.6208 1.47945 10.7413 1.54084 10.8474C1.60205 10.9533 1.68996 11.0414 1.79577 11.1027L1.79687 11.1033L6.34505 13.7023V8.10741ZM7.39687 1.49379L11.9199 4.07834L10.2007 5.07282L5.33941 2.26949L6.69418 1.49534L6.69687 1.49378C6.80329 1.43234 6.924 1.4 7.04687 1.4C7.16975 1.4 7.29046 1.43235 7.39687 1.49379ZM7.04788 6.89661L8.80162 5.88213L3.93177 3.07385L2.17491 4.07777L7.04788 6.89661Z" fill="#2E3338"/>
</svg>
