<svg width="22" height="22" viewBox="0 0 22 22" fill="none" xmlns="http://www.w3.org/2000/svg">
<path d="M13.0625 3.66602H8.9375C6.02068 3.66602 4.56228 3.66602 3.65614 4.58654C2.75 5.50706 2.75 6.98862 2.75 9.95173V12.047C2.75 15.0101 2.75 16.4916 3.65614 17.4122C4.56228 18.3327 6.02068 18.3327 8.9375 18.3327H13.0625C15.9793 18.3327 17.4377 18.3327 18.3439 17.4122C19.25 16.4916 19.25 15.0101 19.25 12.047V9.95173C19.25 6.98862 19.25 5.50706 18.3439 4.58654C17.4377 3.66602 15.9793 3.66602 13.0625 3.66602Z" stroke="#2E3338" stroke-width="1.6"/>
<path d="M6.41699 7.33398H9.16699" stroke="#2E3338" stroke-width="1.6" stroke-linecap="round"/>
<path d="M17.4167 14.666H15.5833C14.8015 14.666 14.4105 14.666 14.1412 14.4594C14.0719 14.4062 14.0098 14.3441 13.9566 14.2748C13.75 14.0055 13.75 13.6145 13.75 12.8327C13.75 12.0508 13.75 11.6599 13.9566 11.3906C14.0098 11.3213 14.0719 11.2592 14.1412 11.206C14.4105 10.9993 14.8015 10.9993 15.5833 10.9993H17.4167C18.1985 10.9993 18.5895 10.9993 18.8588 11.206C18.9281 11.2592 18.9902 11.3213 19.0434 11.3906C19.25 11.6599 19.25 12.0508 19.25 12.8327C19.25 13.6145 19.25 14.0055 19.0434 14.2748C18.9902 14.3441 18.9281 14.4062 18.8588 14.4594C18.5895 14.666 18.1985 14.666 17.4167 14.666Z" stroke="#2E3338" stroke-width="1.6"/>
</svg>
