<svg width="7" height="10" viewBox="0 0 7 10" fill="none" xmlns="http://www.w3.org/2000/svg">
<path d="M3.49998 0C1.57008 0 0 1.6695 0 3.72159C0 4.86944 0.555788 6.26267 1.65197 7.86256C2.45417 9.03342 3.24466 9.86846 3.27792 9.90346C3.33906 9.96775 3.4195 10 3.50004 10C3.57823 10 3.65649 9.96957 3.71714 9.90854C3.75048 9.875 4.54297 9.07377 5.34668 7.91908C6.44374 6.34288 7 4.93065 7 3.72157C6.99996 1.6695 5.42985 0 3.49998 0ZM3.49998 5.32825C2.55647 5.32825 1.78888 4.52645 1.78888 3.54093C1.78888 2.5554 2.55648 1.7536 3.49998 1.7536C4.44348 1.7536 5.21108 2.5554 5.21108 3.54093C5.21108 4.52645 4.44346 5.32825 3.49998 5.32825Z" fill="#272727"/>
</svg>
