<svg width="12" height="12" viewBox="0 0 12 12" fill="none" xmlns="http://www.w3.org/2000/svg">
<path fill-rule="evenodd" clip-rule="evenodd" d="M6.3221 5.33519V1.2833C6.3221 0.916755 6.02442 0.619079 5.65729 0.618495C5.28958 0.618495 4.9919 0.916171 4.9919 1.28389L4.9919 5.33578L0.940596 5.33519C0.572879 5.33519 0.275204 5.63287 0.275788 6C0.275788 6.36772 0.573463 6.66539 0.940596 6.66481L4.99248 6.66481L4.99248 10.7167C4.99248 11.0844 5.28958 11.3815 5.65729 11.3815C5.84115 11.3821 6.00692 11.3074 6.12715 11.1871C6.24739 11.0669 6.3221 10.9011 6.3221 10.7167L6.3221 6.66598L10.3734 6.66539C10.5573 6.66598 10.7236 6.59068 10.8438 6.47044C10.9641 6.35021 11.0388 6.18444 11.0388 6C11.0382 5.63287 10.7411 5.33578 10.374 5.33519H6.3221Z" fill="#C7C7C7"/>
</svg>
