<svg width="18" height="18" viewBox="0 0 18 18" fill="none" xmlns="http://www.w3.org/2000/svg">
<path fill-rule="evenodd" clip-rule="evenodd" d="M16.9362 7.9446H10.0386V1.047C10.0386 0.4692 9.57 0 8.9916 0C8.4132 0 7.9446 0.4692 7.9446 1.047V7.9446H1.0476C0.4692 7.9446 0 8.4132 0 8.9916C0 9.57 0.4692 10.0386 1.0476 10.0386H7.9446V16.9362C7.9446 17.5146 8.4132 17.9832 8.9916 17.9832C9.57 17.9832 10.0386 17.5146 10.0386 16.9362V10.0386H16.9362C17.5146 10.0386 17.9832 9.57 17.9832 8.9916C17.9832 8.4132 17.5146 7.9446 16.9362 7.9446Z" fill="#2E3338"/>
</svg>
