<svg width="16" height="12" viewBox="0 0 16 12" fill="none" xmlns="http://www.w3.org/2000/svg">
<path d="M8.27303 1.541C7.97425 1.25412 7.9646 0.779345 8.25147 0.480559C8.53835 0.181773 9.01313 0.17212 9.31192 0.458999L8.27303 1.541ZM14 6L14.5194 5.459L15.0829 6L14.5194 6.541L14 6ZM9.31191 11.541C9.01313 11.8279 8.53835 11.8182 8.25147 11.5194C7.96459 11.2207 7.97425 10.7459 8.27303 10.459L9.31191 11.541ZM1 6.75C0.585787 6.75 0.25 6.41421 0.250001 6C0.250001 5.58579 0.585787 5.25 1 5.25L1 6.75ZM9.31192 0.458999L14.5194 5.459L13.4806 6.541L8.27303 1.541L9.31192 0.458999ZM14.5194 6.541L9.31191 11.541L8.27303 10.459L13.4806 5.459L14.5194 6.541ZM14 6.75L1 6.75L1 5.25L14 5.25L14 6.75Z" fill="#272727"/>
</svg>
