<svg width="21" height="19" viewBox="0 0 21 19" fill="none" xmlns="http://www.w3.org/2000/svg">
<path d="M12.875 1H8.125C4.76624 1 3.08686 1 2.04343 2.02703C1 3.05406 1 4.70703 1 8.01299V10.3506C1 13.6566 1 15.3096 2.04343 16.3366C3.08686 17.3636 4.76624 17.3636 8.125 17.3636H12.875C16.2338 17.3636 17.9131 17.3636 18.9566 16.3366C20 15.3096 20 13.6566 20 10.3506V8.01299C20 4.70703 20 3.05406 18.9566 2.02703C17.9131 1 16.2338 1 12.875 1Z" stroke="#272727" stroke-width="1.8"/>
<path d="M6.18164 5.90918H9.63619" stroke="#272727" stroke-width="1.8" stroke-linecap="round"/>
<path d="M13.0909 10.4541V9.54501C13.0909 8.6022 13.0909 8.1308 13.3838 7.8379C13.6767 7.54501 14.1481 7.54501 15.0909 7.54501L18 7.54501C18.9428 7.54501 19.4142 7.54501 19.7071 7.8379C20 8.1308 20 8.6022 20 9.54501V10.4541C20 11.3969 20 11.8683 19.7071 12.1612C19.4142 12.4541 18.9428 12.4541 18 12.4541H15.0909C14.1481 12.4541 13.6767 12.4541 13.3838 12.1612C13.0909 11.8683 13.0909 11.3969 13.0909 10.4541Z" stroke="#272727" stroke-width="1.8"/>
</svg>
