<svg width="21" height="21" viewBox="0 0 21 21" fill="none" xmlns="http://www.w3.org/2000/svg">
<path d="M10.4003 15.1229C10.8552 14.7267 11.31 14.7161 11.5814 14.7101C11.6228 14.7101 11.6739 14.7086 11.7115 14.7056C11.7213 14.6801 11.7348 14.638 11.7484 14.5725C11.7815 14.4139 11.7438 14.2936 11.6446 14.2425C11.5521 14.1943 11.3942 14.2064 11.2273 14.3846C11.0341 14.592 10.7093 14.6034 10.5018 14.4094C10.295 14.2161 10.2838 13.8913 10.477 13.6838C10.9371 13.1914 11.5807 13.053 12.1168 13.3312C12.6318 13.5974 12.8814 14.1673 12.7536 14.7823C12.5588 15.7161 11.9378 15.7297 11.6039 15.7372C11.3904 15.7417 11.2498 15.7447 11.0754 15.8966C10.9777 15.9816 10.8574 16.0229 10.7378 16.0229C10.595 16.0229 10.4521 15.9635 10.3506 15.847C10.1649 15.6335 10.1867 15.3094 10.4003 15.1229Z" fill="#272727"/>
<path d="M7.92733 12.5697C7.9281 12.5697 8.02208 12.5562 8.10629 12.511C8.18973 12.4659 8.21605 12.4231 8.21605 12.3276C8.21755 11.5013 8.88223 11.1483 9.36795 11.099C9.38903 11.0964 9.41083 11.0945 9.43262 11.0941C9.43339 11.0941 9.43489 11.0941 9.43638 11.0938V11.0941C9.43715 11.0941 9.43715 11.0938 9.43715 11.0938C9.72062 11.0938 9.95068 11.3238 9.95068 11.6073C9.95068 11.8757 9.74468 12.096 9.48151 12.1186V12.1193L9.48979 12.1186C9.46347 12.1215 9.38152 12.1351 9.31685 12.1727C9.27325 12.1982 9.24318 12.2238 9.24241 12.3299C9.24091 13.1817 8.50559 13.5517 8.01159 13.5922C7.9973 13.5937 7.98301 13.5945 7.96872 13.5945C7.70483 13.5945 7.48001 13.3915 7.45821 13.1231C7.4341 12.8404 7.64463 12.593 7.92733 12.5697Z" fill="#272727"/>
<path d="M12.7175 16.7624C12.8362 16.6068 13.0272 16.5376 13.2085 16.5669C13.2852 16.4782 13.3754 16.3797 13.4731 16.2797C13.9528 15.7917 14.3761 15.5278 14.7656 15.4722C15.037 15.4331 15.2911 15.4962 15.4986 15.6549C15.7061 15.8135 15.8347 16.0406 15.8693 16.3128C15.9452 16.9052 15.531 17.6525 15.228 18.1067C15.3031 18.2736 15.2866 18.4743 15.1686 18.6292C15.0678 18.7623 14.9145 18.8314 14.7603 18.8314C14.6513 18.8314 14.5423 18.7976 14.449 18.7269L14.2453 18.5713C14.1363 18.4886 14.0648 18.3645 14.0468 18.2284C14.0295 18.0916 14.0679 17.9547 14.1521 17.8465C14.1543 17.8435 14.3732 17.5638 14.5709 17.2134C14.7806 16.8435 14.8415 16.6143 14.8521 16.5037C14.7491 16.5428 14.5468 16.6601 14.2498 16.9548C13.9634 17.239 13.7446 17.5322 13.7423 17.5345C13.6611 17.645 13.5378 17.7179 13.4025 17.7375C13.2664 17.7563 13.128 17.7202 13.019 17.6375L12.8145 17.4819C12.5889 17.3097 12.5453 16.9879 12.7175 16.7624Z" fill="#272727"/>
<path d="M5.47685 8.15811C5.42502 7.98324 5.4679 7.78629 5.60624 7.64828C5.807 7.44791 6.13181 7.44791 6.3318 7.64866L6.51374 7.82988C6.61075 7.92723 6.66488 8.05922 6.66411 8.19641C6.66262 8.33399 6.60695 8.46521 6.50849 8.56107C6.50551 8.56333 6.25211 8.81143 6.00848 9.13172C5.75133 9.47044 5.66038 9.68924 5.63478 9.79751C5.74228 9.77268 5.9581 9.68322 6.29191 9.43136C6.61445 9.1885 6.87011 8.92721 6.87233 8.925C6.96857 8.8265 7.09941 8.77048 7.23698 8.76938C7.37456 8.76861 7.50617 8.82274 7.60313 8.91975L7.78507 9.10131C7.98506 9.30168 7.98506 9.62687 7.78507 9.82725C7.64595 9.96598 7.44746 10.0085 7.2723 9.95544C7.18357 10.0332 7.08131 10.1186 6.97078 10.2047C6.4302 10.6239 5.97528 10.8288 5.58209 10.8318C5.57911 10.8318 5.57684 10.8318 5.57381 10.8318C5.30314 10.8318 5.06331 10.7351 4.8806 10.5521C4.69562 10.3671 4.59866 10.1246 4.60092 9.8502C4.60545 9.25361 5.11595 8.56828 5.47685 8.15811Z" fill="#272727"/>
<path d="M1.92916 5.4844L2.49909 5.19005C2.5051 5.18707 2.51112 5.18403 2.51713 5.181L3.79751 4.52012C4.00053 4.41527 4.24863 4.45738 4.40579 4.62276C4.46743 4.68854 5.01104 5.28629 4.97645 6.11034C4.95465 6.63629 4.70726 7.11258 4.24262 7.52651C4.14787 7.61072 4.02608 7.65658 3.90125 7.65658C3.88547 7.65658 3.86892 7.65581 3.85313 7.65432C3.71176 7.64118 3.58169 7.56972 3.4945 7.45693L2.59831 6.29455L2.39982 6.3968C2.14796 6.52687 1.83816 6.42798 1.70809 6.17612C1.57803 5.92426 1.6773 5.61447 1.92916 5.4844ZM3.9013 6.30321C3.93061 6.22804 3.94644 6.15134 3.95019 6.07353C3.95847 5.91526 3.91559 5.76638 3.85997 5.64344L3.52539 5.81599L3.9013 6.30321Z" fill="#272727"/>
<path d="M0.364906 3.99468L3.99416 0.365423C4.23625 0.122946 4.57011 0 4.98586 0C6.11668 0 7.75353 0.95186 8.92794 1.75036C10.5768 2.87141 12.385 4.40071 14.1564 6.17249C16.2203 8.23563 17.9714 10.3721 19.0887 12.1871C19.6473 13.0946 20.0218 13.8825 20.2022 14.5284C20.43 15.3412 20.3495 15.9487 19.9639 16.3352L16.3346 19.9636C16.0918 20.2065 15.7579 20.329 15.3421 20.329C14.2113 20.329 12.5745 19.3772 11.4008 18.5794C9.75128 17.4584 7.94375 15.9292 6.17159 14.157C4.10844 12.0939 2.35736 9.95779 1.24011 8.14242C0.681438 7.23483 0.306971 6.44725 0.125799 5.80139C-0.101278 4.98826 -0.0208225 4.38036 0.364906 3.99468ZM19.2375 15.6089C19.2962 15.5501 19.3564 15.3156 19.2135 14.8043C19.0609 14.2584 18.7158 13.5396 18.2143 12.7254C17.1376 10.9761 15.4391 8.90661 13.4309 6.89838C11.7286 5.19613 9.92417 3.6691 8.3505 2.5992C6.2633 1.18004 5.3024 1.02664 4.98586 1.02664C4.85806 1.02664 4.76105 1.05031 4.71971 1.09131C4.66182 1.14958 4.6009 1.38455 4.74377 1.89544C4.89718 2.44132 5.24225 3.16047 5.74375 3.97475C6.81966 5.72396 8.51893 7.7935 10.5272 9.80174C12.2294 11.5036 14.0339 13.0314 15.6075 14.1014C17.694 15.5201 18.6549 15.6735 18.9714 15.6735C19.1 15.6735 19.197 15.6495 19.2375 15.6089ZM1.11447 5.5247C1.26711 6.07095 1.61294 6.79011 2.11373 7.60439C3.19036 9.3536 4.88962 11.4228 6.89786 13.4314C8.6001 15.1336 10.4038 16.6599 11.9775 17.7305C14.0647 19.1493 15.0263 19.3027 15.3421 19.3027C15.4707 19.3027 15.5677 19.2794 15.6083 19.238L18.2496 16.5968C17.2128 16.3298 15.9722 15.5908 15.0301 14.9501C13.3812 13.8284 11.573 12.299 9.80161 10.5276C7.7377 8.46449 5.98661 6.32844 4.86932 4.51269C4.31069 3.60553 3.93622 2.81795 3.75577 2.17175C3.74673 2.14057 3.73922 2.11049 3.73171 2.07965L1.09041 4.72056C1.03252 4.77884 0.971601 5.01381 1.11447 5.5247Z" fill="#272727"/>
<path d="M5.73315 2.1035C5.88728 1.94937 6.12186 1.90953 6.31809 2.0035C6.83991 2.25349 7.4632 2.62266 8.1211 3.07042C9.64968 4.1114 11.4067 5.5997 13.0684 7.26094C14.73 8.92257 16.218 10.6797 17.2594 12.2086C17.7067 12.8658 18.0759 13.4898 18.3263 14.0116C18.4203 14.2079 18.3796 14.4417 18.2263 14.5966C18.1278 14.6944 17.9962 14.747 17.8631 14.747C17.788 14.747 17.712 14.7304 17.6413 14.6959C17.1195 14.4462 16.4955 14.0771 15.8383 13.6297C14.3098 12.5891 12.5527 11.1004 10.891 9.43875C9.2294 7.77712 7.74066 6.02003 6.70007 4.49145C6.2527 3.83355 5.88352 3.21025 5.63315 2.68806C5.53913 2.49182 5.57902 2.25762 5.73315 2.1035ZM11.6165 8.71286C13.2285 10.3245 14.9263 11.7643 16.3992 12.7696C15.3939 11.2963 13.9541 9.59851 12.3428 7.98693C10.7308 6.37568 9.03312 4.93545 7.55944 3.93023C8.56544 5.40351 10.0053 7.10123 11.6165 8.71286Z" fill="#272727"/>
</svg>
