<svg width="40" height="40" viewBox="0 0 40 40" fill="none" xmlns="http://www.w3.org/2000/svg">
<circle cx="20" cy="20" r="20" fill="#2E3338"/>
<path d="M22.705 14C21.5781 14 20.4513 14.5303 19.7222 15.392C18.993 14.5303 17.8662 14 16.7394 14C14.6846 14 13.0938 15.5908 13.0938 17.6456C13.0938 20.1644 15.3474 22.2192 18.7942 25.2683L19.7222 26.13L20.6501 25.2683C24.0306 22.153 26.3506 20.0981 26.3506 17.6456C26.3506 15.5908 24.7598 14 22.705 14ZM19.7884 24.3403H19.7222L19.6559 24.274C16.4742 21.4238 14.4194 19.5679 14.4194 17.6456C14.4194 16.3199 15.4137 15.3257 16.7394 15.3257C17.7336 15.3257 18.7279 15.9885 19.1256 16.9165H20.385C20.7164 15.9885 21.7107 15.3257 22.705 15.3257C24.0306 15.3257 25.0249 16.3199 25.0249 17.6456C25.0249 19.5679 22.9701 21.4238 19.7884 24.3403Z" fill="#F8F8F8"/>
<path fill-rule="evenodd" clip-rule="evenodd" d="M19.6284 15.392C20.3575 14.5303 21.4844 14 22.6112 14C24.666 14 26.2568 15.5908 26.2568 17.6456C26.2568 20.0194 24.0834 22.0206 20.8786 24.9716C20.7723 25.0694 20.6649 25.1683 20.5564 25.2683L19.6284 26.13L18.7004 25.2683C15.2537 22.2192 13 20.1644 13 17.6456C13 15.5908 14.5908 14 16.6456 14C17.7725 14 18.8993 14.5303 19.6284 15.392Z" fill="#F8F8F8"/>
</svg>
