<svg width="40" height="40" viewBox="0 0 40 40" fill="none" xmlns="http://www.w3.org/2000/svg">
<circle cx="20" cy="20" r="20" fill="#2E3338"/>
<path d="M25 15.6667L25.3536 16.0202L25.7071 15.6667L25.3536 15.3131L25 15.6667ZM14.5 19C14.5 19.2761 14.7239 19.5 15 19.5C15.2761 19.5 15.5 19.2761 15.5 19H14.5ZM22.6869 18.6869L25.3536 16.0202L24.6464 15.3131L21.9798 17.9798L22.6869 18.6869ZM25.3536 15.3131L22.6869 12.6464L21.9798 13.3536L24.6464 16.0202L25.3536 15.3131ZM25 15.1667L18.3333 15.1667L18.3333 16.1667L25 16.1667L25 15.1667ZM18.3333 15.1667C16.2162 15.1667 14.5 16.8829 14.5 19H15.5C15.5 17.4352 16.7685 16.1667 18.3333 16.1667L18.3333 15.1667Z" fill="white"/>
<path d="M15 24.3333L14.6464 23.9798L14.2929 24.3333L14.6464 24.6869L15 24.3333ZM25.5 21C25.5 20.7239 25.2761 20.5 25 20.5C24.7239 20.5 24.5 20.7239 24.5 21H25.5ZM17.3131 21.3131L14.6464 23.9798L15.3536 24.6869L18.0202 22.0202L17.3131 21.3131ZM14.6464 24.6869L17.3131 27.3536L18.0202 26.6464L15.3536 23.9798L14.6464 24.6869ZM15 24.8333L21.6667 24.8333L21.6667 23.8333L15 23.8333L15 24.8333ZM21.6667 24.8333C23.7838 24.8333 25.5 23.1171 25.5 21H24.5C24.5 22.5648 23.2315 23.8333 21.6667 23.8333L21.6667 24.8333Z" fill="white"/>
</svg>
