<svg width="40" height="40" viewBox="0 0 40 40" fill="none" xmlns="http://www.w3.org/2000/svg">
<circle cx="20" cy="20" r="20" fill="#2E3338"/>
<path d="M20 13C17.243 13 15 15.3373 15 18.2102C15 19.8172 15.794 21.7677 17.36 24.0076C18.506 25.6468 19.6352 26.8158 19.6827 26.8648C19.7701 26.9549 19.885 27 20.0001 27C20.1118 27 20.2236 26.9574 20.3102 26.8719C20.3578 26.825 21.49 25.7033 22.6381 24.0867C24.2053 21.88 25 19.9029 25 18.2102C24.9999 15.3373 22.7569 13 20 13ZM20 20.4596C18.6521 20.4596 17.5555 19.337 17.5555 17.9573C17.5555 16.5776 18.6521 15.455 20 15.455C21.3478 15.455 22.4444 16.5776 22.4444 17.9573C22.4444 19.337 21.3478 20.4596 20 20.4596Z" fill="white"/>
</svg>
