<svg width="40" height="40" viewBox="0 0 40 40" fill="none" xmlns="http://www.w3.org/2000/svg">
<circle cx="20" cy="20" r="20" fill="#2E3338"/>
<path fill-rule="evenodd" clip-rule="evenodd" d="M20.3412 13C20.0078 13 19.6802 13.0876 19.3914 13.2541L17.3632 14.413C17.2302 14.4394 17.1062 14.5081 17.0127 14.6133L14.9536 15.7899L14.9512 15.7913C14.7138 15.9284 14.5095 16.1147 14.3515 16.3371C14.3161 16.3737 14.2845 16.4152 14.2578 16.4613C14.2351 16.5006 14.217 16.5413 14.2035 16.5828C14.0702 16.8473 14.0003 17.1397 14 17.4369V22.5112C14.0003 22.8448 14.0884 23.1724 14.2554 23.4612C14.4223 23.7501 14.6623 23.9899 14.9512 24.1567L14.9536 24.1581L19.39 26.6932L19.3912 26.6939C19.5919 26.8095 19.8112 26.8872 20.0383 26.9238C20.1279 26.9723 20.2305 26.9998 20.3396 26.9998C20.448 26.9998 20.5502 26.9725 20.6394 26.9245C20.8682 26.8882 21.0892 26.8103 21.2912 26.6938L21.2924 26.6932L25.7288 24.1581L25.7312 24.1567C26.0201 23.9899 26.2601 23.7501 26.4271 23.4612C26.594 23.1724 26.6821 22.8448 26.6824 22.5112V17.4369C26.6821 17.1452 26.6148 16.8581 26.4862 16.5975C26.4723 16.5509 26.4528 16.5052 26.4273 16.4613C26.3982 16.4109 26.3632 16.3661 26.3238 16.3271C26.1668 16.1092 25.9651 15.9263 25.7312 15.7913L21.2924 13.2549L21.2911 13.2541C21.0022 13.0876 20.6746 13 20.3412 13ZM20.9737 25.4146L25.0971 23.0584L25.0981 23.0578C25.194 23.0022 25.2736 22.9225 25.329 22.8265C25.3847 22.7303 25.4141 22.6211 25.4142 22.5099V17.7799L20.9737 20.3486V25.4146ZM19.7054 20.3451L15.2682 17.7783V22.5101C15.2684 22.6212 15.2978 22.7303 15.3534 22.8265C15.4088 22.9225 15.4884 23.0022 15.5843 23.0578L15.5853 23.0584L19.7054 25.4127V20.3451ZM20.6583 14.3532L24.7566 16.6951L23.198 17.5968L18.7932 15.0566L20.0217 14.3546L20.0241 14.3532C20.1205 14.2975 20.2299 14.2682 20.3412 14.2682C20.4525 14.2682 20.5619 14.2975 20.6583 14.3532ZM20.3426 19.2485L21.9306 18.3299L17.518 15.7853L15.9271 16.6943L20.3426 19.2485Z" fill="white"/>
</svg>
