<svg width="40" height="40" viewBox="0 0 40 40" fill="none" xmlns="http://www.w3.org/2000/svg">
<circle cx="20" cy="20" r="20" fill="#2E3338"/>
<path d="M22.4345 17.7582L24.8928 15.3666M26.2976 14L24.8928 15.3666L26.2976 14ZM19.5476 20.5666C19.9103 20.9147 20.1986 21.3292 20.3959 21.7862C20.5933 22.2431 20.6958 22.7336 20.6975 23.2292C20.6992 23.7249 20.6001 24.2159 20.4059 24.6742C20.2117 25.1324 19.9263 25.5488 19.566 25.8992C19.2057 26.2497 18.7778 26.5274 18.3067 26.7163C17.8357 26.9052 17.3309 27.0016 16.8214 27C16.3119 26.9983 15.8078 26.8986 15.3381 26.7067C14.8683 26.5147 14.4423 26.2342 14.0844 25.8814C13.3807 25.1726 12.9913 24.2232 13.0001 23.2379C13.0089 22.2525 13.4152 21.3099 14.1315 20.6131C14.8478 19.9163 15.8167 19.521 16.8296 19.5125C17.8425 19.5039 18.8183 19.8827 19.5469 20.5673L19.5476 20.5666ZM19.5476 20.5666L22.4345 17.7582L19.5476 20.5666ZM22.4345 17.7582L24.5416 19.8081L27 17.4165L24.8928 15.3666L22.4345 17.7582Z" stroke="white" stroke-width="1.7" stroke-linecap="round" stroke-linejoin="round"/>
</svg>
