<svg width="40" height="40" viewBox="0 0 40 40" fill="none" xmlns="http://www.w3.org/2000/svg">
<circle cx="20" cy="20" r="20" fill="#2E3338"/>
<path d="M18.3535 25.2363H26.0006" stroke="white" stroke-width="1.4" stroke-linecap="round" stroke-linejoin="round"/>
<path d="M22.0445 14.1819C22.311 13.9154 22.6725 13.7656 23.0494 13.7656C23.236 13.7656 23.4208 13.8024 23.5933 13.8738C23.7657 13.9452 23.9224 14.0499 24.0543 14.1819C24.1863 14.3139 24.291 14.4705 24.3624 14.643C24.4338 14.8154 24.4706 15.0002 24.4706 15.1868C24.4706 15.3735 24.4338 15.5583 24.3624 15.7307C24.291 15.9031 24.1863 16.0598 24.0543 16.1918L15.6798 24.5663L13 25.2362L13.67 22.5564L22.0445 14.1819Z" stroke="white" stroke-width="1.4" stroke-linecap="round" stroke-linejoin="round"/>
</svg>
