<svg width="9" height="13" viewBox="0 0 9 13" fill="none" xmlns="http://www.w3.org/2000/svg">
<path d="M4.49998 0C2.01867 0 0 2.17034 0 4.83807C0 6.33028 0.714584 8.14147 2.12397 10.2213C3.15536 11.7434 4.1717 12.829 4.21447 12.8745C4.29308 12.9581 4.3965 13 4.50005 13C4.60059 13 4.7012 12.9604 4.77918 12.8811C4.82205 12.8375 5.84096 11.7959 6.8743 10.2948C8.28481 8.24575 9 6.40985 9 4.83804C8.99995 2.17034 6.98123 0 4.49998 0ZM4.49998 6.92673C3.28688 6.92673 2.29999 5.88439 2.29999 4.6032C2.29999 3.32201 3.28691 2.27968 4.49998 2.27968C5.71304 2.27968 6.69996 3.32201 6.69996 4.6032C6.69996 5.88439 5.71302 6.92673 4.49998 6.92673Z" fill="#2E3338"/>
</svg>
