<svg width="12" height="14" viewBox="0 0 12 14" fill="none" xmlns="http://www.w3.org/2000/svg">
<path d="M11.5908 10.9089C11.5908 9.92986 10.7972 9.13615 9.81811 9.13615C8.83902 9.13615 8.04541 9.92986 8.04541 10.9089C8.04541 11.8879 8.83902 12.6816 9.81811 12.6816C10.7972 12.6816 11.5908 11.8879 11.5908 10.9089Z" fill="#5A5A5A"/>
<path d="M9.81802 8.72715C8.61471 8.72715 7.63623 9.70573 7.63623 10.909C7.63623 12.1122 8.61471 13.0908 9.81802 13.0908C11.0213 13.0908 11.9998 12.1122 11.9998 10.909C11.9998 9.70573 11.0213 8.72715 9.81802 8.72715ZM9.81802 12.2726C9.06585 12.2726 8.45441 11.6606 8.45441 10.909C8.45441 10.1574 9.06585 9.54533 9.81802 9.54533C10.5702 9.54533 11.1816 10.1574 11.1816 10.909C11.1816 11.6606 10.5702 12.2726 9.81802 12.2726Z" fill="#5A5A5A"/>
<path d="M11.5908 2.18131C11.5908 1.20232 10.7972 0.40861 9.81811 0.40861C8.83902 0.40861 8.04541 1.20232 8.04541 2.18131C8.04541 3.16039 8.83902 3.9541 9.81811 3.9541C10.7972 3.9541 11.5908 3.16039 11.5908 2.18131Z" fill="#5A5A5A"/>
<path d="M9.81802 -0.000392914C8.61471 -0.000392914 7.63623 0.97819 7.63623 2.18139C7.63623 3.3847 8.61471 4.36328 9.81802 4.36328C11.0213 4.36328 11.9998 3.3847 11.9998 2.18139C11.9998 0.97819 11.0213 -0.000392914 9.81802 -0.000392914ZM9.81802 3.5451C9.06585 3.5451 8.45441 2.93306 8.45441 2.18139C8.45441 1.42983 9.06585 0.81779 9.81802 0.81779C10.5702 0.81779 11.1816 1.42983 11.1816 2.18139C11.1816 2.93306 10.5702 3.5451 9.81802 3.5451Z" fill="#5A5A5A"/>
<path d="M3.95467 6.54566C3.95467 5.56658 3.16096 4.77297 2.18188 4.77297C1.20289 4.77297 0.40918 5.56658 0.40918 6.54566C0.40918 7.52475 1.20289 8.31836 2.18188 8.31836C3.16096 8.31836 3.95467 7.52475 3.95467 6.54566Z" fill="#5A5A5A"/>
<path d="M2.18179 4.36397C0.978583 4.36397 0 5.34245 0 6.54575C0 7.74906 0.978583 8.72754 2.18179 8.72754C3.38509 8.72754 4.36367 7.74906 4.36367 6.54575C4.36367 5.34245 3.38509 4.36397 2.18179 4.36397ZM2.18179 7.90936C1.42962 7.90936 0.818183 7.29742 0.818183 6.54575C0.818183 5.79409 1.42962 5.18215 2.18179 5.18215C2.93405 5.18215 3.54549 5.79409 3.54549 6.54575C3.54549 7.29742 2.93405 7.90936 2.18179 7.90936Z" fill="#5A5A5A"/>
<path d="M3.46934 6.80712C3.27948 6.80712 3.0951 6.9059 2.99473 7.08258C2.84581 7.34385 2.9375 7.67714 3.19878 7.82665L8.25998 10.7121C8.52126 10.8621 8.85454 10.7704 9.00406 10.5081C9.15297 10.2468 9.06129 9.91356 8.80001 9.76404L3.7387 6.87863C3.65361 6.83009 3.56093 6.80712 3.46934 6.80712Z" fill="#5A5A5A"/>
<path d="M8.53045 2.30723C8.43876 2.30723 8.34608 2.3302 8.26098 2.37874L3.19968 5.26415C2.9384 5.41306 2.84682 5.74635 2.99573 6.00822C3.14405 6.27 3.47783 6.36218 3.73971 6.21217L8.80101 3.32676C9.06229 3.17784 9.15387 2.84456 9.00496 2.58268C8.90408 2.406 8.71971 2.30723 8.53045 2.30723Z" fill="#5A5A5A"/>
</svg>
