<svg width="14" height="14" viewBox="0 0 14 14" fill="none" xmlns="http://www.w3.org/2000/svg">
<path d="M4.33203 12.334H2.33203C2.15522 12.334 1.98565 12.2637 1.86063 12.1387C1.7356 12.0137 1.66536 11.8441 1.66536 11.6673V9.66732C1.66536 9.49051 1.59513 9.32094 1.4701 9.19591C1.34508 9.07089 1.17551 9.00065 0.998698 9.00065C0.821887 9.00065 0.652318 9.07089 0.527293 9.19591C0.402269 9.32094 0.332031 9.49051 0.332031 9.66732V11.6673C0.332031 12.1978 0.542745 12.7065 0.917818 13.0815C1.29289 13.4566 1.8016 13.6673 2.33203 13.6673H4.33203C4.50884 13.6673 4.67841 13.5971 4.80344 13.4721C4.92846 13.347 4.9987 13.1775 4.9987 13.0007C4.9987 12.8238 4.92846 12.6543 4.80344 12.5292C4.67841 12.4042 4.50884 12.334 4.33203 12.334ZM0.998698 5.00065C1.17551 5.00065 1.34508 4.93041 1.4701 4.80539C1.59513 4.68036 1.66536 4.5108 1.66536 4.33398V2.33398C1.66536 2.15717 1.7356 1.9876 1.86063 1.86258C1.98565 1.73756 2.15522 1.66732 2.33203 1.66732H4.33203C4.50884 1.66732 4.67841 1.59708 4.80344 1.47206C4.92846 1.34703 4.9987 1.17746 4.9987 1.00065C4.9987 0.82384 4.92846 0.654271 4.80344 0.529246C4.67841 0.404222 4.50884 0.333984 4.33203 0.333984H2.33203C1.8016 0.333984 1.29289 0.544698 0.917818 0.919771C0.542745 1.29484 0.332031 1.80355 0.332031 2.33398V4.33398C0.332031 4.5108 0.402269 4.68036 0.527293 4.80539C0.652318 4.93041 0.821887 5.00065 0.998698 5.00065ZM11.6654 0.333984H9.66537C9.48855 0.333984 9.31898 0.404222 9.19396 0.529246C9.06894 0.654271 8.9987 0.82384 8.9987 1.00065C8.9987 1.17746 9.06894 1.34703 9.19396 1.47206C9.31898 1.59708 9.48855 1.66732 9.66537 1.66732H11.6654C11.8422 1.66732 12.0117 1.73756 12.1368 1.86258C12.2618 1.9876 12.332 2.15717 12.332 2.33398V4.33398C12.332 4.5108 12.4023 4.68036 12.5273 4.80539C12.6523 4.93041 12.8219 5.00065 12.9987 5.00065C13.1755 5.00065 13.3451 4.93041 13.4701 4.80539C13.5951 4.68036 13.6654 4.5108 13.6654 4.33398V2.33398C13.6654 1.80355 13.4547 1.29484 13.0796 0.919771C12.7045 0.544698 12.1958 0.333984 11.6654 0.333984ZM9.66537 7.00065C9.66537 6.82384 9.59513 6.65427 9.4701 6.52925C9.34508 6.40422 9.17551 6.33398 8.9987 6.33398H7.66536V5.00065C7.66536 4.82384 7.59513 4.65427 7.4701 4.52925C7.34508 4.40422 7.17551 4.33398 6.9987 4.33398C6.82189 4.33398 6.65232 4.40422 6.52729 4.52925C6.40227 4.65427 6.33203 4.82384 6.33203 5.00065V6.33398H4.9987C4.82189 6.33398 4.65232 6.40422 4.52729 6.52925C4.40227 6.65427 4.33203 6.82384 4.33203 7.00065C4.33203 7.17746 4.40227 7.34703 4.52729 7.47206C4.65232 7.59708 4.82189 7.66732 4.9987 7.66732H6.33203V9.00065C6.33203 9.17746 6.40227 9.34703 6.52729 9.47206C6.65232 9.59708 6.82189 9.66732 6.9987 9.66732C7.17551 9.66732 7.34508 9.59708 7.4701 9.47206C7.59513 9.34703 7.66536 9.17746 7.66536 9.00065V7.66732H8.9987C9.17551 7.66732 9.34508 7.59708 9.4701 7.47206C9.59513 7.34703 9.66537 7.17746 9.66537 7.00065ZM12.9987 9.00065C12.8219 9.00065 12.6523 9.07089 12.5273 9.19591C12.4023 9.32094 12.332 9.49051 12.332 9.66732V11.6673C12.332 11.8441 12.2618 12.0137 12.1368 12.1387C12.0117 12.2637 11.8422 12.334 11.6654 12.334H9.66537C9.48855 12.334 9.31898 12.4042 9.19396 12.5292C9.06894 12.6543 8.9987 12.8238 8.9987 13.0007C8.9987 13.1775 9.06894 13.347 9.19396 13.4721C9.31898 13.5971 9.48855 13.6673 9.66537 13.6673H11.6654C12.1958 13.6673 12.7045 13.4566 13.0796 13.0815C13.4547 12.7065 13.6654 12.1978 13.6654 11.6673V9.66732C13.6654 9.49051 13.5951 9.32094 13.4701 9.19591C13.3451 9.07089 13.1755 9.00065 12.9987 9.00065Z" fill="#B8A7B1"/>
</svg>
