<svg width="13" height="14" viewBox="0 0 13 14" fill="none" xmlns="http://www.w3.org/2000/svg">
<path d="M10.7595 0.691557C10.5042 0.437006 10.2031 0.223022 9.8647 0.0555918C9.69933 -0.0262122 9.50344 -0.0168052 9.34672 0.0805259C9.18999 0.17783 9.09466 0.349215 9.09466 0.533722V2.85136L8.30211 3.34528L7.52098 2.85302V0.533428C7.52098 0.349082 7.42579 0.177803 7.26923 0.0804457C7.11268 -0.0168853 6.91698 -0.0265329 6.75163 0.0549772C6.39114 0.232669 6.08389 0.44684 5.83837 0.691557C5.1935 1.33436 4.75148 2.17982 4.62566 3.0112C4.47413 4.01214 4.7646 4.93609 5.44357 5.61287C5.71899 5.88736 6.20658 6.18301 6.69415 6.33441V12.0559C6.69412 12.483 6.85829 12.8842 7.15643 13.1856C7.45676 13.4892 7.85838 13.6564 8.28712 13.6564H8.28741C8.71533 13.6564 9.1178 13.4901 9.42064 13.1883C9.72653 12.8834 9.8949 12.4813 9.89482 12.0559C9.89477 11.7614 9.65593 11.5226 9.36137 11.5226C9.06676 11.5227 8.82787 11.7616 8.82792 12.0562C8.82795 12.1958 8.77094 12.3295 8.66749 12.4326C8.56599 12.5338 8.43103 12.5895 8.28725 12.5895C8.14556 12.5895 8.01325 12.5348 7.91487 12.4353C7.81564 12.335 7.76102 12.2003 7.76102 12.056V5.90064C7.76102 5.6203 7.54399 5.38779 7.26429 5.36847C6.93421 5.34568 6.41036 5.07012 6.19672 4.85718C5.76448 4.4263 5.58112 3.8274 5.68053 3.17083C5.76394 2.61977 6.04265 2.05422 6.45405 1.59258V3.14728C6.45405 3.33051 6.54807 3.5009 6.70307 3.59858L8.01608 4.42605C8.18904 4.53509 8.40912 4.53563 8.58267 4.4275L9.91024 3.6001C10.0666 3.50267 10.1616 3.33155 10.1616 3.14736V1.61281C10.6491 2.17018 10.935 2.87191 10.935 3.52883C10.935 3.89204 10.8424 4.41737 10.4012 4.85715C10.181 5.07659 9.65676 5.35396 9.33601 5.36922C9.05158 5.38277 8.82792 5.61733 8.82792 5.90208V12.0795C8.82792 12.3741 9.06676 12.613 9.36137 12.613C9.65596 12.613 9.89482 12.3741 9.89482 12.0795V6.34034C10.3817 6.19167 10.8724 5.8939 11.1544 5.61281C11.7088 5.06015 12.0019 4.33955 12.0019 3.52888C12.0019 2.52765 11.5375 1.467 10.7595 0.691557Z" fill="#FAFAFA"/>
<path d="M3.26069 3.32375C3.39073 3.19178 3.44295 3.00177 3.39864 2.82186L2.81185 0.439096C2.75313 0.200713 2.53936 0.0332031 2.29387 0.0332031H1.12026C0.874765 0.0332031 0.660995 0.20074 0.602281 0.439096L0.0154884 2.82186C-0.028821 3.00177 0.0233989 3.19178 0.153441 3.32375L1.20027 4.38645V6.95276C0.579298 7.17295 0.133371 7.76626 0.133371 8.46169V12.0825C0.133264 12.51 0.299732 12.9119 0.602094 13.2143C0.90435 13.5165 1.3061 13.683 1.73332 13.683C1.73345 13.6829 1.73364 13.683 1.73377 13.683C2.16129 13.683 2.56315 13.5165 2.8654 13.2143C3.16768 12.912 3.33415 12.51 3.3341 12.0826V8.46171C3.3341 8.0342 3.1676 7.63234 2.86532 7.33006C2.69359 7.15833 2.48965 7.03042 2.2672 6.95201V4.33231L3.26069 3.32375ZM2.26717 8.46171V12.0826C2.2672 12.2252 2.21172 12.3591 2.11097 12.4598C2.01024 12.5606 1.8763 12.6161 1.73364 12.6161H1.73348C1.59109 12.6161 1.4572 12.5606 1.3565 12.4598C1.25575 12.3591 1.20027 12.2252 1.2003 12.0827V8.46171C1.2003 8.16761 1.43959 7.92829 1.73372 7.92826C1.87622 7.92826 2.01019 7.98374 2.11094 8.0845C2.21169 8.1853 2.2672 8.31925 2.2672 8.46171H2.26717ZM1.70708 3.38059L1.12277 2.78741L1.53831 1.10005H1.87584L2.29141 2.78741L1.70708 3.38059Z" fill="#FAFAFA"/>
</svg>
