<svg width="14" height="18" viewBox="0 0 14 18" fill="none" xmlns="http://www.w3.org/2000/svg">
<path d="M13 4.11111L13.3485 4.46961L13.7173 4.11111L13.3485 3.75261L13 4.11111ZM0.5 8C0.5 8.27614 0.723858 8.5 1 8.5C1.27614 8.5 1.5 8.27614 1.5 8L0.5 8ZM10.1485 7.58072L13.3485 4.46961L12.6515 3.75261L9.45146 6.86372L10.1485 7.58072ZM13.3485 3.75261L10.1485 0.641502L9.45146 1.3585L12.6515 4.46961L13.3485 3.75261ZM13 3.61111L4.88889 3.61111L4.88889 4.61111L13 4.61111L13 3.61111ZM4.88889 3.61111C2.46497 3.61111 0.5 5.57608 0.5 8L1.5 8C1.5 6.12837 3.01726 4.61111 4.88889 4.61111L4.88889 3.61111Z" fill="white"/>
<path d="M1 13.8889L0.651461 13.5304L0.282721 13.8889L0.651461 14.2474L1 13.8889ZM13.5 10C13.5 9.72386 13.2761 9.5 13 9.5C12.7239 9.5 12.5 9.72386 12.5 10L13.5 10ZM3.85146 10.4193L0.651461 13.5304L1.34854 14.2474L4.54854 11.1363L3.85146 10.4193ZM0.651461 14.2474L3.85146 17.3585L4.54854 16.6415L1.34854 13.5304L0.651461 14.2474ZM1 14.3889L9.11111 14.3889L9.11111 13.3889L1 13.3889L1 14.3889ZM9.11111 14.3889C11.535 14.3889 13.5 12.4239 13.5 10L12.5 10C12.5 11.8716 10.9827 13.3889 9.11111 13.3889L9.11111 14.3889Z" fill="white"/>
</svg>
