<svg width="11" height="12" viewBox="0 0 11 12" fill="none" xmlns="http://www.w3.org/2000/svg">
<path fill-rule="evenodd" clip-rule="evenodd" d="M6.90791 3.33223H2.22859L4.23401 1.20858C4.49523 0.931957 4.49523 0.483267 4.23401 0.206648C3.97279 -0.0688826 3.55011 -0.0688826 3.28889 0.206648L0.196429 3.48252C0.0709611 3.61538 0 3.79508 0 3.98348C0 4.1708 0.0709611 4.35049 0.196429 4.48336L3.39585 7.8714C3.52646 8.00971 3.69718 8.07941 3.86892 8.07941C4.03964 8.07941 4.21036 8.00971 4.34097 7.8714C4.60219 7.59587 4.60219 7.14718 4.34097 6.87056L2.33657 4.748H6.90791C8.42792 4.748 9.66408 6.05704 9.66408 7.66557C9.66408 9.27628 8.42792 10.5853 6.90791 10.5853H5.32414C4.95494 10.5853 4.65567 10.9022 4.65567 11.2921C4.65567 11.6831 4.95494 12 5.32414 12H6.90791C9.16427 12 11 10.056 11 7.66557C11 5.27619 9.16427 3.33223 6.90791 3.33223Z" fill="#272727"/>
</svg>
