<svg width="17" height="8" viewBox="0 0 17 8" fill="none" xmlns="http://www.w3.org/2000/svg">
<path d="M0.296178 1.3333L0.270733 7.06881C0.271119 7.16353 0.290198 7.25724 0.326878 7.34457C0.363557 7.4319 0.417113 7.51113 0.484478 7.57772C0.618549 7.71067 0.799496 7.78561 0.988307 7.78638L15.4161 7.81183C15.6063 7.81126 15.7884 7.73548 15.9229 7.60103C16.0573 7.46658 16.1331 7.28439 16.1337 7.09425L16.1337 1.3333C16.1333 1.23858 16.1142 1.14487 16.0776 1.05754C16.0409 0.970208 15.9873 0.890976 15.9199 0.824386C15.7859 0.691439 15.6049 0.616502 15.4161 0.61573L12.5356 0.615729L3.89423 0.61573L1.01375 0.615729C0.823614 0.616295 0.641424 0.692078 0.506976 0.826527C0.372527 0.960976 0.296745 1.14316 0.296178 1.3333ZM3.17665 2.05597L3.17665 2.77863C3.17722 2.96877 3.253 3.15096 3.38745 3.28541C3.5219 3.41985 3.70409 3.49564 3.89423 3.4962C3.98924 3.49659 4.08338 3.47817 4.17124 3.44199C4.25909 3.40581 4.33891 3.35259 4.40609 3.28541C4.47328 3.21823 4.52649 3.13841 4.56267 3.05055C4.59885 2.9627 4.61728 2.86855 4.61689 2.77354L4.61689 2.05088L6.05713 2.05597V4.21378C6.07111 4.39451 6.15277 4.56331 6.2858 4.68644C6.41883 4.80958 6.59343 4.87798 6.7747 4.87798C6.95597 4.87798 7.13057 4.80958 7.2636 4.68644C7.39663 4.56331 7.47829 4.39451 7.49227 4.21378V2.05597H8.9376L8.93251 2.77354C8.93251 2.9652 9.00865 3.14901 9.14417 3.28454C9.2797 3.42007 9.46351 3.4962 9.65517 3.4962C9.84684 3.4962 10.0306 3.42007 10.1662 3.28454C10.3017 3.14901 10.3778 2.9652 10.3778 2.77354L10.3727 2.05597L11.813 2.05088L11.8181 4.21378C11.8186 4.40392 11.8944 4.58611 12.0289 4.72055C12.1633 4.855 12.3455 4.93079 12.5356 4.93135C12.7258 4.93079 12.908 4.855 13.0424 4.72055C13.1769 4.5861 13.2527 4.40392 13.2532 4.21378V2.05597L14.6935 2.05088L14.6935 6.37668L1.73642 6.37668L1.73642 2.05088L3.17665 2.05597Z" fill="#5A5A5A"/>
</svg>
