<svg width="12" height="12" viewBox="0 0 12 12" fill="none" xmlns="http://www.w3.org/2000/svg">
<path d="M0.590453 6.08741C0.916543 6.08741 1.18084 6.35171 1.18084 6.6778V9.98422L9.98429 1.18077H6.67786C6.35177 1.18077 6.08748 0.916477 6.08748 0.590387C6.08748 0.264296 6.35177 0 6.67786 0H11.4096C11.7356 0 12 0.264296 12 0.590387V5.32214C12 5.64823 11.7357 5.91252 11.4096 5.91252C11.0835 5.91252 10.8192 5.64823 10.8192 5.32214V2.01578L2.01578 10.8192H5.3222C5.64829 10.8192 5.91259 11.0835 5.91259 11.4096C5.91259 11.7357 5.64829 12 5.3222 12H0.590453C0.264362 12 6.67572e-05 11.7357 6.67572e-05 11.4096V6.67786C6.67572e-05 6.35177 0.264362 6.08741 0.590453 6.08741Z" fill="#272727"/>
</svg>
