<svg width="21" height="9" viewBox="0 0 21 9" fill="none" xmlns="http://www.w3.org/2000/svg">
<path d="M0.857421 0.977791L0.826514 7.94452C0.826984 8.05957 0.850159 8.1734 0.894712 8.27948C0.939265 8.38556 1.00432 8.4818 1.08614 8.56269C1.249 8.72417 1.46879 8.8152 1.69813 8.81613L19.2231 8.84704C19.4541 8.84636 19.6754 8.75431 19.8387 8.59099C20.002 8.42768 20.0941 8.20638 20.0947 7.97543L20.0947 0.977794C20.0943 0.86274 20.0711 0.74891 20.0265 0.642832C19.982 0.536754 19.9169 0.440512 19.8351 0.359628C19.6723 0.198141 19.4525 0.107118 19.2231 0.10618L15.7243 0.106179L5.22785 0.106179L1.72904 0.106178C1.49808 0.106866 1.27678 0.198916 1.11347 0.362227C0.95016 0.525538 0.85811 0.746837 0.857421 0.977791ZM4.35624 1.85559L4.35624 2.73338C4.35693 2.96434 4.44898 3.18564 4.61229 3.34895C4.7756 3.51226 4.9969 3.60431 5.22785 3.605C5.34326 3.60547 5.45762 3.58309 5.56433 3.53914C5.67104 3.4952 5.768 3.43056 5.84961 3.34895C5.93121 3.26735 5.99585 3.17039 6.0398 3.06368C6.08374 2.95697 6.10612 2.84261 6.10565 2.7272L6.10565 1.84941L7.85506 1.85559L7.85506 4.47661C7.87204 4.69614 7.97124 4.90117 8.13283 5.05074C8.29441 5.20031 8.50649 5.28339 8.72667 5.2834C8.94686 5.28339 9.15893 5.20031 9.32052 5.05074C9.48211 4.90117 9.5813 4.69614 9.59829 4.47661V1.85559H11.3539L11.3477 2.7272C11.3477 2.96001 11.4402 3.18328 11.6048 3.3479C11.7694 3.51252 11.9927 3.605 12.2255 3.605C12.4583 3.605 12.6816 3.51252 12.8462 3.3479C13.0108 3.18328 13.1033 2.96001 13.1033 2.7272L13.0971 1.85559L14.8465 1.84941L14.8527 4.47661C14.8534 4.70757 14.9454 4.92887 15.1087 5.09218C15.2721 5.25549 15.4934 5.34754 15.7243 5.34823C15.9553 5.34754 16.1766 5.25549 16.3399 5.09218C16.5032 4.92887 16.5952 4.70757 16.5959 4.47661L16.5959 1.85559L18.3453 1.84941V7.10382L2.60683 7.10382L2.60683 1.84941L4.35624 1.85559Z" fill="#2E3338"/>
</svg>
