<svg width="15" height="16" viewBox="0 0 15 16" fill="none" xmlns="http://www.w3.org/2000/svg">
<path fill-rule="evenodd" clip-rule="evenodd" d="M10.5202 1.59212C9.98937 1.59212 9.48028 1.80299 9.10493 2.17834L2.97826 8.30501C2.35273 8.93055 2.0013 9.77896 2.0013 10.6636C2.0013 11.5483 2.35273 12.3967 2.97826 13.0222C3.6038 13.6477 4.45222 13.9992 5.33686 13.9992C6.22151 13.9992 7.06992 13.6477 7.69546 13.0222L13.8221 6.89553C14.0825 6.63518 14.5046 6.63518 14.7649 6.89553C15.0253 7.15588 15.0253 7.57799 14.7649 7.83834L8.63826 13.965C7.76268 14.8406 6.57513 15.3325 5.33686 15.3325C4.09859 15.3325 2.91104 14.8406 2.03546 13.965C1.15987 13.0894 0.667969 11.9019 0.667969 10.6636C0.667969 9.42534 1.15987 8.23779 2.03546 7.3622L8.16212 1.23553C8.78752 0.610135 9.63575 0.258789 10.5202 0.258789C11.4046 0.258789 12.2529 0.610135 12.8783 1.23553C13.5037 1.86093 13.855 2.70916 13.855 3.59361C13.855 4.47805 13.5037 5.32628 12.8783 5.95168L6.74493 12.0783C6.36972 12.4536 5.86082 12.6643 5.33019 12.6643C4.79956 12.6643 4.29067 12.4536 3.91546 12.0783C3.54024 11.7031 3.32945 11.1942 3.32945 10.6636C3.32945 10.133 3.54024 9.62408 3.91546 9.24887L9.57573 3.59526C9.83624 3.33506 10.2583 3.33531 10.5185 3.59581C10.7787 3.85631 10.7785 4.27842 10.518 4.53862L4.85826 10.1917C4.73328 10.3168 4.66279 10.4867 4.66279 10.6636C4.66279 10.8406 4.7331 11.0104 4.85826 11.1355C4.98343 11.2607 5.15319 11.331 5.33019 11.331C5.5072 11.331 5.67696 11.2607 5.80212 11.1355L11.9355 5.00887C12.3106 4.63354 12.5217 4.12431 12.5217 3.59361C12.5217 3.06278 12.3108 2.55369 11.9355 2.17834C11.5601 1.80299 11.051 1.59212 10.5202 1.59212Z" fill="#2E3338"/>
</svg>
