<svg width="12" height="12" viewBox="0 0 12 12" fill="none" xmlns="http://www.w3.org/2000/svg">
<path fill-rule="evenodd" clip-rule="evenodd" d="M6.3221 4.99242V0.94053C6.3221 0.573981 6.02442 0.276306 5.65729 0.275722C5.28958 0.275722 4.9919 0.573398 4.9919 0.941114L4.9919 4.993L0.940596 4.99242C0.572879 4.99242 0.275204 5.29009 0.275788 5.65723C0.275788 6.02494 0.573463 6.32262 0.940596 6.32204L4.99248 6.32204L4.99248 10.3739C4.99248 10.7416 5.28958 11.0387 5.65729 11.0387C5.84115 11.0393 6.00692 10.9646 6.12715 10.8444C6.24739 10.7241 6.3221 10.5584 6.3221 10.3739L6.3221 6.3232L10.3734 6.32262C10.5573 6.3232 10.7236 6.24791 10.8438 6.12767C10.9641 6.00743 11.0388 5.84167 11.0388 5.65723C11.0382 5.29009 10.7411 4.993 10.374 4.99242H6.3221Z" fill="#2E3338"/>
</svg>
