<svg width="15" height="16" viewBox="0 0 15 16" fill="none" xmlns="http://www.w3.org/2000/svg">
<path fill-rule="evenodd" clip-rule="evenodd" d="M9.41988 4.44297H3.03899L5.77365 1.61144C6.12986 1.24261 6.12986 0.644356 5.77365 0.27553C5.41745 -0.0918434 4.84106 -0.0918434 4.48485 0.27553L0.267857 4.64336C0.0967651 4.82051 0 5.0601 0 5.31131C0 5.56107 0.0967651 5.80066 0.267857 5.97781L4.6307 10.4952C4.80881 10.6796 5.0416 10.7725 5.2758 10.7725C5.5086 10.7725 5.7414 10.6796 5.9195 10.4952C6.27571 10.1278 6.27571 9.52958 5.9195 9.16075L3.18624 6.33066H9.41988C11.4926 6.33066 13.1783 8.07605 13.1783 10.2208C13.1783 12.3684 11.4926 14.1138 9.41988 14.1138H7.26019C6.75673 14.1138 6.34864 14.5363 6.34864 15.0562C6.34864 15.5774 6.75673 16 7.26019 16H9.41988C12.4967 16 15 13.4081 15 10.2208C15 7.03492 12.4967 4.44297 9.41988 4.44297Z" fill="#2E3338"/>
</svg>
