<svg width="18" height="12" viewBox="0 0 18 12" fill="none" xmlns="http://www.w3.org/2000/svg">
<path fill-rule="evenodd" clip-rule="evenodd" d="M13.3935 5.86178V4.25239C13.3935 4.07277 13.4716 3.9039 13.6047 3.79708L16.9237 1.12193C17.2681 0.844449 17.7568 1.11178 17.7568 1.57783V5.86178V10.1463C17.7568 10.6118 17.2681 10.8797 16.9237 10.6016L13.6047 7.92707C13.4716 7.82025 13.3935 7.65078 13.3935 7.47116V5.86178ZM0 9.6432V2.08021C0 0.936273 0.861085 0 1.91372 0H10.4363C11.4889 0 12.35 0.936273 12.35 2.08021V9.6432C12.35 10.7871 11.4889 11.7234 10.4363 11.7234H1.91372C0.861085 11.7234 0 10.7871 0 9.6432Z" fill="white"/>
</svg>
