<svg width="207" height="61" viewBox="0 0 207 61" fill="none" xmlns="http://www.w3.org/2000/svg">
<path d="M135.316 31.7752L137.594 28.5217H135.533V28.0879H138.245V28.4132L136.076 31.6667H138.353V32.1005H135.425V31.7752H135.316Z" fill="#272727"/>
<path d="M143.671 28.0879V29.7146H145.623V28.0879H146.166V32.1005H145.623V30.2569H143.671V32.1005H143.129V28.0879H143.671Z" fill="#272727"/>
<path d="M152.449 30.7991L152.015 32.1005H151.473L152.882 28.0879H153.533L154.943 32.1005H154.401L153.967 30.7991H152.449ZM153.859 30.3654L153.425 29.1724C153.316 28.9555 153.316 28.6301 153.208 28.4132C153.099 28.6301 153.099 28.847 152.991 29.1724L152.557 30.3654H153.859Z" fill="#272727"/>
<path d="M159.828 32.1005V28.0879H160.37L161.672 30.1485C161.997 30.5823 162.214 31.0161 162.431 31.4499C162.431 30.9076 162.322 30.4738 162.322 29.8231V28.1964H162.865V32.209H162.322L161.021 30.1485C160.696 29.7147 160.479 29.2809 160.262 28.8471C160.262 29.3893 160.262 29.8231 160.262 30.4738V32.209H159.828V32.1005Z" fill="#272727"/>
<path d="M168.504 32.1005V28.0879H169.046L170.348 30.1485C170.673 30.5823 170.89 31.0161 171.107 31.4499C171.107 30.9076 170.998 30.4738 170.998 29.8231V28.1964H171.541V32.209H170.998L169.697 30.1485C169.371 29.7147 169.155 29.2809 168.938 28.8471C168.938 29.3893 168.938 29.8231 168.938 30.4738V32.209H168.504V32.1005Z" fill="#272727"/>
<path d="M177.933 30.7991L177.499 32.1005H176.957L178.367 28.0879H179.018L180.427 32.1005H179.885L179.451 30.7991H177.933ZM179.234 30.3654L178.801 29.1724C178.692 28.9555 178.692 28.6301 178.584 28.4132C178.475 28.6301 178.475 28.847 178.367 29.1724L177.933 30.3654H179.234Z" fill="#272727"/>
<path d="M186.827 28.0879H187.369V30.04C187.478 29.9315 187.586 29.7147 187.695 29.6062L188.888 28.0879H189.538L188.129 29.8231L189.647 32.1005H188.996L187.695 30.1485L187.261 30.5822V32.1005H186.719V28.0879H186.827Z" fill="#272727"/>
<path d="M195.617 30.7991L195.183 32.1005H194.641L196.05 28.0879H196.701L198.111 32.1005H197.569L197.135 30.7991H195.617ZM196.918 30.3654L196.484 29.1724C196.376 28.9555 196.376 28.6301 196.267 28.4132C196.159 28.6301 196.159 28.847 196.05 29.1724L195.617 30.3654H196.918Z" fill="#272727"/>
<path d="M202.984 32.1005V28.0879H203.527L204.828 30.1485C205.153 30.5823 205.37 31.0161 205.587 31.4499C205.587 30.9076 205.479 30.4738 205.479 29.8231V28.1964H206.021V32.209H205.479L204.177 30.1485C203.852 29.7147 203.635 29.2809 203.418 28.8471C203.418 29.3893 203.418 29.8231 203.418 30.4738V32.209H202.984V32.1005Z" fill="#272727"/>
<path fill-rule="evenodd" clip-rule="evenodd" d="M98.5511 6.72383C98.1173 7.91678 97.7919 9.43512 97.3581 10.6281C96.2736 14.2069 94.43 17.8942 92.3694 20.9308C90.5258 23.642 87.4892 27.004 84.8864 28.7392C83.8019 29.3899 82.0667 30.5828 81.6329 29.4983C81.1991 28.5222 83.4766 14.7491 83.9104 12.0379C84.0188 11.1703 84.2357 10.0858 84.4526 9.32665C84.778 8.24216 85.1033 7.91678 84.6695 6.72383L84.2357 6.83232C83.1512 9.54357 81.6329 19.5209 81.1991 23.2082C80.9822 25.0519 80.8738 27.2208 80.5484 28.956C79.5724 28.7391 78.3794 28.0885 77.2949 27.7631C74.4752 26.8955 74.2583 28.9561 75.1259 29.9321C77.1865 32.2096 79.0301 31.6673 80.1146 32.318C80.2231 33.2941 79.8977 35.4631 79.7893 36.656C79.5724 38.7166 79.0301 45.6573 80.1146 47.2841C80.3315 47.6094 80.9822 48.0432 81.416 47.9347C81.416 47.9347 81.8498 47.9348 81.3076 47.2841C81.3076 47.2841 80.9822 46.9587 80.8738 46.8503C80.6569 46.5249 80.5484 46.1996 80.44 45.6573C79.8977 42.5123 80.6569 37.0898 80.8738 33.6194C80.9822 32.5349 80.9822 31.5589 82.1752 31.7758C83.4766 31.9927 94.9722 40.4518 99.0933 40.6687C101.371 40.7771 102.455 38.9334 102.13 37.8489C102.021 37.5236 102.13 37.7405 101.913 37.5236C100.72 36.7645 101.696 40.6686 97.2497 38.9334C95.2976 38.1743 84.4526 32.1011 83.8019 31.0166C84.0188 30.5828 86.1878 29.3898 87.2723 28.4138C92.8032 23.2082 96.1652 17.5688 98.4426 9.8689C98.9849 7.91681 100.829 1.84365 100.178 0C98.9849 0 99.0933 2.06051 98.8764 3.145C98.9849 4.2295 98.6595 5.53089 98.5511 6.72383ZM75.9935 28.956C77.1865 28.7391 80.0062 29.8237 80.3315 30.6913C79.6808 31.0166 78.271 30.9081 77.5118 30.5828C76.8611 30.2574 75.8851 29.7152 75.9935 28.956Z" fill="#272727"/>
<path fill-rule="evenodd" clip-rule="evenodd" d="M25.5679 6.28988C25.351 7.04903 24.5919 8.02504 24.2665 8.89264C23.9412 9.76023 23.6158 10.7363 23.3989 11.7124C22.7482 14.6405 20.9046 31.7756 20.9046 31.7756C21.3384 34.8122 19.3863 45.2233 20.9046 46.5247C21.7722 45.874 21.8806 44.2473 22.206 43.0543C22.6398 41.1022 25.0257 32.9685 26.3271 32.7516C26.7609 33.2938 26.9778 35.6798 27.0862 36.6558C27.3031 37.9572 27.7369 39.0417 28.1707 40.1262C30.3397 44.898 33.2678 42.4036 32.8341 41.3191C31.858 41.1022 31.3158 42.9459 30.0144 41.5361C29.3637 40.8854 29.0383 39.8009 28.713 38.8248C28.1707 37.1981 27.7369 33.2939 27.1947 32.3178C25.2426 28.739 22.0975 40.1262 21.6637 41.8614C21.4468 41.6445 21.5553 41.8614 21.4468 41.5361C21.3384 41.1023 21.6637 37.1981 21.6637 36.6558L22.4229 26.4615C22.6398 24.1841 26.544 14.0982 27.0862 9.43489C27.3031 7.59124 27.52 5.42228 25.5679 6.28988ZM23.182 20.1714C22.7482 19.3038 24.4834 8.56731 26.2186 7.15747C26.9778 8.35041 25.5679 12.4715 25.1341 13.8814L23.5074 19.5208C23.5074 19.6292 23.3989 19.8461 23.2905 19.8461C23.2905 20.1715 23.2905 20.063 23.182 20.1714Z" fill="#272727"/>
<path fill-rule="evenodd" clip-rule="evenodd" d="M116.013 33.836C116.772 32.86 117.314 32.1009 119.917 33.7276C120.459 34.053 121.544 33.7276 122.845 33.0769C124.797 32.2093 127.508 31.1248 131.087 31.4502C131.304 31.4502 131.412 31.6671 131.412 31.8839C131.412 32.1008 131.196 32.2093 130.979 32.2093C127.617 31.8839 125.014 32.9685 123.062 33.7276C121.435 34.3783 120.351 34.9206 119.375 34.2699C117.422 32.9685 116.989 33.5107 116.555 34.1614C116.338 34.4868 116.013 34.8121 115.579 35.1374C115.037 35.7881 113.844 35.8966 112.976 34.1614C112.434 33.1854 112 29.9319 111.349 29.3896C110.373 30.1488 108.746 35.3544 108.096 36.9811C107.662 38.174 107.445 38.9332 106.252 38.7163C104.842 36.5473 106.144 31.0164 106.035 29.0643C105.168 29.6065 105.601 30.691 103.758 32.86C103.432 33.2938 102.673 34.2699 101.806 33.4023C101.155 32.7516 101.48 31.6671 100.938 31.0164C100.287 31.6671 99.2029 34.8121 97.793 33.836C96.7085 33.0769 97.793 28.4135 99.7451 26.7868C100.504 26.1361 101.48 26.57 101.914 27.1122C102.673 28.0882 101.372 31.5586 102.565 32.7515C104.083 32.5346 106.361 26.0276 107.011 24.0756C107.228 23.5333 107.337 22.9911 107.553 22.4488C107.77 21.7981 107.77 21.1475 108.421 21.1475C109.072 21.7982 108.313 23.9672 108.096 24.9432C107.553 27.4375 105.71 35.5712 106.903 37.3064C107.987 36.2219 109.939 26.7868 112.217 28.3051C112.759 28.6305 112.976 29.6065 113.084 30.3657C113.301 31.6671 113.518 34.2698 114.711 34.5952C115.253 34.8121 115.687 34.2698 116.013 33.836ZM98.3353 33.2938C98.0099 32.3177 99.3113 27.546 101.046 27.546C101.372 28.522 99.962 31.2333 99.4198 32.3178C99.0944 32.7516 98.986 33.1853 98.3353 33.2938Z" fill="#272727"/>
<path fill-rule="evenodd" clip-rule="evenodd" d="M54.4121 31.6678C54.9543 32.2101 55.4966 38.3917 58.3163 39.2593C59.6177 39.6931 60.3768 38.6087 61.136 38.2833C61.136 38.934 61.136 39.8016 61.4613 40.127C62.0036 40.6692 62.7627 40.2354 63.0881 39.8016C64.281 38.6086 64.3895 37.4157 65.1486 36.9819C65.5824 37.6326 65.7993 38.1748 66.7754 38.3917C67.7514 38.6086 68.619 38.1749 69.2697 37.7411C70.6796 36.765 71.2218 36.0058 71.7641 33.8368C70.788 34.2706 70.6796 35.6805 69.1613 36.8735C67.9683 37.7411 66.45 38.3918 65.9078 36.3312C65.7993 35.789 65.6909 34.2706 65.9078 33.8368C66.2331 33.2946 67.4261 33.6199 66.6669 32.2101C64.8233 29.065 61.6782 36.1143 61.4613 36.4396C56.6895 42.8382 55.9304 31.0171 54.7374 30.5833C53.653 30.3664 53.5445 31.3425 53.2192 32.2101C52.8938 33.0777 52.5684 33.8368 52.2431 34.8129C51.8093 36.1143 51.1586 38.934 50.5079 39.91C50.0741 39.2593 49.9657 33.7284 49.9657 32.5355C49.9657 31.2341 49.9657 29.9326 49.9657 28.6312C49.9657 27.8721 50.3995 25.4862 50.291 25.0524C49.2065 24.6186 49.315 26.1369 49.0981 27.8721C48.7727 31.1256 48.9896 37.0904 49.4234 40.127C49.5319 40.6692 49.5319 41.4283 49.8572 41.6452C50.3995 42.079 50.8333 41.5368 51.0502 41.103C51.484 40.3438 51.8093 38.8255 52.1347 37.8495C52.7854 36.2227 53.5445 32.8608 54.4121 31.6678ZM62.112 39.3678C61.6782 37.5242 64.1726 31.9932 66.0162 32.427C66.0162 33.403 65.3655 32.8608 65.0402 34.1622C64.6064 35.6805 63.5219 39.1509 62.112 39.3678Z" fill="#272727"/>
<path fill-rule="evenodd" clip-rule="evenodd" d="M41.3994 32.8595C40.9656 34.5947 38.905 39.475 37.7121 39.6918C36.9529 38.9327 37.1698 36.9806 37.2783 35.7877C37.3867 34.2694 37.0614 33.2933 35.4346 33.4018C33.4825 34.8116 32.8318 36.5468 32.6149 39.0412C32.5065 39.6919 32.5065 40.5594 32.9403 40.8848C34.2417 41.8608 35.2177 38.9327 36.0853 38.0651C36.6276 38.7158 36.3022 39.8003 36.9529 40.451C38.1459 41.644 39.8811 38.7158 40.2064 38.0651C40.5318 37.4144 40.7487 36.4384 41.2909 36.113C41.3994 37.9567 40.2064 43.7045 41.5078 45.765C42.8092 45.9819 42.9177 45.2228 43.3515 44.0298C44.0022 42.4031 45.7374 37.0891 46.605 36.4384C47.2557 36.8722 47.6895 40.1256 48.1233 41.1017C49.5331 44.0298 51.7021 41.644 50.9429 40.9933C50.2923 40.5595 50.4007 41.5355 49.75 41.8608C48.0148 41.9693 48.6655 32.1004 45.5205 36.3299C44.436 37.8482 42.5923 44.0298 41.9416 44.5721C40.7487 42.9453 42.5923 34.7031 43.1346 32.2088C43.3515 31.2327 44.1106 28.9553 43.4599 28.413C42.4839 28.1961 42.267 31.6666 41.3994 32.8595ZM33.591 39.8003C33.2656 38.8242 34.567 34.0524 36.3022 34.0524C36.5191 34.8116 35.76 36.5468 35.4346 37.3059C35.2177 37.8482 35.0008 38.282 34.6755 38.7158C34.3501 39.3665 34.2417 39.8003 33.591 39.8003Z" fill="#272727"/>
<path fill-rule="evenodd" clip-rule="evenodd" d="M33.0493 11.2781C26.8677 12.3626 13.5284 17.2428 9.62416 18.3273C9.73261 17.8935 9.94951 17.5682 9.40726 17.3513C8.97346 17.2428 8.75657 17.4597 8.53967 17.6766C7.78052 18.5442 7.45517 22.1231 12.3354 18.978C16.3481 16.3752 31.531 11.495 34.3507 11.9288C34.6761 11.495 34.4592 11.6034 35.3268 11.6034C35.2183 12.1456 35.3268 12.0372 34.893 12.3626C34.6761 13.3386 33.2662 14.8569 32.724 15.5076C26.9761 22.2315 21.5536 28.4132 15.9143 35.2455C12.7692 39.0412 9.84107 42.9454 6.80447 47.0665C6.15377 47.9341 -3.06446 58.8875 1.05663 59.972C2.24958 60.2974 2.57493 60.1889 3.65943 60.0805C5.28617 60.5143 48.9914 43.5961 52.3534 46.7412C53.5463 47.0665 53.9801 48.8017 54.6308 48.151C55.1731 47.5003 53.5463 45.8735 52.8956 45.7651C45.3041 42.7285 14.7213 55.6341 7.12982 58.02C6.69602 58.1284 6.58757 58.2368 6.15377 58.2368C4.63547 58.4537 2.57493 59.4298 1.27353 58.6706C1.05663 57.2608 1.92423 56.0678 2.57493 54.8749C5.61152 49.5608 14.1791 38.8243 17.8664 34.3779C19.3846 32.4258 20.9029 30.6906 22.5297 28.8469C24.9156 26.0272 35.3268 14.4231 36.1944 12.1456C36.3028 10.7358 35.9775 10.6274 34.5676 10.8443H34.1338C33.9169 11.1697 34.3507 10.9527 33.5916 11.1696C33.3747 11.1696 33.1578 11.1696 33.0493 11.2781Z" fill="#272727"/>
</svg>
