<svg width="21" height="21" viewBox="0 0 21 21" fill="none" xmlns="http://www.w3.org/2000/svg">
<path d="M19.9663 19.1277L14.9683 13.9295C16.2534 12.4018 16.9575 10.4797 16.9575 8.47874C16.9575 3.80364 13.1538 0 8.47874 0C3.80364 0 0 3.80364 0 8.47874C0 13.1538 3.80364 16.9575 8.47874 16.9575C10.2338 16.9575 11.9064 16.4281 13.3363 15.4232L18.3723 20.6609C18.5828 20.8795 18.8659 21 19.1693 21C19.4565 21 19.7289 20.8905 19.9357 20.6914C20.3752 20.2686 20.3892 19.5675 19.9663 19.1277ZM8.47874 2.21185C11.9344 2.21185 14.7456 5.0231 14.7456 8.47874C14.7456 11.9344 11.9344 14.7456 8.47874 14.7456C5.0231 14.7456 2.21185 11.9344 2.21185 8.47874C2.21185 5.0231 5.0231 2.21185 8.47874 2.21185Z" fill="#5A5A5A"/>
</svg>
