<svg width="40" height="48" xmlns="http://www.w3.org/2000/svg">
  <g fill="none" fill-rule="evenodd">
    <path d="M1.81 20.32l.742 1.856-.489.175a2.358 2.358 0 1 0 1.75 4.376l.475-.211.568 1.421 11.337-4.094L3.55 41.603l2.022 1.482-.402.412a2.357 2.357 0 1 0 3.765 2.76l.272-.506 2.075 1.521L20 32.742l8.718 14.53 2.075-1.521.272.506a2.356 2.356 0 0 0 4.435-1.114c0-.624-.243-1.208-.67-1.646l-.402-.412 2.022-1.482-12.643-17.76 11.337 4.094.568-1.421.475.21a2.357 2.357 0 0 0 1.75-4.376l-.489-.174.742-1.856-16.3-4.939 1.209-.549a7.5 7.5 0 1 0-6.197 0l1.208.549-16.3 4.94z" fill="#EDEDED" stroke="#D8D8D8"/>
  </g>
</svg>