<?xml version="1.0" encoding="utf-8"?>
<!-- Generator: Adobe Illustrator 23.0.1, SVG Export Plug-In . SVG Version: 6.00 Build 0)  -->
<svg version="1.1" id="Слой_1" xmlns="http://www.w3.org/2000/svg" xmlns:xlink="http://www.w3.org/1999/xlink" x="0px" y="0px"
	 width="40px" height="48px" viewBox="0 0 40 48" style="enable-background:new 0 0 40 48;" xml:space="preserve">
<style type="text/css">
	.st0{fill-rule:evenodd;clip-rule:evenodd;fill:#D8D8D8;}
</style>
<title>ic-boy-one</title>
<desc>Created with Sketch.</desc>
<g id="Icons" transform="translate(20.000000, 20.000000)">
	<g id="ic-boy-one" transform="translate(204.000000, 272.000000)">
		<path id="Combined-Shape" class="st0" d="M-207.31-276.71c-2.77-1.26-4.69-4.05-4.69-7.29c0-4.42,3.58-8,8-8s8,3.58,8,8
			c0,3.24-1.93,6.03-4.69,7.29l15.55,4.71l-0.75,1.88c1.1,0.39,1.89,1.45,1.89,2.69c0,1.58-1.28,2.86-2.86,2.86
			c-0.41,0-0.8-0.09-1.16-0.24l-0.56,1.39l-10.29-3.71l12,16.86l-1.95,1.43c0.5,0.51,0.81,1.22,0.81,2c0,1.58-1.28,2.86-2.86,2.86
			c-1.09,0-2.04-0.61-2.52-1.51l-2.05,1.51l-8.57-14.29l-8.57,14.29l-2.05-1.51c-0.48,0.9-1.43,1.51-2.52,1.51
			c-1.58,0-2.86-1.28-2.86-2.86c0-0.78,0.31-1.48,0.81-2l-1.95-1.43l12-16.86l-10.29,3.71l-0.56-1.39
			c-0.35,0.16-0.75,0.24-1.16,0.24c-1.58,0-2.86-1.28-2.86-2.86c0-1.24,0.79-2.3,1.89-2.69l-0.75-1.88L-207.31-276.71z"/>
	</g>
</g>
<g id="Slices" transform="translate(20.000000, 20.000000)">
</g>
</svg>
