<svg width="103" height="47" viewBox="0 0 103 47" fill="none" xmlns="http://www.w3.org/2000/svg">
<path fill-rule="evenodd" clip-rule="evenodd" d="M76.5296 5.22126C76.1928 6.14762 75.9401 7.32665 75.6033 8.25301C74.7611 11.0321 73.3295 13.8954 71.7294 16.2534C70.2978 18.3588 67.9397 20.9694 65.9186 22.3168C65.0765 22.8221 63.729 23.7485 63.3922 22.9063C63.0553 22.1484 64.8238 11.4532 65.1607 9.34779C65.2449 8.67407 65.4133 7.83193 65.5817 7.24243C65.8344 6.40028 66.087 6.14762 65.7502 5.22126L65.4133 5.3055C64.5712 7.41087 63.3922 15.1586 63.0553 18.0219C62.8869 19.4535 62.8027 21.1378 62.55 22.4852C61.7921 22.3168 60.8657 21.8115 60.0236 21.5589C57.834 20.8852 57.6656 22.4853 58.3393 23.2432C59.9394 25.0117 61.371 24.5906 62.2132 25.0959C62.2974 25.8538 62.0447 27.5381 61.9605 28.4645C61.7921 30.0646 61.371 35.4543 62.2132 36.7175C62.3816 36.9701 62.8869 37.307 63.2237 37.2228C63.2237 37.2228 63.5606 37.2228 63.1395 36.7175C63.1395 36.7175 62.8869 36.4648 62.8027 36.3806C62.6342 36.128 62.55 35.8754 62.4658 35.4543C62.0447 33.0121 62.6342 28.8014 62.8027 26.1065C62.8869 25.2644 62.8869 24.5064 63.8132 24.6748C64.8238 24.8433 73.7506 31.412 76.9507 31.5804C78.7192 31.6647 79.5614 30.233 79.3087 29.3908C79.2245 29.1382 79.3087 29.3066 79.1403 29.1382C78.2139 28.5487 78.9719 31.5804 75.5191 30.233C74.0032 29.6435 65.5817 24.9275 65.0765 24.0853C65.2449 23.7485 66.9292 22.8221 67.7713 22.0642C72.0663 18.0219 74.6769 13.6427 76.4454 7.6635C76.8665 6.14764 78.2981 1.43165 77.7929 0C76.8665 0 76.9507 1.60004 76.7823 2.44219C76.8665 3.28434 76.6138 4.2949 76.5296 5.22126ZM59.013 22.4852C59.9394 22.3168 62.1289 23.159 62.3816 23.8327C61.8763 24.0853 60.7815 24.0011 60.192 23.7485C59.6867 23.4958 58.9288 23.0747 59.013 22.4852Z" fill="white"/>
<path fill-rule="evenodd" clip-rule="evenodd" d="M19.8533 4.88451C19.6849 5.47401 19.0954 6.23191 18.8427 6.90562C18.5901 7.57934 18.3375 8.3373 18.169 9.09523C17.6638 11.369 16.2321 24.6749 16.2321 24.6749C16.569 27.0329 15.0531 35.1175 16.2321 36.1281C16.9058 35.6228 16.99 34.3596 17.2427 33.4332C17.5795 31.9173 19.4322 25.6013 20.4428 25.4328C20.7797 25.8539 20.9481 27.7066 21.0323 28.4646C21.2007 29.4752 21.5376 30.3173 21.8744 31.1595C23.5587 34.8649 25.8325 32.9279 25.4956 32.0858C24.7377 31.9174 24.3166 33.349 23.3061 32.2542C22.8008 31.7489 22.5481 30.9068 22.2955 30.1489C21.8744 28.8857 21.5376 25.8539 21.1165 25.096C19.6007 22.3169 17.1585 31.1594 16.8216 32.5069C16.6532 32.3384 16.7374 32.5069 16.6532 32.2542C16.569 31.9174 16.8216 28.8857 16.8216 28.4646L17.4111 20.5484C17.5795 18.7799 20.6112 10.9479 21.0323 7.3267C21.2007 5.89505 21.3692 4.21079 19.8533 4.88451ZM18.0006 15.664C17.6637 14.9902 19.0112 6.653 20.3586 5.55821C20.9481 6.48457 19.8533 9.68473 19.5165 10.7795L18.2532 15.1587C18.2532 15.2429 18.169 15.4113 18.0848 15.4113C18.0848 15.664 18.0848 15.5797 18.0006 15.664Z" fill="white"/>
<path fill-rule="evenodd" clip-rule="evenodd" d="M90.0877 26.2749C90.6772 25.517 91.0983 24.9275 93.1194 26.1907C93.5405 26.4434 94.3826 26.1908 95.3932 25.6855C96.9091 25.0118 99.0144 24.1696 101.794 24.4223C101.962 24.4223 102.046 24.5907 102.046 24.7591C102.046 24.9275 101.878 25.0117 101.709 25.0117C99.0986 24.7591 97.0775 25.6012 95.5616 26.1907C94.2984 26.696 93.4563 27.1171 92.6983 26.6118C91.1825 25.6012 90.8456 26.0223 90.5088 26.5276C90.3403 26.7803 90.0877 27.0329 89.7508 27.2855C89.3298 27.7908 88.4034 27.875 87.7297 26.5276C87.3086 25.7697 86.9718 23.2432 86.4665 22.8222C85.7085 23.4117 84.4453 27.454 83.94 28.7172C83.6032 29.6435 83.4347 30.233 82.5084 30.0646C81.4136 28.3803 82.4242 24.0854 82.34 22.5695C81.6662 22.9906 82.0031 23.8327 80.5715 25.517C80.3188 25.8539 79.7293 26.6118 79.0556 25.9381C78.5503 25.4328 78.8029 24.5907 78.3819 24.0854C77.8766 24.5907 77.0344 27.0329 75.9397 26.2749C75.0975 25.6854 75.9397 22.0642 77.4555 20.801C78.045 20.2957 78.8029 20.6326 79.1398 21.0537C79.7293 21.8116 78.7187 24.5064 79.6451 25.4328C80.8241 25.2644 82.5926 20.2115 83.0979 18.6956C83.2663 18.2746 83.3505 17.8535 83.519 17.4324C83.6874 16.9271 83.6874 16.4219 84.1927 16.4219C84.698 16.9272 84.1085 18.6115 83.94 19.3694C83.519 21.3063 82.0873 27.6224 83.0137 28.9698C83.8558 28.1277 85.3717 20.801 87.1402 21.98C87.5613 22.2327 87.7297 22.9906 87.8139 23.5801C87.9823 24.5907 88.1508 26.6118 89.0771 26.8644C89.4982 27.0329 89.835 26.6118 90.0877 26.2749ZM76.3607 25.8539C76.1081 25.0959 77.1187 21.3905 78.4661 21.3905C78.7187 22.1484 77.6239 24.2538 77.2029 25.096C76.9502 25.4328 76.866 25.7696 76.3607 25.8539Z" fill="white"/>
<path fill-rule="evenodd" clip-rule="evenodd" d="M42.254 24.5907C42.6751 25.0118 43.0962 29.812 45.2857 30.4857C46.2963 30.8226 46.8858 29.9805 47.4753 29.7278C47.4753 30.2331 47.4753 30.9068 47.728 31.1595C48.149 31.5806 48.7385 31.2437 48.9912 30.9068C49.9175 29.9804 50.0018 29.0541 50.5913 28.7172C50.9281 29.2225 51.0965 29.6436 51.8545 29.812C52.6124 29.9805 53.2861 29.6436 53.7914 29.3068C54.8862 28.5488 55.3073 27.9593 55.7283 26.275C54.9704 26.6119 54.8862 27.7067 53.7072 28.6331C52.7808 29.3068 51.6018 29.8121 51.1808 28.212C51.0965 27.7909 51.0123 26.6119 51.1808 26.275C51.4334 25.8539 52.3598 26.1066 51.7703 25.0118C50.3386 22.5696 47.8964 28.0435 47.728 28.2962C44.0225 33.2648 43.433 24.0854 42.5067 23.7486C41.6645 23.5801 41.5803 24.3381 41.3277 25.0118C41.075 25.6855 40.8224 26.275 40.5697 27.033C40.2329 28.0435 39.7276 30.2331 39.2223 30.9911C38.8854 30.4858 38.8012 26.1908 38.8012 25.2645C38.8012 24.2539 38.8012 23.2433 38.8012 22.2327C38.8012 21.6432 39.1381 19.7905 39.0539 19.4537C38.2117 19.1168 38.2959 20.2958 38.1275 21.6432C37.8749 24.1696 38.0433 28.8015 38.3801 31.1595C38.4644 31.5806 38.4644 32.17 38.717 32.3385C39.1381 32.6753 39.4749 32.2542 39.6434 31.9174C39.9802 31.3279 40.2329 30.1489 40.4855 29.391C40.9908 28.1277 41.5803 25.5171 42.254 24.5907ZM48.2332 30.57C47.8964 29.1383 49.8333 24.8434 51.265 25.1802C51.265 25.9382 50.7597 25.5171 50.507 26.5277C50.1702 27.7067 49.328 30.4016 48.2332 30.57Z" fill="white"/>
<path fill-rule="evenodd" clip-rule="evenodd" d="M32.1479 25.517C31.8111 26.8645 30.211 30.6541 29.2847 30.8225C28.6951 30.233 28.8636 28.7172 28.9478 27.7908C29.032 26.6118 28.7794 25.8539 27.5161 25.9381C26.0003 27.0329 25.495 28.3803 25.3266 30.3173C25.2424 30.8225 25.2424 31.4962 25.5792 31.7489C26.5898 32.5068 27.3477 30.233 28.0214 29.5593C28.4425 30.0646 28.1899 30.9067 28.6952 31.412C29.6215 32.3384 30.9689 30.0646 31.2216 29.5593C31.4742 29.054 31.6427 28.2961 32.0637 28.0435C32.1479 29.4751 31.2216 33.9384 32.2322 35.5385C33.2427 35.7069 33.327 35.1175 33.6638 34.1911C34.1691 32.9279 35.5165 28.8014 36.1902 28.2961C36.6955 28.6329 37.0324 31.1594 37.3692 31.9173C38.464 34.1911 40.1483 32.3384 39.5588 31.8331C39.0535 31.4963 39.1378 32.2542 38.6325 32.5068C37.285 32.591 37.7903 24.9275 35.3481 28.2119C34.506 29.3909 33.0743 34.1911 32.569 34.6122C31.6427 33.349 33.0743 26.9486 33.4954 25.0117C33.6638 24.2538 34.2533 22.4853 33.748 22.0642C32.9901 21.8958 32.8217 24.5907 32.1479 25.517ZM26.0845 30.9067C25.8319 30.1488 26.8424 26.4434 28.1899 26.4434C28.3583 27.0329 27.7688 28.3803 27.5161 28.9698C27.3477 29.3909 27.1793 29.7277 26.9266 30.0646C26.674 30.5699 26.5898 30.9067 26.0845 30.9067Z" fill="white"/>
<path fill-rule="evenodd" clip-rule="evenodd" d="M25.6638 8.75848C20.8636 9.60063 10.5052 13.3903 7.47345 14.2324C7.55767 13.8956 7.7261 13.643 7.30502 13.4745C6.96817 13.3903 6.79974 13.5587 6.63131 13.7272C6.04181 14.4009 5.78916 17.18 9.57882 14.7377C12.6948 12.7166 24.4848 8.92694 26.6744 9.2638C26.927 8.92694 26.7586 9.01111 27.4323 9.01111C27.3481 9.43219 27.4323 9.34798 27.0954 9.60063C26.927 10.3586 25.8322 11.5376 25.4111 12.0429C20.9478 17.2642 16.7371 22.0644 12.3579 27.3699C9.91567 30.3174 7.64188 33.3491 5.28388 36.5493C4.77859 37.223 -2.37964 45.7287 0.820508 46.5708C1.74687 46.8235 1.99951 46.7392 2.84166 46.655C4.10487 46.9919 38.0433 33.8544 40.654 36.2966C41.5803 36.5493 41.9172 37.8967 42.4225 37.3914C42.8436 36.8861 41.5803 35.6229 41.0751 35.5387C35.18 33.1807 11.4315 43.2023 5.53652 45.055C5.19966 45.1392 5.11545 45.2234 4.77859 45.2234C3.59958 45.3918 1.99951 46.1497 0.988935 45.5602C0.820506 44.4655 1.49422 43.5391 1.99951 42.6127C4.35752 38.4862 11.0105 30.149 13.8738 26.6962C15.0528 25.1803 16.2318 23.8329 17.495 22.4012C19.3477 20.2117 27.4323 11.2007 28.106 9.43219C28.1902 8.3374 27.9376 8.25322 26.8428 8.42165H26.5059C26.3375 8.6743 26.6744 8.50586 26.0849 8.67429C25.9164 8.67429 25.748 8.67427 25.6638 8.75848Z" fill="white"/>
</svg>
