<svg width="70" height="84" xmlns="http://www.w3.org/2000/svg">
  <g fill="none" fill-rule="evenodd">
    <path d="M40.578 26.844L67 33.21l-1.031 3.022c2.298.44 4.031 2.419 4.031 4.792 0 2.697-2.239 4.884-5 4.884a5.079 5.079 0 0 1-2.169-.482L62 47.86l-16-2.93 14 31.256-3.262.235c.17.544.262 1.12.262 1.719 0 3.236-2.686 5.86-6 5.86s-6-2.624-6-5.86c0-.338.03-.67.085-.992H35v-.301.301H24.915c.056.322.085.654.085.992 0 3.236-2.686 5.86-6 5.86s-6-2.624-6-5.86c0-.598.092-1.175.262-1.719L10 76.186 24 44.93 8 47.86l-.831-2.435A5.079 5.079 0 0 1 5 45.907c-2.761 0-5-2.187-5-4.884 0-2.373 1.733-4.351 4.031-4.792L3 33.21l26.422-6.365a14.006 14.006 0 0 1-3.526-2.208c-1.727-.796-3.341-1.194-4.84-1.194-1.709 0-2.69 2.457-5.473 3.907-.879.458-2.74.73-5.583.816 2-4.05 3.096-8.132 3.289-12.246.29-6.17-2.612-5.572-2.289-9.082.323-3.51 3.42-5.327 6.806-5.327 2.145 0 4.312 1.15 6.5 3.453A13.97 13.97 0 0 1 35 0a13.97 13.97 0 0 1 10.693 4.963c2.189-2.302 4.356-3.453 6.5-3.453 3.387 0 6.484 1.818 6.807 5.327.323 3.51-2.578 2.913-2.289 9.082.193 4.114 1.29 8.195 3.289 12.246-2.843-.086-4.704-.358-5.583-.816-2.784-1.45-3.764-3.907-5.473-3.907-1.499 0-3.113.398-4.84 1.194a14.006 14.006 0 0 1-3.526 2.208z" fill="#D8D8D8"/>
  </g>
</svg>