<?xml version="1.0" encoding="utf-8"?>
<!-- Generator: Adobe Illustrator 23.0.1, SVG Export Plug-In . SVG Version: 6.00 Build 0)  -->
<svg version="1.1" id="Слой_1" xmlns="http://www.w3.org/2000/svg" xmlns:xlink="http://www.w3.org/1999/xlink" x="0px" y="0px"
	 width="70px" height="84px" viewBox="0 0 70 84" style="enable-background:new 0 0 70 84;" xml:space="preserve">
<style type="text/css">
	.st0{fill:#D8D8D8;}
</style>
<path class="st0" d="M69.9,35.6c-0.1-0.5-0.5-0.8-1-0.9l-22.6-3.3L36.2,11c-0.2-0.4-0.6-0.7-1.1-0.7c-0.5,0-0.9,0.3-1.1,0.7
	L23.9,31.5L1.3,34.8c-0.5,0.1-0.9,0.4-1,0.9c-0.1,0.5,0,0.9,0.3,1.3L17,52.8l-3.9,22.5c-0.1,0.5,0.1,0.9,0.5,1.2
	c0.4,0.3,0.9,0.3,1.3,0.1L35.1,66l20.2,10.6c0.2,0.1,0.4,0.1,0.6,0.1c0.3,0,0.5-0.1,0.7-0.2c0.4-0.3,0.6-0.8,0.5-1.2l-3.9-22.5
	l16.3-15.9C70,36.6,70.1,36.1,69.9,35.6z"/>
</svg>
