<svg width="14" height="14" viewBox="0 0 14 14" fill="none" xmlns="http://www.w3.org/2000/svg">
<path fill-rule="evenodd" clip-rule="evenodd" d="M7.65903 6.04812L7.65903 1.13939C7.65903 0.695323 7.2984 0.334698 6.85363 0.333991C6.40816 0.333991 6.04753 0.694616 6.04753 1.14009L6.04753 6.04883L1.1395 6.04812C0.694025 6.04812 0.333401 6.40875 0.334108 6.85352C0.334108 7.29899 0.694732 7.65962 1.1395 7.65891L6.04824 7.65891L6.04824 12.5676C6.04824 13.0131 6.40816 13.373 6.85363 13.373C7.07637 13.3737 7.27719 13.2832 7.42285 13.1376C7.56852 12.9919 7.65903 12.7911 7.65903 12.5676L7.65903 7.66032L12.5671 7.65962C12.7898 7.66032 12.9913 7.56911 13.137 7.42344C13.2826 7.27778 13.3732 7.07696 13.3732 6.85352C13.3725 6.40875 13.0125 6.04883 12.5678 6.04812H7.65903Z" fill="#C7C7C7"/>
</svg>
