<?xml version="1.0" standalone="no"?>
<!DOCTYPE svg PUBLIC "-//W3C//DTD SVG 20010904//EN"
 "http://www.w3.org/TR/2001/REC-SVG-20010904/DTD/svg10.dtd">
<svg version="1.0" xmlns="http://www.w3.org/2000/svg"
 width="1952.000000pt" height="1952.000000pt" viewBox="0 0 1952.000000 1952.000000"
 preserveAspectRatio="xMidYMid meet">
<metadata>
Created by potrace 1.14, written by Peter Selinger 2001-2017
</metadata>
<g transform="translate(0.000000,1952.000000) scale(0.100000,-0.100000)"
fill="#000000" stroke="none">
<path d="M14712 14070 c-53 -33 -91 -140 -108 -305 -3 -27 -7 -68 -9 -90 -2
-22 -6 -89 -8 -150 -3 -60 -5 -110 -6 -110 -1 0 -4 -13 -6 -30 -3 -35 -15
-119 -21 -155 -2 -14 -6 -43 -8 -65 -2 -22 -16 -78 -31 -125 -15 -47 -28 -89
-30 -95 -5 -25 -94 -323 -102 -345 -4 -8 -7 -17 -7 -20 -3 -10 -57 -175 -63
-190 -3 -8 -7 -19 -8 -25 -4 -14 -84 -224 -101 -262 -112 -258 -210 -458 -320
-648 -12 -22 -33 -59 -45 -82 -11 -24 -25 -43 -30 -43 -5 0 -9 -5 -9 -12 0
-13 -61 -111 -72 -116 -5 -2 -8 -8 -8 -14 0 -5 -30 -53 -67 -106 -36 -53 -76
-111 -87 -127 -12 -17 -27 -37 -34 -45 -7 -8 -31 -40 -54 -70 -24 -30 -45 -57
-48 -60 -3 -3 -23 -27 -45 -55 -22 -27 -44 -55 -50 -61 -5 -6 -32 -37 -60 -69
-166 -191 -369 -393 -520 -515 -44 -35 -82 -67 -85 -70 -3 -4 -41 -31 -85 -61
-44 -30 -82 -56 -85 -59 -18 -18 -254 -139 -280 -144 -14 -2 -25 -5 -25 -6 0
-1 -21 -4 -47 -6 -41 -3 -50 0 -77 27 -37 36 -39 60 -27 244 7 100 8 112 20
215 4 30 9 71 11 90 2 19 6 58 10 85 3 28 8 66 10 85 5 37 43 318 50 360 2 14
7 45 10 70 6 45 10 72 20 133 3 17 8 43 10 57 2 14 6 43 10 65 8 56 16 106 20
135 7 55 17 126 21 145 2 10 6 35 9 55 3 20 7 45 9 57 3 12 8 43 12 70 3 26 8
55 10 65 1 9 6 38 10 65 3 26 8 57 10 68 3 11 7 36 10 55 3 19 8 49 11 65 2
17 6 39 8 50 6 44 16 102 20 125 3 14 7 41 10 61 2 20 11 76 19 125 8 49 17
105 20 124 3 19 10 58 16 85 6 28 13 64 16 80 7 41 51 197 65 232 31 74 37
139 21 216 -15 67 -15 68 -45 63 -16 -3 -33 -8 -37 -13 -8 -8 -57 -150 -65
-190 -3 -13 -7 -31 -10 -40 -7 -27 -34 -136 -39 -158 -3 -11 -14 -63 -26 -115
-12 -52 -23 -106 -26 -120 -2 -14 -13 -70 -24 -125 -26 -128 -25 -125 -55
-290 -33 -187 -32 -180 -51 -297 -6 -39 -11 -73 -24 -148 -18 -101 -21 -122
-24 -167 -2 -23 -6 -45 -9 -51 -4 -5 -7 -25 -9 -45 -1 -21 -5 -37 -8 -37 -3 0
-5 -17 -6 -38 -1 -20 -4 -57 -8 -82 -9 -57 -23 -153 -31 -205 -3 -23 -7 -50
-9 -60 -2 -11 -7 -49 -11 -85 -4 -36 -9 -78 -11 -95 -2 -16 -6 -50 -9 -75 -3
-25 -7 -63 -10 -85 -2 -22 -7 -71 -10 -110 -3 -38 -8 -89 -11 -113 -2 -24 -7
-69 -10 -100 -8 -99 -23 -224 -31 -267 -3 -16 -7 -41 -8 -55 -2 -14 -4 -26 -5
-27 -1 -2 -3 -9 -4 -15 -2 -22 -31 -20 -102 7 -38 14 -76 28 -84 30 -8 2 -53
20 -99 39 -170 73 -255 96 -366 100 -74 3 -118 -8 -149 -36 -11 -10 -23 -18
-26 -18 -11 0 -31 -50 -39 -97 -9 -44 2 -91 34 -153 17 -34 173 -180 192 -180
7 0 13 -4 13 -8 0 -10 104 -64 176 -91 44 -17 141 -40 234 -57 32 -6 88 -23
123 -37 29 -13 30 -16 27 -132 -1 -57 -7 -130 -16 -205 -2 -19 -6 -62 -9 -95
-3 -33 -8 -76 -10 -95 -3 -19 -7 -57 -10 -85 -2 -27 -7 -72 -9 -100 -27 -243
-40 -522 -40 -810 0 -271 9 -391 41 -530 27 -119 65 -175 145 -216 42 -22 114
-25 121 -6 6 19 -15 58 -48 92 -60 59 -84 100 -104 180 -26 105 -32 160 -37
335 -2 80 -4 147 -5 150 -1 3 0 10 1 15 1 6 4 71 6 145 7 206 11 276 29 480 3
25 7 74 10 110 3 36 7 85 9 110 7 63 18 187 22 235 1 22 5 76 8 120 17 234 29
298 66 336 60 63 154 42 353 -80 37 -22 72 -41 77 -41 6 0 10 -3 10 -8 0 -7
30 -25 63 -38 9 -3 17 -10 17 -15 0 -5 4 -9 9 -9 5 0 116 -67 247 -148 208
-130 279 -173 352 -217 9 -6 96 -57 192 -114 96 -57 186 -111 200 -120 14 -8
27 -16 30 -16 3 0 16 -8 30 -17 107 -68 598 -318 625 -318 3 0 24 -9 48 -19
129 -60 289 -99 404 -99 140 0 240 37 323 119 43 44 88 116 93 150 2 8 5 19 8
24 8 12 4 93 -5 122 -10 30 -53 56 -82 49 -16 -4 -37 -31 -71 -92 -27 -49 -66
-103 -90 -124 -102 -90 -272 -84 -513 18 -140 60 -574 286 -865 452 -22 12
-69 38 -105 58 -36 19 -72 41 -81 48 -8 8 -19 14 -23 14 -7 0 -264 149 -326
189 -40 25 -64 40 -80 48 -13 6 -49 28 -200 124 -70 45 -77 50 -163 114 -105
78 -110 87 -71 122 37 34 241 173 253 173 5 0 11 4 13 8 2 4 32 28 68 52 36
24 93 69 128 98 106 91 346 336 467 476 28 31 59 67 70 80 11 12 34 39 50 60
17 21 37 46 45 56 50 61 133 171 195 260 88 124 222 334 230 359 3 11 11 21
16 21 5 0 9 4 9 9 0 6 27 58 60 118 102 183 206 402 297 628 36 88 66 165 67
170 2 6 7 21 13 35 24 59 140 410 158 480 8 27 43 153 75 265 17 61 32 115 34
120 2 6 7 28 11 50 11 49 10 47 18 65 3 8 11 38 17 65 6 28 12 57 14 65 11 42
28 118 32 140 2 14 8 45 13 70 16 69 18 81 25 135 4 28 10 64 12 80 19 110 19
218 1 320 -5 27 -35 29 -75 5z m-3332 -4206 c14 -3 36 -7 50 -10 14 -2 36 -9
50 -13 108 -39 177 -66 190 -76 8 -6 32 -19 52 -29 50 -23 135 -103 123 -115
-27 -26 -210 -34 -305 -14 -143 32 -298 134 -322 215 -10 33 -9 41 2 48 14 9
110 5 160 -6z"/>
<path d="M3820 13192 c-42 -13 -48 -19 -83 -90 -20 -43 -71 -142 -112 -221
-41 -79 -73 -146 -70 -149 2 -2 -2 -17 -11 -33 -8 -16 -14 -31 -14 -34 -1 -3
-2 -10 -5 -17 -18 -55 -49 -159 -55 -188 -5 -19 -11 -46 -14 -60 -4 -14 -9
-38 -12 -55 -3 -16 -9 -48 -14 -70 -4 -22 -11 -62 -15 -90 -5 -45 -12 -88 -18
-118 -2 -11 -101 -45 -492 -169 -104 -33 -199 -64 -210 -68 -23 -10 -179 -61
-198 -64 -7 -2 -19 -6 -27 -9 -14 -5 -120 -40 -130 -42 -3 -1 -12 -4 -20 -8
-8 -3 -46 -15 -85 -27 -38 -12 -79 -25 -90 -30 -45 -19 -114 -38 -119 -32 -3
3 -6 1 -6 -5 0 -5 -6 -10 -12 -10 -7 0 -113 -33 -235 -72 -122 -40 -230 -74
-240 -76 -10 -2 -18 -4 -18 -5 0 -2 -12 -5 -64 -16 -24 -5 -32 -4 -27 4 3 6 9
28 12 49 6 44 -14 70 -59 78 -75 14 -146 -57 -171 -170 -38 -166 43 -269 196
-250 28 4 63 11 77 17 14 5 27 9 28 10 26 2 239 101 253 117 3 3 15 12 28 19
12 6 32 18 45 25 12 6 24 14 27 17 6 6 12 9 121 68 42 23 79 38 83 35 3 -4 6
-1 6 5 0 7 4 12 9 12 6 0 48 18 95 40 47 22 87 40 90 40 3 0 29 11 58 24 29
13 91 39 138 58 47 18 88 37 91 41 3 5 9 8 13 7 6 -2 39 7 56 15 20 8 43 17
95 36 33 12 71 26 85 32 14 6 30 11 35 13 6 1 48 17 95 34 47 17 90 33 95 34
6 2 19 6 30 10 64 25 91 34 95 34 3 1 12 3 20 6 125 44 190 64 190 58 0 -4 5
0 10 8 13 20 13 -19 1 -86 -5 -27 -12 -78 -16 -114 -4 -36 -9 -72 -10 -81 -2
-9 -6 -40 -10 -70 -3 -30 -8 -65 -10 -79 -2 -14 -7 -47 -10 -75 -3 -27 -10
-86 -16 -130 -6 -44 -12 -103 -14 -132 -2 -28 -5 -55 -8 -60 -3 -4 -8 -39 -11
-78 -3 -38 -8 -81 -11 -95 -2 -14 -7 -47 -9 -73 -3 -26 -8 -53 -12 -59 -4 -7
-3 -8 4 -4 9 5 10 1 3 -16 -4 -13 -11 -52 -15 -88 -3 -36 -8 -74 -10 -85 -2
-11 -7 -47 -10 -80 -10 -95 -17 -157 -22 -195 -2 -19 -6 -60 -9 -90 -3 -30 -8
-68 -10 -85 -2 -16 -7 -57 -10 -90 -4 -33 -8 -71 -10 -85 -2 -14 -7 -50 -10
-81 -5 -43 -14 -64 -38 -90 -18 -19 -57 -64 -87 -100 -30 -35 -59 -69 -65 -75
-5 -6 -28 -33 -50 -60 -22 -26 -49 -58 -60 -70 -11 -12 -38 -43 -60 -70 -22
-26 -44 -52 -50 -58 -19 -22 -112 -131 -131 -155 -10 -13 -35 -42 -54 -65 -19
-22 -38 -45 -43 -51 -4 -5 -17 -22 -30 -36 -12 -14 -42 -49 -67 -79 -25 -30
-55 -65 -67 -79 -13 -14 -26 -30 -30 -36 -5 -5 -49 -59 -99 -120 -86 -104
-390 -484 -444 -554 -102 -133 -121 -158 -133 -171 -14 -16 -215 -280 -331
-435 -37 -49 -72 -97 -79 -105 -7 -8 -23 -31 -37 -50 -13 -19 -29 -40 -35 -46
-5 -6 -19 -23 -30 -38 -65 -89 -233 -306 -245 -316 -8 -6 -184 -236 -279 -364
-79 -105 -114 -155 -186 -263 -24 -37 -49 -73 -54 -79 -34 -40 -247 -417 -256
-454 -1 -3 -9 -21 -17 -40 -19 -45 -30 -72 -34 -85 -1 -5 -11 -40 -22 -76 -48
-169 -16 -287 91 -337 63 -30 165 -48 252 -46 73 2 201 12 235 19 14 3 37 7
52 10 15 3 38 9 52 15 15 5 26 7 26 5 0 -3 17 1 37 9 21 8 52 18 68 22 33 8
34 8 55 17 8 3 29 9 45 13 33 8 33 8 55 16 28 10 340 110 353 112 6 2 19 6 27
9 22 10 442 148 460 152 8 2 16 4 18 5 1 2 5 3 10 5 4 1 14 4 22 8 14 5 88 29
100 32 3 1 12 5 20 8 18 7 881 298 895 301 22 5 61 18 80 26 11 4 92 31 180
60 88 28 167 54 175 57 8 3 20 7 25 9 6 1 73 24 150 49 77 26 147 48 155 50 8
2 32 11 52 19 21 9 39 16 40 15 3 -1 485 153 618 198 25 8 50 16 55 17 18 4
219 67 235 73 8 4 33 12 55 18 22 7 117 35 210 64 208 65 365 112 385 116 8 2
62 18 119 35 57 17 111 33 120 36 9 2 48 13 86 25 113 34 290 82 580 158 83
22 152 41 155 42 3 0 10 2 15 3 6 1 24 5 40 9 17 4 39 9 50 12 24 5 196 46
210 49 11 3 83 17 105 21 8 2 33 8 55 13 22 6 58 13 80 16 22 3 65 10 95 16
30 5 64 12 75 14 20 4 105 16 160 22 78 10 305 12 349 4 27 -6 83 -26 125 -46
60 -29 93 -54 161 -123 47 -48 97 -92 112 -99 23 -9 30 -8 52 15 30 29 28 60
-4 129 -22 44 -104 135 -160 176 -65 48 -220 91 -370 104 -124 10 -393 4 -501
-11 -20 -3 -56 -8 -80 -10 -24 -2 -62 -7 -84 -10 -22 -4 -51 -8 -65 -10 -23
-4 -181 -30 -240 -40 -14 -3 -36 -7 -50 -10 -14 -3 -38 -8 -55 -10 -16 -3 -37
-8 -45 -10 -8 -2 -26 -6 -40 -9 -53 -9 -276 -58 -290 -64 -18 -7 -16 -6 -65
-17 -51 -11 -35 -7 -145 -34 -52 -12 -102 -25 -110 -28 -8 -3 -24 -8 -35 -10
-38 -8 -50 -11 -50 -13 0 -1 -7 -3 -15 -5 -8 -1 -50 -12 -93 -24 -43 -13 -86
-24 -95 -26 -9 -2 -57 -16 -107 -31 -49 -14 -94 -27 -100 -28 -5 -1 -41 -12
-80 -24 -301 -92 -372 -114 -385 -117 -8 -2 -94 -29 -190 -61 -96 -31 -179
-57 -185 -59 -5 -1 -18 -5 -27 -8 -19 -7 -43 -15 -56 -18 -32 -9 -984 -335
-1017 -349 -11 -5 -67 -25 -125 -45 -58 -20 -112 -39 -120 -42 -8 -3 -19 -7
-25 -9 -5 -2 -48 -17 -95 -34 -87 -32 -165 -60 -292 -106 -40 -14 -89 -32
-108 -41 -19 -8 -46 -17 -60 -20 -13 -2 -29 -8 -35 -13 -7 -5 -20 -11 -31 -13
-10 -2 -32 -9 -49 -16 -16 -6 -41 -16 -55 -20 -14 -5 -59 -21 -100 -36 -41
-15 -84 -30 -95 -35 -37 -16 -410 -149 -425 -152 -8 -2 -17 -5 -20 -8 -4 -4
-149 -58 -175 -64 -5 -2 -21 -8 -35 -13 -29 -12 -358 -124 -374 -128 -6 -1
-18 -5 -26 -8 -32 -13 -127 -36 -170 -41 -47 -6 -57 -7 -130 -25 -25 -7 -53
-13 -63 -16 -9 -2 -45 -11 -80 -20 -63 -17 -75 -19 -162 -32 -101 -14 -220 -3
-264 26 -18 12 -21 93 -5 169 13 63 80 211 148 327 20 33 45 78 57 100 12 22
24 42 28 45 3 3 12 15 18 28 7 12 19 32 25 45 7 12 15 24 18 27 3 3 39 57 80
120 41 63 77 117 80 120 3 3 14 19 24 35 27 43 275 391 365 512 42 55 85 113
96 129 11 15 26 33 33 40 6 7 12 15 12 18 0 3 8 15 18 27 38 46 48 58 62 79
13 20 88 117 123 160 7 8 23 31 37 50 13 19 27 37 30 40 3 3 28 34 55 70 28
35 77 98 110 140 33 42 71 92 85 110 14 18 30 38 35 44 6 6 32 40 60 76 27 36
54 70 60 76 5 6 24 28 40 49 90 114 428 533 460 569 6 6 39 47 75 91 35 44 67
82 70 85 3 3 39 46 80 96 41 49 93 112 115 139 22 26 47 58 55 69 17 24 48 62
70 85 8 9 31 36 50 61 19 24 44 53 55 65 11 11 43 47 70 79 28 33 63 73 78 90
l28 31 -7 -70 c-4 -38 -6 -86 -6 -105 3 -94 1 -342 -2 -400 -7 -98 -18 -244
-41 -505 -3 -33 -7 -82 -9 -110 -14 -195 -17 -233 -21 -260 -15 -119 -22 -511
-11 -615 4 -36 9 -79 11 -97 2 -17 8 -41 15 -52 6 -12 8 -21 5 -21 -4 0 4 -18
16 -40 26 -46 38 -49 66 -17 43 50 78 129 108 247 3 14 17 90 16 95 0 2 6 23
14 45 8 22 12 40 10 40 -2 0 5 29 15 65 10 36 17 65 15 65 -3 0 0 12 6 28 6
15 12 34 14 42 8 41 60 217 107 360 11 36 21 69 23 75 1 5 5 18 8 28 9 22 17
47 16 50 -1 14 142 397 161 429 5 10 10 22 10 28 0 5 18 48 40 95 23 46 40 88
40 91 -1 4 2 10 7 13 10 7 30 39 42 66 12 27 95 115 109 115 22 0 66 -156 87
-315 3 -22 8 -56 10 -75 3 -19 8 -57 11 -85 10 -96 12 -110 40 -235 23 -108
136 -389 198 -494 45 -75 170 -216 192 -216 8 0 14 -4 14 -9 0 -8 76 -42 103
-47 4 -1 8 -3 10 -4 7 -6 89 -5 93 2 3 5 10 6 15 3 14 -9 91 29 131 64 39 34
72 104 66 141 -6 46 -52 34 -190 -52 -59 -36 -94 -41 -148 -20 -36 14 -140
119 -140 141 0 5 -3 11 -8 13 -33 14 -165 404 -187 553 -6 40 -13 73 -19 93
-3 9 -8 33 -10 52 -3 19 -9 55 -15 80 -5 25 -13 61 -16 80 -45 268 -99 421
-167 470 -40 29 -66 31 -113 9 -92 -43 -224 -255 -335 -539 -12 -30 -27 -66
-33 -80 -5 -14 -11 -29 -13 -35 -1 -5 -21 -62 -44 -125 -23 -63 -51 -144 -61
-180 -11 -36 -22 -72 -25 -80 -3 -8 -4 -15 -2 -16 2 0 -3 -8 -11 -18 -8 -9
-11 -19 -8 -23 4 -3 2 -14 -3 -24 -6 -10 -30 -89 -55 -175 -25 -87 -49 -162
-55 -168 -20 -20 -28 41 -24 188 2 81 6 174 9 205 3 31 8 103 11 161 8 160 12
225 14 225 1 0 3 29 5 65 1 36 6 101 9 145 4 44 9 107 11 140 3 33 7 87 10
120 2 33 7 96 10 140 3 44 8 103 10 130 2 28 7 93 10 145 12 183 4 161 105
270 8 9 37 43 64 75 28 33 57 67 65 76 19 19 72 79 121 135 106 122 157 179
175 198 11 12 45 50 75 86 30 35 62 72 70 80 39 42 155 174 220 250 61 71 158
183 200 230 14 15 45 52 70 80 25 29 52 61 60 70 8 10 31 37 50 60 19 24 40
48 47 55 15 16 265 315 313 375 19 24 55 69 80 99 25 31 85 108 133 171 48 63
90 120 95 125 4 6 26 39 50 75 23 36 45 70 50 75 36 45 46 169 18 222 -24 47
-55 53 -223 38 -45 -3 -69 -11 -83 -25 -11 -11 -28 -20 -37 -21 -46 -3 -73 -7
-133 -22 -36 -9 -78 -18 -95 -21 -16 -3 -79 -17 -140 -31 -60 -14 -118 -28
-128 -30 -10 -2 -71 -18 -135 -34 -64 -17 -128 -34 -142 -37 -14 -3 -52 -14
-85 -24 -121 -36 -226 -63 -230 -58 -2 2 2 26 11 53 8 28 17 64 20 80 3 17 10
48 16 70 5 22 12 49 13 60 2 11 6 32 9 48 11 51 16 82 22 127 3 24 7 47 9 50
14 23 23 304 12 379 -7 42 -47 108 -71 116 -33 11 -76 10 -116 -3z m58 -165
c9 -11 22 -81 23 -122 1 -53 -26 -258 -36 -274 -2 -4 -6 -26 -10 -51 -4 -25
-9 -48 -12 -53 -5 -8 -24 -82 -38 -143 -3 -12 -20 -67 -38 -124 l-32 -103 -45
-14 c-25 -8 -56 -16 -69 -19 -13 -3 -39 -11 -57 -19 l-34 -14 5 28 c3 16 16
77 30 135 14 59 27 117 29 129 3 12 5 22 7 22 1 0 3 9 4 20 5 37 82 279 119
375 38 96 72 163 110 212 24 31 30 33 44 15z m1328 -658 c1 -13 -10 -35 -26
-51 -15 -15 -42 -56 -59 -90 -39 -80 -42 -85 -125 -193 -67 -87 -108 -135
-153 -182 -13 -13 -23 -27 -23 -30 0 -3 -8 -13 -17 -22 -10 -9 -45 -47 -78
-86 -33 -38 -64 -75 -70 -81 -5 -6 -32 -37 -60 -68 -27 -32 -59 -68 -70 -81
-11 -12 -40 -46 -65 -75 -25 -29 -54 -63 -65 -75 -11 -13 -42 -49 -70 -81 -27
-32 -57 -65 -65 -74 -8 -9 -57 -65 -109 -125 -52 -61 -102 -117 -113 -127 -10
-9 -18 -19 -18 -22 0 -3 -8 -14 -17 -24 -15 -15 -72 -79 -138 -156 -5 -6 -28
-32 -50 -56 -22 -25 -60 -69 -85 -98 -25 -30 -58 -68 -73 -85 -16 -18 -48 -54
-70 -80 -23 -27 -53 -61 -67 -76 -14 -15 -45 -52 -70 -81 -25 -30 -59 -69 -76
-87 -17 -18 -30 -34 -29 -35 0 -2 -10 -14 -23 -28 l-24 -25 6 90 c6 93 10 122
27 190 5 22 11 48 14 58 11 45 69 244 85 293 11 30 17 54 14 54 -3 0 -2 6 3
13 4 6 8 14 9 17 0 3 3 12 7 20 3 8 31 94 61 190 30 96 62 194 70 218 8 23 15
43 15 45 0 1 2 9 5 17 28 85 128 409 176 570 17 58 40 134 51 169 10 35 19 70
19 76 0 7 12 17 28 23 27 11 145 46 149 44 2 0 17 4 35 9 190 56 597 151 610
143 4 -3 8 -2 8 3 0 4 10 8 23 9 27 1 102 12 138 20 15 3 70 7 124 9 84 3 99
6 111 23 27 39 118 33 120 -9z m-1506 -324 c-5 -14 -12 -36 -14 -48 -3 -12
-23 -83 -46 -157 -22 -74 -42 -142 -44 -150 -2 -8 -30 -103 -61 -210 -32 -107
-61 -210 -66 -229 -4 -19 -13 -37 -19 -41 -6 -4 -12 -15 -14 -24 -1 -9 -6 -15
-12 -14 -11 4 -11 174 1 273 4 39 8 87 9 107 1 21 3 38 6 38 3 0 6 8 6 18 2
27 12 100 29 197 9 50 18 99 19 110 13 90 14 91 79 110 34 9 78 23 97 31 19 7
36 13 37 13 1 1 -2 -10 -7 -24z"/>
<path d="M15927 10979 c-17 -17 -31 -34 -30 -37 9 -25 -250 -774 -279 -809 -6
-7 -8 -13 -4 -13 4 0 0 -13 -9 -30 -9 -16 -13 -30 -9 -30 4 0 2 -6 -3 -12 -6
-7 -34 -69 -64 -138 -79 -185 -148 -317 -232 -444 -27 -41 -91 -107 -124 -127
-32 -20 -35 -20 -52 -5 -10 10 -26 36 -34 59 -34 89 -39 182 -22 407 20 284 1
351 -117 411 -111 57 -226 14 -326 -120 -15 -20 -32 -41 -38 -48 -42 -44 -174
-353 -188 -440 -2 -16 -5 -28 -6 -28 -1 0 -3 -9 -5 -20 -2 -11 -6 -40 -11 -65
-4 -25 -7 -86 -7 -136 0 -142 44 -213 136 -215 91 -3 179 88 312 321 17 29 42
66 56 83 l25 30 18 -37 c10 -21 20 -49 22 -64 2 -15 7 -40 11 -57 4 -16 6 -33
5 -36 -4 -17 32 -107 54 -137 32 -42 95 -72 137 -65 33 5 102 48 127 80 8 10
40 50 70 88 30 39 57 72 61 75 10 8 78 134 78 144 -1 5 4 12 9 15 5 3 18 31
29 61 39 102 70 167 94 188 39 37 38 47 24 -143 -8 -112 -10 -142 -20 -230
-13 -121 -25 -250 -31 -330 -4 -66 -4 -323 0 -355 2 -14 6 -50 11 -80 9 -66
54 -210 66 -210 5 0 9 -7 9 -15 0 -10 11 -15 33 -16 121 -4 153 25 227 206 22
55 41 102 42 105 3 16 189 525 203 557 8 17 15 34 15 37 0 14 114 271 122 274
4 2 8 10 8 18 0 16 65 121 90 146 17 16 19 16 33 0 33 -38 56 -107 143 -432
53 -199 90 -281 160 -359 79 -88 185 -116 256 -68 73 50 163 138 213 207 72
101 159 97 353 -14 106 -60 161 -76 232 -65 95 15 116 22 345 112 301 118 510
183 645 202 25 3 52 8 60 10 48 12 157 18 321 19 194 1 219 6 219 46 0 10 -8
28 -18 41 -17 21 -28 23 -124 24 -58 1 -110 5 -116 9 -6 3 -13 2 -17 -4 -4 -7
-12 -7 -24 0 -10 5 -21 6 -25 3 -4 -4 -26 -8 -49 -9 -109 -6 -193 -17 -271
-34 -22 -5 -44 -7 -48 -4 -4 3 -8 1 -8 -4 0 -5 -19 -12 -42 -15 -41 -6 -191
-49 -233 -67 -11 -5 -54 -21 -95 -36 -73 -27 -118 -46 -250 -106 -125 -57
-210 -81 -293 -82 -43 -1 -81 4 -85 9 -4 6 -20 17 -37 25 -16 8 -32 17 -35 20
-8 9 -132 66 -171 79 -61 20 -144 20 -186 1 -48 -22 -67 -39 -133 -120 -76
-92 -93 -108 -131 -124 -74 -30 -152 20 -204 130 -29 62 -73 221 -81 299 -3
28 -7 52 -9 55 -2 3 -7 33 -10 65 -4 33 -9 62 -10 65 -2 3 -6 26 -10 50 -15
101 -61 204 -106 238 -68 51 -133 45 -200 -21 -55 -54 -99 -108 -99 -124 0 -7
-4 -13 -8 -13 -4 0 -14 -16 -21 -35 -7 -19 -17 -35 -22 -35 -5 0 -9 -4 -9 -9
0 -6 -18 -49 -40 -96 -22 -47 -40 -88 -40 -91 0 -3 -12 -31 -26 -62 -14 -31
-27 -64 -29 -72 -2 -8 -11 -33 -21 -55 -9 -22 -18 -47 -20 -55 -1 -8 -25 -73
-52 -145 -27 -71 -59 -159 -72 -195 -46 -131 -118 -280 -136 -280 -17 0 -39
59 -51 140 -12 84 -5 384 12 485 3 16 7 53 10 80 5 47 58 386 70 450 4 17 10
49 16 73 5 23 12 59 15 79 3 20 12 66 20 102 8 36 17 77 20 91 3 14 7 32 9 40
2 8 7 31 11 50 8 45 12 65 14 65 1 0 3 9 5 20 7 54 38 182 47 198 5 10 7 21 4
24 -3 4 -1 12 5 20 6 7 9 13 5 13 -3 0 -1 11 4 26 6 14 12 39 15 57 3 18 8 39
10 47 23 81 23 219 0 254 -23 34 -48 33 -88 -5z m-1016 -921 c3 -43 -1 -83
-13 -133 -7 -27 -12 -52 -13 -55 -4 -23 -74 -192 -105 -253 -11 -22 -20 -44
-20 -50 0 -6 -6 -18 -13 -26 -8 -9 -20 -32 -27 -51 -20 -51 -91 -168 -120
-197 -13 -14 -38 -32 -54 -40 -24 -12 -30 -13 -37 -1 -9 13 -5 129 6 178 3 14
7 34 9 45 18 90 68 241 111 333 77 163 173 263 263 271 6 0 13 -9 13 -21z"/>
<path d="M7344 10445 c-52 -22 -65 -68 -90 -305 -3 -36 -8 -78 -10 -95 -29
-245 -23 -1078 11 -1460 4 -44 8 -100 11 -125 4 -49 11 -113 20 -175 4 -22 8
-53 9 -70 2 -16 4 -30 5 -30 1 0 3 -15 5 -34 5 -50 33 -118 52 -125 14 -6 14
-8 -3 -20 -50 -37 -111 41 -154 196 -18 67 -74 321 -87 393 -3 16 -16 66 -29
111 -86 299 -183 321 -375 86 -18 -21 -139 -268 -143 -292 -2 -7 -86 -220 -97
-245 -5 -11 -31 -78 -58 -150 -129 -344 -206 -512 -226 -495 -7 6 -21 36 -31
68 -15 46 -19 89 -19 227 0 150 8 290 19 350 2 11 7 49 11 85 3 36 8 72 10 80
2 8 7 33 10 55 3 23 8 52 10 65 3 14 7 43 10 65 3 22 22 123 41 225 20 102 38
196 40 210 3 14 7 33 10 42 3 9 7 27 10 40 2 13 7 37 10 53 4 17 8 40 9 52 2
12 6 26 9 31 3 5 8 27 12 48 3 22 17 84 31 139 13 55 26 109 28 120 2 11 11
49 20 85 20 79 29 190 20 237 -3 19 -15 43 -26 54 -16 16 -23 18 -42 8 -30
-17 -39 -27 -64 -80 -20 -39 -51 -119 -53 -134 -4 -31 -14 -65 -19 -65 -3 0
-7 -10 -7 -22 -2 -41 -55 -201 -94 -283 -20 -44 -50 -118 -65 -165 -15 -47
-33 -91 -39 -99 -6 -8 -9 -15 -6 -15 10 -2 -88 -229 -160 -371 -113 -222 -206
-357 -272 -390 -37 -18 -43 -15 -69 38 -42 81 -53 234 -33 462 17 207 -4 302
-78 358 -41 30 -64 38 -133 42 -51 3 -58 1 -102 -35 -94 -75 -102 -84 -211
-225 -5 -6 -24 -44 -44 -85 -41 -85 -72 -181 -87 -267 -51 -290 -48 -404 13
-470 23 -25 33 -28 86 -28 57 1 62 3 106 45 26 25 81 99 124 165 101 155 143
215 153 215 15 0 45 -84 57 -160 30 -180 113 -256 227 -207 74 31 185 144 254
257 19 30 37 57 40 60 8 7 71 140 84 180 20 59 82 153 98 147 10 -3 11 -91 1
-182 -4 -38 -6 -62 -20 -225 -3 -36 -7 -81 -9 -100 -24 -230 -23 -600 2 -700
3 -14 8 -34 10 -45 1 -11 14 -47 28 -81 l26 -61 46 -2 c61 -2 104 13 134 47
31 35 33 41 145 342 52 140 100 269 107 285 6 17 12 32 13 35 0 3 4 14 9 25 4
11 32 83 63 160 30 77 70 173 88 213 19 41 34 75 34 77 0 2 16 32 36 67 37 63
72 108 84 108 12 0 58 -94 75 -155 9 -33 21 -68 26 -77 5 -10 9 -27 9 -37 0
-11 4 -30 9 -43 5 -13 19 -66 31 -118 51 -222 89 -309 172 -392 58 -58 155
-75 224 -40 75 38 113 99 112 177 0 11 12 49 27 85 16 36 28 71 28 78 0 6 3
12 7 12 4 0 7 6 7 13 0 6 14 61 32 121 18 61 34 117 36 125 2 9 13 41 25 71
12 30 23 62 25 70 2 8 17 52 33 98 17 45 28 82 26 82 -3 0 0 9 6 21 6 11 13
28 15 37 3 18 33 117 43 142 7 21 8 21 17 55 4 17 10 35 14 40 3 6 6 15 7 20
2 9 22 63 55 147 23 59 75 153 84 153 14 -1 31 -39 55 -130 12 -44 28 -104 36
-134 8 -30 16 -62 18 -70 2 -9 6 -23 9 -31 3 -8 9 -28 13 -45 4 -16 8 -32 9
-35 1 -3 5 -18 10 -35 4 -16 10 -34 14 -40 3 -5 6 -12 6 -15 1 -10 28 -85 34
-95 3 -5 6 -14 7 -20 4 -25 80 -176 116 -230 114 -171 280 -257 414 -215 39
12 148 73 172 96 6 7 21 16 32 19 11 3 20 11 20 16 0 5 7 9 15 9 11 0 15 -12
15 -42 2 -142 22 -207 74 -239 81 -49 178 3 291 156 17 22 33 42 38 43 4 2 7
7 7 12 0 16 119 210 144 235 30 30 46 26 71 -21 37 -68 99 -121 167 -142 117
-35 198 -26 322 35 154 75 289 202 354 332 43 85 96 241 90 265 -6 32 -75 -42
-161 -172 -107 -163 -186 -242 -309 -311 -137 -77 -241 -78 -311 -1 -66 70
-92 173 -90 356 1 126 12 154 71 184 100 52 112 83 68 175 -24 51 -76 115 -94
115 -6 0 -12 4 -14 9 -1 5 -23 12 -48 15 -35 4 -58 0 -98 -19 -29 -14 -59 -30
-66 -37 -7 -7 -28 -27 -47 -43 -19 -17 -52 -53 -74 -80 -22 -28 -42 -52 -45
-55 -3 -3 -19 -25 -35 -50 -16 -25 -32 -47 -35 -50 -3 -3 -19 -27 -35 -55 -17
-27 -34 -58 -40 -67 -19 -31 -42 -73 -84 -153 -62 -119 -77 -142 -134 -208
-57 -66 -140 -133 -202 -164 -47 -24 -137 -27 -177 -7 -16 8 -28 11 -28 7 0
-5 -29 22 -64 59 -105 110 -189 307 -311 723 -74 252 -107 319 -164 327 -17 2
-35 0 -41 -6 -5 -5 -10 -7 -10 -2 0 15 -62 -30 -80 -59 -10 -16 -32 -68 -48
-115 -31 -87 -66 -179 -81 -215 -10 -22 -24 -57 -25 -65 -1 -3 -14 -36 -28
-75 -24 -63 -86 -258 -92 -288 -1 -7 -13 -46 -26 -87 -13 -41 -24 -79 -26 -85
-20 -100 -121 -346 -148 -362 -6 -3 -8 -3 -4 1 4 5 3 19 -3 33 -13 34 -16 56
-34 228 -9 80 -16 202 -19 306 -2 59 -6 111 -10 117 -3 6 -2 13 4 17 6 4 7 12
3 18 -14 23 -12 964 3 1066 12 90 16 122 33 279 7 75 2 94 -30 105 -8 2 -28
-1 -45 -8z m2393 -1104 c-7 -41 -22 -65 -50 -80 -39 -21 -64 -62 -92 -152
-123 -389 -198 -552 -310 -677 -28 -32 -92 -72 -114 -72 -13 0 -19 68 -7 80 7
7 6 10 -1 10 -23 0 38 250 94 385 41 99 76 170 85 173 4 2 8 8 8 14 0 12 61
114 87 145 10 12 34 42 53 66 60 76 153 136 213 137 36 0 38 -1 34 -29z
m-4381 -231 c1 -8 3 -19 5 -25 4 -12 -21 -146 -30 -160 -3 -5 -6 -12 -6 -15
-1 -3 -9 -30 -20 -60 -11 -30 -20 -57 -20 -60 -1 -3 -8 -21 -17 -40 -9 -19
-30 -68 -47 -107 -27 -63 -91 -179 -158 -288 -20 -34 -77 -67 -100 -58 -12 5
-14 21 -10 87 3 45 8 93 11 109 3 15 8 37 11 50 21 103 61 217 118 337 45 95
132 201 192 233 35 20 67 18 71 -3z"/>
</g>
</svg>
